<svg width="71" height="71" viewBox="0 0 71 71" fill="none" xmlns="http://www.w3.org/2000/svg">
<g filter="url(#filter0_d_258_13)">
<circle cx="35.5" cy="31.5" r="31.5" fill="#004985"/>
</g>
<g clip-path="url(#clip0_258_13)">
<path d="M36 63C51.464 63 64 50.464 64 35C64 19.536 51.464 7 36 7C20.536 7 8 19.536 8 35C8 50.464 20.536 63 36 63Z" fill="#3B89C4"/>
<path opacity="0.2" d="M22.4297 15.3153C23.8577 15.0633 24.6983 14.2233 24.9497 12.7953C25.2017 14.2233 26.0423 15.0633 27.4697 15.3153C26.0423 15.5679 25.2017 16.4073 24.9497 17.8353C24.6983 16.4073 23.8577 15.5679 22.4297 15.3153Z" fill="white"/>
<mask id="mask0_258_13" style="mask-type:luminance" maskUnits="userSpaceOnUse" x="8" y="12" width="56" height="57">
<path d="M64 40.8605C64 56.3243 51.4633 68.8605 36 68.8605C20.5362 68.8605 8 56.3243 8 40.8605C8 25.3966 20.5362 12.8605 36 12.8605H64V40.8605Z" fill="white"/>
</mask>
<g mask="url(#mask0_258_13)">
<path opacity="0.1" d="M47.76 54.5805C49.188 54.3285 50.0285 53.4885 50.28 52.0605C50.532 53.4885 51.3725 54.3285 52.8 54.5805C51.3725 54.833 50.532 55.6725 50.28 57.1005C50.0285 55.6725 49.188 54.833 47.76 54.5805ZM14.16 48.9805C15.588 48.7285 16.4285 47.8885 16.68 46.4605C16.932 47.8885 17.7725 48.7285 19.2 48.9805C17.7725 49.233 16.932 50.0725 16.68 51.5005C16.4285 50.0725 15.588 49.233 14.16 48.9805Z" fill="white"/>
</g>
<mask id="mask1_258_13" style="mask-type:luminance" maskUnits="userSpaceOnUse" x="8" y="7" width="56" height="56">
<path d="M64 35C64 50.4638 51.4633 63 36 63C20.5362 63 8 50.4638 8 35C8 19.5362 20.5362 7 36 7H64V35Z" fill="white"/>
</mask>
<g mask="url(#mask1_258_13)">
<path d="M44.1019 51.8194L36.9702 39.4669C36.538 38.7185 36.965 37.7662 37.809 37.589C40.686 36.9846 43.0516 34.9877 44.1368 32.2472C44.5268 31.2622 45.8867 31.1605 46.4175 32.0798L54.3854 45.8813C54.9248 46.8156 54.1221 47.9581 53.0596 47.7661L48.0998 46.8693L46.3971 51.6134C46.0337 52.6256 44.6451 52.7604 44.1019 51.8194Z" fill="#85288E"/>
<path d="M25.6029 51.6135L23.9002 46.8694L18.9404 47.7662C17.8787 47.9581 17.0747 46.8165 17.6146 45.8814L25.5824 32.08C26.1132 31.1606 27.4731 31.2625 27.8631 32.2474C28.9484 34.9878 31.314 36.9848 34.191 37.5892C35.0368 37.7668 35.461 38.7203 35.0298 39.4671L27.8981 51.8196C27.3561 52.7582 25.9669 52.6278 25.6029 51.6135Z" fill="#C873D0"/>
<path d="M36 40.3148C26.9272 40.3148 21.5846 30.165 26.6678 22.6856C31.1466 16.0953 40.8563 16.0987 45.3332 22.6862C50.4383 30.1979 45.0452 40.3148 36 40.3148Z" fill="#FFD155"/>
<path d="M45.3331 22.6862C43.0951 19.393 39.5492 17.7452 36.0029 17.7442V40.3148C45.0464 40.3125 50.4377 30.1971 45.3331 22.6862Z" fill="#FFA800"/>
<path d="M38.3248 34.8394L35.6289 33.4221L32.9331 34.8394C32.0031 35.3284 30.9126 34.5364 31.0903 33.5005L31.6051 30.4986L29.4243 28.3727C28.6721 27.6394 29.088 26.3576 30.1281 26.2065L33.1421 25.7685L34.4901 23.0372C34.955 22.0952 36.3027 22.0946 36.7679 23.0372L38.1157 25.7684L41.1298 26.2064C42.1693 26.3575 42.5863 27.6389 41.8337 28.3726L39.6527 30.4986L40.1675 33.5004C40.3455 34.5382 39.2517 35.3269 38.3248 34.8394Z" fill="#FFBE17"/>
<path d="M41.5009 26.5777L38.4868 26.1397L37.139 23.4085C36.9069 22.9382 36.4552 22.7029 36.0029 22.7018V33.7948L38.6959 35.2106C39.6228 35.6981 40.7166 34.9093 40.5387 33.8717L40.0238 30.8699L42.2049 28.744C42.9574 28.0102 42.5404 26.7288 41.5009 26.5777Z" fill="#FFD155"/>
</g>
</g>
<defs>
<filter id="filter0_d_258_13" x="0" y="0" width="71" height="71" filterUnits="userSpaceOnUse" color-interpolation-filters="sRGB">
<feFlood flood-opacity="0" result="BackgroundImageFix"/>
<feColorMatrix in="SourceAlpha" type="matrix" values="0 0 0 0 0 0 0 0 0 0 0 0 0 0 0 0 0 0 127 0" result="hardAlpha"/>
<feOffset dy="4"/>
<feGaussianBlur stdDeviation="2"/>
<feComposite in2="hardAlpha" operator="out"/>
<feColorMatrix type="matrix" values="0 0 0 0 0 0 0 0 0 0 0 0 0 0 0 0 0 0 0.25 0"/>
<feBlend mode="normal" in2="BackgroundImageFix" result="effect1_dropShadow_258_13"/>
<feBlend mode="normal" in="SourceGraphic" in2="effect1_dropShadow_258_13" result="shape"/>
</filter>
<clipPath id="clip0_258_13">
<rect width="56" height="56" fill="white" transform="translate(8 7)"/>
</clipPath>
</defs>
</svg>
