<svg width="62" height="62" viewBox="0 0 62 62" fill="none" xmlns="http://www.w3.org/2000/svg">
<g filter="url(#filter0_d_258_12)">
<path d="M58 27C58 41.9117 45.9117 54 31 54C16.0883 54 4 41.9117 4 27C4 12.0883 16.0883 0 31 0C45.9117 0 58 12.0883 58 27Z" fill="#004985"/>
</g>
<g clip-path="url(#clip0_258_12)">
<path d="M31 54C44.2548 54 55 43.2548 55 30C55 16.7452 44.2548 6 31 6C17.7452 6 7 16.7452 7 30C7 43.2548 17.7452 54 31 54Z" fill="#3B89C4"/>
<mask id="mask0_258_12" style="mask-type:luminance" maskUnits="userSpaceOnUse" x="7" y="6" width="48" height="48">
<path d="M55 30C55 43.2547 44.2542 54 31 54C17.7453 54 7 43.2547 7 30C7 16.7453 17.7453 6 31 6H55V30Z" fill="white"/>
</mask>
<g mask="url(#mask0_258_12)">
<path opacity="0.2" d="M21.88 15.36C23.104 15.144 23.8245 14.424 24.04 13.2C24.256 14.424 24.9765 15.144 26.2 15.36C24.9765 15.5765 24.256 16.296 24.04 17.52C23.8245 16.296 23.104 15.5765 21.88 15.36Z" fill="white"/>
</g>
<mask id="mask1_258_12" style="mask-type:luminance" maskUnits="userSpaceOnUse" x="7" y="6" width="48" height="48">
<path d="M55 30C55 43.2547 44.2542 54 31 54C17.7453 54 7 43.2547 7 30C7 16.7453 17.7453 6 31 6H55V30Z" fill="white"/>
</mask>
<g mask="url(#mask1_258_12)">
<path opacity="0.1" d="M41.08 41.76C42.304 41.544 43.0245 40.824 43.24 39.6C43.456 40.824 44.1765 41.544 45.4 41.76C44.1765 41.9765 43.456 42.696 43.24 43.92C43.0245 42.696 42.304 41.9765 41.08 41.76ZM12.28 36.96C13.504 36.744 14.2245 36.024 14.44 34.8C14.656 36.024 15.3765 36.744 16.6 36.96C15.3765 37.1765 14.656 37.896 14.44 39.12C14.2245 37.896 13.504 37.1765 12.28 36.96Z" fill="white"/>
</g>
<mask id="mask2_258_12" style="mask-type:luminance" maskUnits="userSpaceOnUse" x="7" y="6" width="48" height="48">
<path d="M55 30C55 43.2547 44.2542 54 31 54C17.7453 54 7 43.2547 7 30C7 16.7453 17.7453 6 31 6H55V30Z" fill="white"/>
</mask>
<g mask="url(#mask2_258_12)">
<path d="M55 6.048C54.9251 6.05664 54.9438 6.07584 54.952 6C43.7603 7.42992 37.4133 11.8949 33.8152 16.5768C33.6879 16.7427 33.5628 16.9102 33.4398 17.0794L33.436 17.0842C29.5672 22.4141 29.1218 27.9898 29.08 29.52H28.6L28.12 30.96L30.04 32.88L31.48 32.4V31.92C32.6194 31.8978 33.7545 31.7736 34.8717 31.549L34.8726 31.5499C35.2226 31.4626 35.32 31.5864 35.32 33.36V37.68C35.32 38.5483 35.7726 38.8786 36.2536 38.3971C37.4166 37.2317 37.695 36.9461 40.3336 34.3037C42.3304 32.3035 42.5781 31.1381 41.753 28.9954C47.2974 25.8571 53.2874 19.3862 55 6.048Z" fill="#9C55A3"/>
<path d="M30.04 32.88L28.12 30.96L28.6 29.52H29.56L31.48 31.44V32.4L30.04 32.88ZM31.96 19.44C31.1353 19.1088 31 18.96 30.04 18.96C29.08 18.96 28.0321 19.6224 26.7467 20.9102C24.7048 22.9546 24.4187 23.233 22.659 24.9941C22.084 25.5701 22.9662 25.68 24.28 25.68C26.7918 25.68 28.7425 25.62 29.4596 26.3616C30.4067 27.3408 31.96 19.44 31.96 19.44ZM55 6C54.6932 8.38704 54.2483 10.5979 53.6939 12.5654C53.1904 11.6198 52.4641 10.4707 51.5339 9.55488C50.5014 8.53728 49.2241 7.81152 48.2574 7.35408C51.1499 6.52368 53.4558 6.19776 55 6Z" fill="#8B4492"/>
<path opacity="0.3" d="M41.7529 28.9954C42.5781 31.1376 42.3827 32.2536 40.383 34.2533C39.9779 34.6584 36.6256 38.0256 36.2531 38.3971C35.7717 38.8781 35.3358 38.5483 35.32 37.68V37.367C36.76 35.927 39.9707 33.0768 40.6 31.92C40.9686 31.2427 40.7689 30.1661 40.6 29.52C39.0102 30.3648 35.0723 31.4851 34.8726 31.5499C33.3549 31.86 32.1841 31.8926 31.48 31.92V31.6051C31.48 31.6051 45.868 26.9669 55 6C53.2749 19.4626 47.2974 25.8571 41.7529 28.9954Z" fill="white"/>
<path d="M44.2 19.44C42.4796 19.44 41.08 18.0403 41.08 16.32C41.08 14.5997 42.4796 13.2 44.2 13.2C45.9203 13.2 47.32 14.5997 47.32 16.32C47.32 18.0403 45.9203 19.44 44.2 19.44Z" fill="#8B4492"/>
<path d="M44.2 13.68C44.9001 13.68 45.5716 13.9581 46.0667 14.4532C46.5618 14.9483 46.84 15.6198 46.84 16.32C46.84 17.0202 46.5618 17.6917 46.0667 18.1868C45.5716 18.6819 44.9001 18.96 44.2 18.96C43.4998 18.96 42.8283 18.6819 42.3332 18.1868C41.8381 17.6917 41.56 17.0202 41.56 16.32C41.56 15.6198 41.8381 14.9483 42.3332 14.4532C42.8283 13.9581 43.4998 13.68 44.2 13.68ZM44.2 12.72C42.2142 12.72 40.6 14.3347 40.6 16.32C40.6 18.3053 42.2142 19.92 44.2 19.92C46.1857 19.92 47.8 18.3053 47.8 16.32C47.8 14.3347 46.1857 12.72 44.2 12.72Z" fill="#460D4B" fill-opacity="0.68"/>
<path d="M28.12 30.96L30.04 32.88L13.24 50.16L10.36 47.28L28.12 30.96Z" fill="#D7DCDE"/>
<path d="M28.06 30.96L29.02 31.92L10.6 49.92L9.15997 48.48L28.06 30.96Z" fill="#A2A2A2"/>
</g>
</g>
<defs>
<filter id="filter0_d_258_12" x="0" y="0" width="62" height="62" filterUnits="userSpaceOnUse" color-interpolation-filters="sRGB">
<feFlood flood-opacity="0" result="BackgroundImageFix"/>
<feColorMatrix in="SourceAlpha" type="matrix" values="0 0 0 0 0 0 0 0 0 0 0 0 0 0 0 0 0 0 127 0" result="hardAlpha"/>
<feOffset dy="4"/>
<feGaussianBlur stdDeviation="2"/>
<feComposite in2="hardAlpha" operator="out"/>
<feColorMatrix type="matrix" values="0 0 0 0 0 0 0 0 0 0 0 0 0 0 0 0 0 0 0.25 0"/>
<feBlend mode="normal" in2="BackgroundImageFix" result="effect1_dropShadow_258_12"/>
<feBlend mode="normal" in="SourceGraphic" in2="effect1_dropShadow_258_12" result="shape"/>
</filter>
<clipPath id="clip0_258_12">
<rect width="48" height="48" fill="white" transform="translate(7 6)"/>
</clipPath>
</defs>
</svg>
