<svg width="62" height="62" viewBox="0 0 62 62" fill="none" xmlns="http://www.w3.org/2000/svg">
<g filter="url(#filter0_d_258_14)">
<circle cx="31" cy="27" r="27" fill="#004985"/>
</g>
<g clip-path="url(#clip0_258_14)">
<path d="M31 54C44.2548 54 55 43.2548 55 30C55 16.7452 44.2548 6 31 6C17.7452 6 7 16.7452 7 30C7 43.2548 17.7452 54 31 54Z" fill="#3B89C4"/>
<path opacity="0.2" d="M19.3684 13.1274C20.5924 12.9114 21.3129 12.1914 21.5284 10.9674C21.7444 12.1914 22.4649 12.9114 23.6884 13.1274C22.4649 13.3439 21.7444 14.0634 21.5284 15.2874C21.3129 14.0634 20.5924 13.3439 19.3684 13.1274Z" fill="white"/>
<mask id="mask0_258_14" style="mask-type:luminance" maskUnits="userSpaceOnUse" x="7" y="11" width="48" height="49">
<path d="M55 35.0233C55 48.278 44.2542 59.0233 31 59.0233C17.7453 59.0233 7 48.278 7 35.0233C7 21.7685 17.7453 11.0233 31 11.0233H55V35.0233Z" fill="white"/>
</mask>
<g mask="url(#mask0_258_14)">
<path opacity="0.1" d="M41.08 46.7832C42.304 46.5672 43.0245 45.8472 43.24 44.6232C43.456 45.8472 44.1765 46.5672 45.4 46.7832C44.1765 46.9997 43.456 47.7192 43.24 48.9432C43.0245 47.7192 42.304 46.9997 41.08 46.7832ZM12.28 41.9832C13.504 41.7672 14.2245 41.0472 14.44 39.8232C14.656 41.0472 15.3765 41.7672 16.6 41.9832C15.3765 42.1997 14.656 42.9192 14.44 44.1432C14.2245 42.9192 13.504 42.1997 12.28 41.9832Z" fill="white"/>
</g>
<path d="M31.0001 45.279C40.3761 45.279 47.9768 37.6783 47.9768 28.3023C47.9768 18.9263 40.3761 11.3256 31.0001 11.3256C21.6241 11.3256 14.0233 18.9263 14.0233 28.3023C14.0233 37.6783 21.6241 45.279 31.0001 45.279Z" fill="white" fill-opacity="0.56"/>
<path d="M42.035 28.3023C42.035 21.7663 36.4326 16.5884 29.7268 17.3523C24.6338 17.9465 20.5594 22.0209 20.0501 27.1139C19.6257 31.0186 21.2384 34.4988 23.9547 36.7058C25.1431 37.7244 25.9071 39.1674 25.9071 40.7802V41.0349H36.0931V40.95C36.0931 39.4221 36.7722 37.8942 37.9605 36.8756C40.4222 34.8383 42.035 31.7825 42.035 28.3023Z" fill="#FFB600"/>
<path d="M36.6024 26.7744L34.0559 25.0767C33.8012 24.907 33.3768 24.907 33.1221 25.0767L31 26.4349L28.9628 25.0767C28.7082 24.907 28.2838 24.907 28.0291 25.0767L25.4826 26.7744C25.3128 26.9442 25.1431 27.1139 25.1431 27.3686C25.1431 27.6232 25.1431 27.8779 25.3128 28.0477L28.5384 32.0372V41.0349H30.2361V31.6977C30.2361 31.5279 30.1512 31.3581 30.0663 31.1884C30.0663 31.1884 27.2325 28.7442 27.2652 27.7081C27.2978 26.6721 28.5384 26.8593 28.5384 26.8593L30.2361 27.3686C30.4907 27.5384 31.5942 27.5384 31.8489 27.3686L33.5466 26.8593C33.5466 26.8593 34.8722 26.9511 34.8198 27.7081C34.7674 28.4651 32.0186 31.1884 32.0186 31.1884C31.9338 31.3581 31.8489 31.5279 31.8489 31.6977V41.0349H33.5466V32.0372L36.7721 28.0477C36.9419 27.8779 37.0268 27.6232 36.9419 27.3686C36.857 27.1139 36.7721 26.8593 36.6024 26.7744Z" fill="#FFE500"/>
<path d="M31 49.5233C32.4064 49.5233 33.5465 48.3831 33.5465 46.9767C33.5465 45.5703 32.4064 44.4302 31 44.4302C29.5936 44.4302 28.4535 45.5703 28.4535 46.9767C28.4535 48.3831 29.5936 49.5233 31 49.5233Z" fill="#460D4B" fill-opacity="0.68"/>
<path d="M32.6977 47.8256H29.3023C27.4349 47.8256 25.907 46.2977 25.907 44.4302V40.186H36.093V44.4302C36.093 46.2977 34.5651 47.8256 32.6977 47.8256Z" fill="#9C55A3"/>
<path d="M36.093 44.4302L26.2465 45.7884C26.5011 46.3826 27.0104 46.9767 27.6046 47.3163L35.5837 46.2128C35.9232 45.7035 36.093 45.1093 36.093 44.4302Z" fill="#460D4B" fill-opacity="0.68"/>
<path d="M25.907 42.4779V44.1756L36.093 42.7326V41.0349L25.907 42.4779Z" fill="#460D4B" fill-opacity="0.68"/>
</g>
<defs>
<filter id="filter0_d_258_14" x="0" y="0" width="62" height="62" filterUnits="userSpaceOnUse" color-interpolation-filters="sRGB">
<feFlood flood-opacity="0" result="BackgroundImageFix"/>
<feColorMatrix in="SourceAlpha" type="matrix" values="0 0 0 0 0 0 0 0 0 0 0 0 0 0 0 0 0 0 127 0" result="hardAlpha"/>
<feOffset dy="4"/>
<feGaussianBlur stdDeviation="2"/>
<feComposite in2="hardAlpha" operator="out"/>
<feColorMatrix type="matrix" values="0 0 0 0 0 0 0 0 0 0 0 0 0 0 0 0 0 0 0.25 0"/>
<feBlend mode="normal" in2="BackgroundImageFix" result="effect1_dropShadow_258_14"/>
<feBlend mode="normal" in="SourceGraphic" in2="effect1_dropShadow_258_14" result="shape"/>
</filter>
<clipPath id="clip0_258_14">
<rect width="48" height="48" fill="white" transform="translate(7 6)"/>
</clipPath>
</defs>
</svg>
