<svg width="18" height="18" viewBox="0 0 18 18" fill="none" xmlns="http://www.w3.org/2000/svg">
<path d="M17.2248 5.40114H4.62089L3.60332 1.20264H0.775635V1.80226H3.13139L6.05526 13.8639C5.43201 14.0456 4.97357 14.6143 4.97357 15.2966C4.97357 16.1246 5.64464 16.7963 6.4732 16.7963C7.30176 16.7963 7.97282 16.1246 7.97282 15.2966C7.97282 14.9574 7.85582 14.6481 7.66626 14.3972H11.8777C11.6881 14.6481 11.5711 14.958 11.5711 15.2966C11.5711 16.1246 12.2422 16.7963 13.0702 16.7963C13.8982 16.7963 14.5698 16.1246 14.5698 15.2966C14.5698 14.4681 13.8988 13.7976 13.0702 13.797H6.65601L6.3652 12.5972H14.7847L17.2243 5.40001L17.2248 5.40114ZM7.37264 15.2978C7.37264 15.7939 6.96932 16.1972 6.4732 16.1972C5.97707 16.1972 5.57376 15.7939 5.57376 15.2978C5.57376 14.8016 5.97707 14.3983 6.4732 14.3983C6.96932 14.3983 7.37264 14.8022 7.37264 15.2978ZM13.9702 15.2978C13.9702 15.7939 13.5663 16.1972 13.0702 16.1972C12.5741 16.1972 12.1708 15.7939 12.1708 15.2978C12.1708 14.8016 12.5741 14.3983 13.0702 14.3983C13.5663 14.3983 13.9702 14.8022 13.9702 15.2978ZM6.22007 11.9987L4.76601 6.00132H16.3884L14.355 11.9987H6.22007Z" fill="white"/>
</svg>
