<svg width="20" height="20" viewBox="0 0 20 20" fill="none" xmlns="http://www.w3.org/2000/svg">
<path d="M17.8378 18.5149L14.7461 15.4482C15.9462 13.9519 16.5274 12.0527 16.3701 10.141C16.2129 8.22933 15.3292 6.45056 13.9007 5.17045C12.4723 3.89033 10.6076 3.20617 8.69024 3.25864C6.77283 3.3111 4.9484 4.09621 3.59209 5.45253C2.23577 6.80885 1.45066 8.63328 1.39819 10.5507C1.34573 12.4681 2.02989 14.3327 3.31001 15.7612C4.59012 17.1896 6.36889 18.0733 8.28055 18.2306C10.1922 18.3878 12.0915 17.8067 13.5878 16.6066L16.6545 19.6732C16.7319 19.7514 16.8241 19.8133 16.9257 19.8557C17.0272 19.898 17.1361 19.9197 17.2461 19.9197C17.3561 19.9197 17.4651 19.898 17.5666 19.8557C17.6682 19.8133 17.7603 19.7514 17.8378 19.6732C17.988 19.5179 18.072 19.3102 18.072 19.0941C18.072 18.878 17.988 18.6703 17.8378 18.5149ZM8.9128 16.6066C7.75908 16.6066 6.63126 16.2645 5.67198 15.6235C4.71269 14.9825 3.96502 14.0715 3.52351 13.0056C3.08199 11.9397 2.96647 10.7668 3.19156 9.63522C3.41664 8.50366 3.97221 7.46426 4.78801 6.64846C5.60382 5.83265 6.64322 5.27708 7.77478 5.052C8.90633 4.82692 10.0792 4.94244 11.1451 5.38395C12.211 5.82546 13.1221 6.57313 13.763 7.53242C14.404 8.49171 14.7461 9.61952 14.7461 10.7732C14.7461 12.3203 14.1316 13.8041 13.0376 14.898C11.9436 15.992 10.4599 16.6066 8.9128 16.6066Z" fill="white"/>
</svg>
