<svg width="385" height="385" viewBox="0 0 385 385" fill="none" xmlns="http://www.w3.org/2000/svg">
<g opacity="0.18" filter="url(#filter0_d_164_484)">
<path d="M192.5 0L183.546 4.24125L18.6088 73.515L4 79.6413V94.25C4 172.477 35.5738 241.28 73.2738 291.704C92.1238 316.68 112.388 337.415 132.18 352.024C151.973 366.633 171.294 377 192.5 377C214.178 377 233.028 366.633 252.82 352.024C272.613 337.415 292.876 316.68 311.726 291.704C349.426 241.28 381 172.477 381 94.25V79.6413L366.391 73.515L201.454 4.24125L192.5 0Z" fill="#F9F9F9" fill-opacity="0.85"/>
<path d="M191.5 18L183.401 21.8363L34.2138 84.495L21 90.0363V103.25C21 174.008 49.5588 236.24 83.6588 281.849C100.709 304.44 119.038 323.195 136.94 336.409C154.842 349.623 172.319 359 191.5 359C211.108 359 228.158 349.623 246.06 336.409C263.963 323.195 282.291 304.44 299.341 281.849C333.441 236.24 362 174.008 362 103.25V90.0363L348.786 84.495L199.599 21.8363L191.5 18Z" fill="#F9F9F9" fill-opacity="0.74"/>
<path d="M191.5 35L183.971 38.5663L45.2837 96.815L33 101.966V114.25C33 180.027 59.5488 237.88 91.2487 280.279C107.099 301.28 124.137 318.715 140.78 330.999C157.423 343.283 173.669 352 191.5 352C209.727 352 225.578 343.283 242.22 330.999C258.863 318.715 275.901 301.28 291.751 280.279C323.451 237.88 350 180.027 350 114.25V101.966L337.716 96.815L199.029 38.5663L191.5 35Z" fill="#C8BEBE" fill-opacity="0.9"/>
<path d="M192 50L185.16 53.24L59.16 106.16L48 110.84V122C48 181.76 72.12 234.32 100.92 272.84C115.32 291.92 130.8 307.76 145.92 318.92C161.04 330.08 175.8 338 192 338C208.56 338 222.96 330.08 238.08 318.92C253.2 307.76 268.68 291.92 283.08 272.84C311.88 234.32 336 181.76 336 122V110.84L324.84 106.16L198.84 53.24L192 50Z" fill="#DCD4D4"/>
<path d="M191.5 61L185.206 63.9813L69.2688 112.675L59 116.981V127.25C59 182.237 81.1938 230.6 107.694 266.044C120.944 283.6 135.188 298.175 149.1 308.444C163.012 318.712 176.594 326 191.5 326C206.738 326 219.988 318.712 233.9 308.444C247.813 298.175 262.056 283.6 275.306 266.044C301.806 230.6 324 182.237 324 127.25V116.981L313.731 112.675L197.794 63.9813L191.5 61Z" fill="#F9F9F9" fill-opacity="0.85"/>
<path d="M191.5 70L185.634 72.7788L77.5712 118.165L68 122.179V131.75C68 183.003 88.6863 228.08 113.386 261.116C125.736 277.48 139.012 291.065 151.98 300.636C164.948 310.208 177.606 317 191.5 317C205.702 317 218.053 310.208 231.02 300.636C243.988 291.065 257.264 277.48 269.614 261.116C294.314 228.08 315 183.003 315 131.75V122.179L305.429 118.165L197.366 72.7788L191.5 70Z" fill="#F9F9F9" fill-opacity="0.85"/>
<path d="M191.5 78L186.014 80.5988L84.9513 123.045L76 126.799V135.75C76 183.682 95.3463 225.84 118.446 256.736C129.996 272.04 142.412 284.745 154.54 293.696C166.668 302.648 178.506 309 191.5 309C204.783 309 216.333 302.648 228.46 293.696C240.588 284.745 253.004 272.04 264.554 256.736C287.654 225.84 307 183.682 307 135.75V126.799L298.049 123.045L196.986 80.5988L191.5 78Z" fill="#ECEAEA" fill-opacity="0.85"/>
<path d="M191.5 91L186.536 93.295L95.0988 130.78L87 134.095V142C87 184.33 104.504 221.56 125.404 248.845C135.854 262.36 147.087 273.58 158.06 281.485C169.033 289.39 179.744 295 191.5 295C203.518 295 213.968 289.39 224.94 281.485C235.913 273.58 247.146 262.36 257.596 248.845C278.496 221.56 296 184.33 296 142V134.095L287.901 130.78L196.464 93.295L191.5 91Z" fill="#DBD1D1" fill-opacity="0.56"/>
<path d="M191.5 100L187.106 102.081L106.169 136.075L99 139.081V146.25C99 184.637 114.494 218.4 132.994 243.144C142.244 255.4 152.188 265.575 161.9 272.744C171.612 279.912 181.094 285 191.5 285C202.137 285 211.388 279.912 221.1 272.744C230.812 265.575 240.756 255.4 250.006 243.144C268.506 218.4 284 184.637 284 146.25V139.081L276.831 136.075L195.894 102.081L191.5 100Z" fill="#D2D2D2"/>
<g filter="url(#filter1_d_164_484)">
<path d="M191.393 110.079L187.451 111.947L114.838 142.444L108.406 145.141V151.573C108.406 186.012 122.307 216.302 138.904 238.501C147.202 249.497 156.124 258.625 164.837 265.057C173.551 271.488 182.057 276.053 191.393 276.053C200.936 276.053 209.235 271.488 217.949 265.057C226.662 258.625 235.583 249.497 243.882 238.501C260.479 216.302 274.379 186.012 274.379 151.573V145.141L267.948 142.444L195.335 111.947L191.393 110.079Z" fill="#F2F2F2"/>
</g>
<g filter="url(#filter2_d_164_484)">
<path d="M191.73 122.846L188.411 124.419L127.263 150.101L121.847 152.372V157.788C121.847 186.79 133.552 212.297 147.529 230.991C154.517 240.251 162.03 247.938 169.367 253.354C176.705 258.77 183.868 262.613 191.73 262.613C199.767 262.613 206.755 258.77 214.093 253.354C221.431 247.938 228.943 240.251 235.931 230.991C249.908 212.297 261.614 186.79 261.614 157.788V152.372L256.198 150.101L195.05 124.419L191.73 122.846Z" fill="#EAEAEA"/>
</g>
<g filter="url(#filter3_d_164_484)">
<path d="M191.729 136.286L189.048 137.556L139.66 158.299L135.285 160.133V164.508C135.285 187.932 144.74 208.534 156.028 223.633C161.673 231.112 167.741 237.321 173.667 241.695C179.594 246.07 185.379 249.174 191.729 249.174C198.221 249.174 203.865 246.07 209.792 241.695C215.718 237.321 221.786 231.112 227.43 223.633C238.719 208.534 248.174 187.932 248.174 164.508V160.133L243.799 158.299L194.411 137.556L191.729 136.286Z" fill="#D7D7D7"/>
</g>
</g>
<defs>
<filter id="filter0_d_164_484" x="0" y="0" width="385" height="385" filterUnits="userSpaceOnUse" color-interpolation-filters="sRGB">
<feFlood flood-opacity="0" result="BackgroundImageFix"/>
<feColorMatrix in="SourceAlpha" type="matrix" values="0 0 0 0 0 0 0 0 0 0 0 0 0 0 0 0 0 0 127 0" result="hardAlpha"/>
<feOffset dy="4"/>
<feGaussianBlur stdDeviation="2"/>
<feComposite in2="hardAlpha" operator="out"/>
<feColorMatrix type="matrix" values="0 0 0 0 0 0 0 0 0 0 0 0 0 0 0 0 0 0 0.25 0"/>
<feBlend mode="normal" in2="BackgroundImageFix" result="effect1_dropShadow_164_484"/>
<feBlend mode="normal" in="SourceGraphic" in2="effect1_dropShadow_164_484" result="shape"/>
</filter>
<filter id="filter1_d_164_484" x="104.406" y="110.079" width="173.973" height="173.973" filterUnits="userSpaceOnUse" color-interpolation-filters="sRGB">
<feFlood flood-opacity="0" result="BackgroundImageFix"/>
<feColorMatrix in="SourceAlpha" type="matrix" values="0 0 0 0 0 0 0 0 0 0 0 0 0 0 0 0 0 0 127 0" result="hardAlpha"/>
<feOffset dy="4"/>
<feGaussianBlur stdDeviation="2"/>
<feComposite in2="hardAlpha" operator="out"/>
<feColorMatrix type="matrix" values="0 0 0 0 0 0 0 0 0 0 0 0 0 0 0 0 0 0 0.06 0"/>
<feBlend mode="normal" in2="BackgroundImageFix" result="effect1_dropShadow_164_484"/>
<feBlend mode="normal" in="SourceGraphic" in2="effect1_dropShadow_164_484" result="shape"/>
</filter>
<filter id="filter2_d_164_484" x="117.847" y="122.846" width="147.767" height="147.767" filterUnits="userSpaceOnUse" color-interpolation-filters="sRGB">
<feFlood flood-opacity="0" result="BackgroundImageFix"/>
<feColorMatrix in="SourceAlpha" type="matrix" values="0 0 0 0 0 0 0 0 0 0 0 0 0 0 0 0 0 0 127 0" result="hardAlpha"/>
<feOffset dy="4"/>
<feGaussianBlur stdDeviation="2"/>
<feComposite in2="hardAlpha" operator="out"/>
<feColorMatrix type="matrix" values="0 0 0 0 0 0 0 0 0 0 0 0 0 0 0 0 0 0 0.05 0"/>
<feBlend mode="normal" in2="BackgroundImageFix" result="effect1_dropShadow_164_484"/>
<feBlend mode="normal" in="SourceGraphic" in2="effect1_dropShadow_164_484" result="shape"/>
</filter>
<filter id="filter3_d_164_484" x="135.285" y="136.286" width="112.889" height="116.889" filterUnits="userSpaceOnUse" color-interpolation-filters="sRGB">
<feFlood flood-opacity="0" result="BackgroundImageFix"/>
<feColorMatrix in="SourceAlpha" type="matrix" values="0 0 0 0 0 0 0 0 0 0 0 0 0 0 0 0 0 0 127 0" result="hardAlpha"/>
<feOffset dy="4"/>
<feComposite in2="hardAlpha" operator="out"/>
<feColorMatrix type="matrix" values="0 0 0 0 0 0 0 0 0 0 0 0 0 0 0 0 0 0 0.07 0"/>
<feBlend mode="normal" in2="BackgroundImageFix" result="effect1_dropShadow_164_484"/>
<feBlend mode="normal" in="SourceGraphic" in2="effect1_dropShadow_164_484" result="shape"/>
</filter>
</defs>
</svg>
