<svg width="12" height="14" viewBox="0 0 12 14" fill="none" xmlns="http://www.w3.org/2000/svg"><path fill-rule="evenodd" clip-rule="evenodd" d="M4.02.453a7.9 7.9 0 0 1 3.96 0c1.881.486 3.35 2.102 3.79 4.172a10.5 10.5 0 0 1 0 4.359c-.44 2.07-1.909 3.686-3.79 4.171a7.9 7.9 0 0 1-3.96 0C2.139 12.67.67 11.054.23 8.984a10.5 10.5 0 0 1 0-4.359C.67 2.555 2.138.939 4.02.453m4.015 5.234a.45.45 0 0 0-.019-.596.36.36 0 0 0-.54.021L5.511 7.427l-.996-1.096a.36.36 0 0 0-.542 0 .45.45 0 0 0 0 .596L5.251 8.33a.36.36 0 0 0 .277.124.37.37 0 0 0 .272-.134z" fill="#3B89C4"/></svg>