<svg width="70" height="70" viewBox="0 0 70 70" fill="none" xmlns="http://www.w3.org/2000/svg">
<g filter="url(#filter0_d_258_2)">
<path fill-rule="evenodd" clip-rule="evenodd" d="M33.5275 0.6975L35 0L36.4725 0.6975L63.5975 12.09L66 13.0975V15.5C66 28.365 60.8075 39.68 54.6075 47.9725C51.5075 52.08 48.175 55.49 44.92 57.8925C41.665 60.295 38.565 62 35 62C31.5125 62 28.335 60.295 25.08 57.8925C21.825 55.49 18.4925 52.08 15.3925 47.9725C9.1925 39.68 4 28.365 4 15.5V13.0975L6.4025 12.09L33.5275 0.6975ZM33.8839 5.35712L35.1239 4.76975L36.3639 5.35712L59.2061 14.9508L61.2292 15.7992V17.8224C61.2292 28.6561 56.8566 38.1845 51.6355 45.1677C49.025 48.6266 46.2187 51.4982 43.4776 53.5214C40.7366 55.5445 38.1261 56.9803 35.1239 56.9803C32.1871 56.9803 29.5113 55.5445 26.7703 53.5214C24.0292 51.4982 21.2229 48.6266 18.6124 45.1677C13.3913 38.1845 9.01866 28.6561 9.01866 17.8224V15.7992L11.0418 14.9508L33.8839 5.35712Z" fill="url(#paint0_linear_258_2)" shape-rendering="crispEdges"/>
</g>
<g filter="url(#filter1_d_258_2)">
<path fill-rule="evenodd" clip-rule="evenodd" d="M33.8588 17.3038L34.5 17L35.1412 17.3038L46.9537 22.265L48 22.7038V23.75C48 29.3525 45.7388 34.28 43.0388 37.8912C41.6888 39.68 40.2375 41.165 38.82 42.2113C37.4025 43.2575 36.0525 44 34.5 44C32.9812 44 31.5975 43.2575 30.18 42.2113C28.7625 41.165 27.3113 39.68 25.9613 37.8912C23.2613 34.28 21 29.3525 21 23.75V22.7038L22.0462 22.265L33.8588 17.3038ZM34.0139 19.333L34.5539 19.0772L35.0939 19.333L45.0413 23.5108L45.9224 23.8803V24.7614C45.9224 29.4793 44.0181 33.6287 41.7445 36.6698C40.6076 38.1761 39.3855 39.4266 38.1918 40.3077C36.9981 41.1888 35.8613 41.814 34.5539 41.814C33.275 41.814 32.1097 41.1888 30.916 40.3077C29.7223 39.4266 28.5002 38.1761 27.3634 36.6698C25.0897 33.6287 23.1855 29.4793 23.1855 24.7614V23.8803L24.0666 23.5108L34.0139 19.333Z" fill="url(#paint1_linear_258_2)"/>
</g>
<path d="M39.0922 27.2171L31.2172 35.0921C31.1762 35.133 31.1206 35.156 31.0626 35.156C31.0046 35.156 30.949 35.1329 30.908 35.0919C30.867 35.0509 30.8439 34.9953 30.8439 34.9373C30.8439 34.8794 30.8669 34.8237 30.9078 34.7827L38.7828 26.9077C38.8239 26.8667 38.8795 26.8437 38.9375 26.8437C38.9955 26.8438 39.0511 26.8668 39.0921 26.9078C39.1331 26.9488 39.1561 27.0044 39.1562 27.0624C39.1562 27.1204 39.1332 27.176 39.0922 27.2171ZM30.9188 29.3936C30.6318 29.1072 30.453 28.7302 30.4129 28.3268C30.3728 27.9234 30.4738 27.5185 30.6987 27.1812C30.9237 26.8439 31.2587 26.5951 31.6465 26.4772C32.0344 26.3592 32.4512 26.3794 32.8258 26.5344C33.2005 26.6893 33.5098 26.9694 33.701 27.3268C33.8923 27.6843 33.9537 28.097 33.8747 28.4947C33.7957 28.8923 33.5813 29.2502 33.2679 29.5075C32.9546 29.7647 32.5617 29.9053 32.1563 29.9053C31.9264 29.9061 31.6987 29.8612 31.4863 29.7734C31.2739 29.6855 31.081 29.5564 30.9188 29.3936ZM30.8438 28.1561C30.8439 28.4595 30.9491 28.7535 31.1417 28.9879C31.3342 29.2224 31.602 29.3829 31.8996 29.442C32.1971 29.5012 32.506 29.4553 32.7736 29.3123C33.0411 29.1693 33.2508 28.9379 33.3669 28.6576C33.483 28.3773 33.4983 28.0655 33.4103 27.7751C33.3222 27.4848 33.1363 27.234 32.8841 27.0654C32.6318 26.8968 32.329 26.8209 32.027 26.8505C31.7251 26.8802 31.4428 27.0136 31.2282 27.228C31.106 27.3496 31.009 27.4943 30.943 27.6536C30.877 27.8129 30.8433 27.9837 30.8438 28.1561ZM39.5938 33.8436C39.5938 34.2485 39.4534 34.6409 39.1965 34.9538C38.9397 35.2668 38.5823 35.481 38.1852 35.56C37.7881 35.639 37.3759 35.5778 37.0188 35.387C36.6618 35.1961 36.3819 34.8874 36.227 34.5133C36.072 34.1393 36.0516 33.7231 36.1691 33.3356C36.2867 32.9482 36.5349 32.6135 36.8715 32.3886C37.2082 32.1636 37.6124 32.0624 38.0153 32.1021C38.4182 32.1417 38.7949 32.3199 39.0812 32.6062C39.2442 32.7683 39.3735 32.9612 39.4614 33.1736C39.5494 33.386 39.5944 33.6137 39.5938 33.8436ZM39.1563 33.8436C39.1563 33.54 39.051 33.2457 38.8584 33.011C38.6657 32.7762 38.3977 32.6156 38.0998 32.5563C37.802 32.4971 37.4929 32.5429 37.2251 32.6861C36.9573 32.8292 36.7474 33.0608 36.6312 33.3413C36.5149 33.6219 36.4996 33.934 36.5877 34.2246C36.6759 34.5152 36.8621 34.7662 37.1145 34.9349C37.367 35.1036 37.6702 35.1796 37.9724 35.1498C38.2746 35.1201 38.5571 34.9864 38.7718 34.7717C38.8941 34.6501 38.991 34.5055 39.057 34.3462C39.123 34.1869 39.1567 34.0161 39.1563 33.8436Z" fill="url(#paint2_linear_258_2)"/>
<defs>
<filter id="filter0_d_258_2" x="0" y="0" width="70" height="70" filterUnits="userSpaceOnUse" color-interpolation-filters="sRGB">
<feFlood flood-opacity="0" result="BackgroundImageFix"/>
<feColorMatrix in="SourceAlpha" type="matrix" values="0 0 0 0 0 0 0 0 0 0 0 0 0 0 0 0 0 0 127 0" result="hardAlpha"/>
<feOffset dy="4"/>
<feGaussianBlur stdDeviation="2"/>
<feComposite in2="hardAlpha" operator="out"/>
<feColorMatrix type="matrix" values="0 0 0 0 0 0 0 0 0 0 0 0 0 0 0 0 0 0 0.06 0"/>
<feBlend mode="normal" in2="BackgroundImageFix" result="effect1_dropShadow_258_2"/>
<feBlend mode="normal" in="SourceGraphic" in2="effect1_dropShadow_258_2" result="shape"/>
</filter>
<filter id="filter1_d_258_2" x="17" y="17" width="35" height="35" filterUnits="userSpaceOnUse" color-interpolation-filters="sRGB">
<feFlood flood-opacity="0" result="BackgroundImageFix"/>
<feColorMatrix in="SourceAlpha" type="matrix" values="0 0 0 0 0 0 0 0 0 0 0 0 0 0 0 0 0 0 127 0" result="hardAlpha"/>
<feOffset dy="4"/>
<feGaussianBlur stdDeviation="2"/>
<feComposite in2="hardAlpha" operator="out"/>
<feColorMatrix type="matrix" values="0 0 0 0 0 0 0 0 0 0 0 0 0 0 0 0 0 0 0.06 0"/>
<feBlend mode="normal" in2="BackgroundImageFix" result="effect1_dropShadow_258_2"/>
<feBlend mode="normal" in="SourceGraphic" in2="effect1_dropShadow_258_2" result="shape"/>
</filter>
<linearGradient id="paint0_linear_258_2" x1="35" y1="0" x2="35" y2="62" gradientUnits="userSpaceOnUse">
<stop stop-color="#EFEFEF"/>
<stop offset="1" stop-color="#A9A0AA" stop-opacity="0.72"/>
</linearGradient>
<linearGradient id="paint1_linear_258_2" x1="34.5" y1="17" x2="34.5" y2="44" gradientUnits="userSpaceOnUse">
<stop stop-color="#3EACFF"/>
<stop offset="1" stop-color="#012340"/>
</linearGradient>
<linearGradient id="paint2_linear_258_2" x1="34.999" y1="26.4014" x2="34.999" y2="35.5936" gradientUnits="userSpaceOnUse">
<stop stop-color="#4DB2FF"/>
<stop offset="1" stop-color="#072A46"/>
</linearGradient>
</defs>
</svg>
