<svg width="70" height="70" viewBox="0 0 70 70" fill="none" xmlns="http://www.w3.org/2000/svg">
<g filter="url(#filter0_d_164_431)">
<path fill-rule="evenodd" clip-rule="evenodd" d="M33.5275 0.6975L35 0L36.4725 0.6975L63.5975 12.09L66 13.0975V15.5C66 28.365 60.8075 39.68 54.6075 47.9725C51.5075 52.08 48.175 55.49 44.92 57.8925C41.665 60.295 38.565 62 35 62C31.5125 62 28.335 60.295 25.08 57.8925C21.825 55.49 18.4925 52.08 15.3925 47.9725C9.1925 39.68 4 28.365 4 15.5V13.0975L6.4025 12.09L33.5275 0.6975ZM33.8839 5.35712L35.1239 4.76975L36.3639 5.35712L59.2061 14.9508L61.2292 15.7992V17.8224C61.2292 28.6561 56.8566 38.1845 51.6355 45.1677C49.025 48.6266 46.2187 51.4982 43.4776 53.5214C40.7366 55.5445 38.1261 56.9803 35.1239 56.9803C32.1871 56.9803 29.5113 55.5445 26.7703 53.5214C24.0292 51.4982 21.2229 48.6266 18.6124 45.1677C13.3913 38.1845 9.01866 28.6561 9.01866 17.8224V15.7992L11.0418 14.9508L33.8839 5.35712Z" fill="url(#paint0_linear_164_431)" shape-rendering="crispEdges"/>
</g>
<path d="M47.3428 29.7209C47.3428 30.6626 47.0636 31.5832 46.5403 32.3663C46.0171 33.1493 45.2735 33.7596 44.4034 34.12C43.5333 34.4804 42.5759 34.5747 41.6522 34.391C40.7286 34.2073 39.8801 33.7538 39.2142 33.0878C39.209 33.0826 39.2039 33.0772 39.199 33.0717L33.7015 26.8642C33.1372 26.3029 32.4192 25.9213 31.6383 25.7676C30.8573 25.6139 30.0483 25.695 29.3133 26.0006C28.5784 26.3061 27.9504 26.8226 27.5087 27.4847C27.0669 28.1468 26.8311 28.9249 26.8311 29.7209C26.8311 30.5168 27.0669 31.2949 27.5087 31.957C27.9504 32.6191 28.5784 33.1356 29.3133 33.4412C30.0483 33.7467 30.8573 33.8278 31.6383 33.6741C32.4192 33.5204 33.1372 33.1388 33.7015 32.5775L34.4894 31.6879C34.5213 31.6519 34.56 31.6225 34.6032 31.6014C34.6465 31.5803 34.6934 31.568 34.7415 31.5651C34.7895 31.5622 34.8376 31.5687 34.8831 31.5844C34.9285 31.6001 34.9705 31.6246 35.0065 31.6565C35.0425 31.6884 35.0719 31.727 35.0929 31.7703C35.114 31.8135 35.1263 31.8605 35.1293 31.9085C35.1322 31.9565 35.1256 32.0046 35.1099 32.0501C35.0942 32.0956 35.0698 32.1375 35.0379 32.1735L34.2424 33.0717C34.2375 33.0772 34.2325 33.0826 34.2272 33.0878C33.5613 33.7538 32.7129 34.2073 31.7892 34.391C30.8655 34.5747 29.9081 34.4804 29.0381 34.12C28.168 33.7596 27.4243 33.1493 26.9011 32.3663C26.3779 31.5832 26.0986 30.6626 26.0986 29.7209C26.0986 28.7791 26.3779 27.8585 26.9011 27.0754C27.4243 26.2924 28.168 25.6821 29.0381 25.3217C29.9081 24.9613 30.8655 24.867 31.7892 25.0507C32.7129 25.2345 33.5613 25.688 34.2272 26.3539C34.2325 26.3591 34.2375 26.3645 34.2424 26.3701L39.7399 32.5775C40.3043 33.1388 41.0222 33.5204 41.8032 33.6741C42.5842 33.8278 43.3932 33.7467 44.1281 33.4412C44.8631 33.1356 45.491 32.6191 45.9328 31.957C46.3746 31.2949 46.6103 30.5168 46.6103 29.7209C46.6103 28.9249 46.3746 28.1468 45.9328 27.4847C45.491 26.8226 44.8631 26.3061 44.1281 26.0006C43.3932 25.695 42.5842 25.6139 41.8032 25.7676C41.0222 25.9213 40.3043 26.3029 39.7399 26.8642L38.952 27.7539C38.9201 27.7899 38.8815 27.8192 38.8382 27.8403C38.795 27.8614 38.748 27.8737 38.7 27.8766C38.652 27.8795 38.6039 27.873 38.5584 27.8573C38.5129 27.8416 38.471 27.8171 38.435 27.7852C38.399 27.7534 38.3696 27.7147 38.3485 27.6714C38.3275 27.6282 38.3151 27.5812 38.3122 27.5332C38.3093 27.4852 38.3159 27.4371 38.3315 27.3916C38.3472 27.3461 38.3717 27.3042 38.4036 27.2682L39.199 26.3701C39.2039 26.3645 39.209 26.3591 39.2142 26.3539C39.8801 25.688 40.7286 25.2345 41.6522 25.0507C42.5759 24.867 43.5333 24.9613 44.4034 25.3217C45.2735 25.6821 46.0171 26.2924 46.5403 27.0754C47.0636 27.8585 47.3428 28.7791 47.3428 29.7209Z" fill="url(#paint1_linear_164_431)"/>
<rect x="28.9434" y="39.324" width="3.06716" height="0.803304" rx="0.401652" fill="url(#paint2_linear_164_431)"/>
<path d="M36.1628 35.8278V42.0001H25C25 42.0001 25 28.7334 25 20.2327H36.1628V23.4101" stroke="url(#paint3_linear_164_431)" stroke-linecap="round" stroke-linejoin="round"/>
<defs>
<filter id="filter0_d_164_431" x="0" y="0" width="70" height="70" filterUnits="userSpaceOnUse" color-interpolation-filters="sRGB">
<feFlood flood-opacity="0" result="BackgroundImageFix"/>
<feColorMatrix in="SourceAlpha" type="matrix" values="0 0 0 0 0 0 0 0 0 0 0 0 0 0 0 0 0 0 127 0" result="hardAlpha"/>
<feOffset dy="4"/>
<feGaussianBlur stdDeviation="2"/>
<feComposite in2="hardAlpha" operator="out"/>
<feColorMatrix type="matrix" values="0 0 0 0 0 0 0 0 0 0 0 0 0 0 0 0 0 0 0.06 0"/>
<feBlend mode="normal" in2="BackgroundImageFix" result="effect1_dropShadow_164_431"/>
<feBlend mode="normal" in="SourceGraphic" in2="effect1_dropShadow_164_431" result="shape"/>
</filter>
<linearGradient id="paint0_linear_164_431" x1="35" y1="0" x2="35" y2="62" gradientUnits="userSpaceOnUse">
<stop stop-color="#EFEFEF"/>
<stop offset="1" stop-color="#A9A0AA" stop-opacity="0.72"/>
</linearGradient>
<linearGradient id="paint1_linear_164_431" x1="36.7207" y1="24.9592" x2="36.7207" y2="34.4825" gradientUnits="userSpaceOnUse">
<stop stop-color="#3FACFF"/>
<stop offset="1" stop-color="#004985"/>
</linearGradient>
<linearGradient id="paint2_linear_164_431" x1="30.4769" y1="39.324" x2="30.4769" y2="40.1273" gradientUnits="userSpaceOnUse">
<stop stop-color="#3FACFF"/>
<stop offset="1" stop-color="#004985"/>
</linearGradient>
<linearGradient id="paint3_linear_164_431" x1="26" y1="20" x2="37.5" y2="46" gradientUnits="userSpaceOnUse">
<stop stop-color="#36A9FF"/>
<stop offset="1" stop-color="#003866"/>
</linearGradient>
</defs>
</svg>
