<svg width="70" height="70" viewBox="0 0 70 70" fill="none" xmlns="http://www.w3.org/2000/svg">
<g filter="url(#filter0_d_258_3)">
<path fill-rule="evenodd" clip-rule="evenodd" d="M33.5275 0.6975L35 0L36.4725 0.6975L63.5975 12.09L66 13.0975V15.5C66 28.365 60.8075 39.68 54.6075 47.9725C51.5075 52.08 48.175 55.49 44.92 57.8925C41.665 60.295 38.565 62 35 62C31.5125 62 28.335 60.295 25.08 57.8925C21.825 55.49 18.4925 52.08 15.3925 47.9725C9.1925 39.68 4 28.365 4 15.5V13.0975L6.4025 12.09L33.5275 0.6975ZM33.8839 5.35712L35.1239 4.76975L36.3639 5.35712L59.2061 14.9508L61.2292 15.7992V17.8224C61.2292 28.6561 56.8566 38.1845 51.6355 45.1677C49.025 48.6266 46.2187 51.4982 43.4776 53.5214C40.7366 55.5445 38.1261 56.9803 35.1239 56.9803C32.1871 56.9803 29.5113 55.5445 26.7703 53.5214C24.0292 51.4982 21.2229 48.6266 18.6124 45.1677C13.3913 38.1845 9.01866 28.6561 9.01866 17.8224V15.7992L11.0418 14.9508L33.8839 5.35712Z" fill="url(#paint0_linear_258_3)" shape-rendering="crispEdges"/>
</g>
<path d="M20.9577 35.6989V33.5192L26.4229 24.9091H28.3021V27.9261H27.1899L23.7446 33.3786V33.4808H31.5109V35.6989H20.9577ZM27.241 38V35.0341L27.2922 34.0689V24.9091H29.8873V38H27.241ZM34.7261 38.1662C34.3042 38.1662 33.942 38.017 33.6395 37.7188C33.3412 37.4162 33.192 37.054 33.192 36.6321C33.192 36.2145 33.3412 35.8565 33.6395 35.5582C33.942 35.2599 34.3042 35.1108 34.7261 35.1108C35.1352 35.1108 35.4932 35.2599 35.8 35.5582C36.1068 35.8565 36.2602 36.2145 36.2602 36.6321C36.2602 36.9134 36.1878 37.1712 36.0429 37.4055C35.9023 37.6357 35.7169 37.821 35.4868 37.9616C35.2567 38.098 35.0031 38.1662 34.7261 38.1662ZM43.146 38.179C42.2426 38.179 41.4372 38.0128 40.7298 37.6804C40.0267 37.348 39.4685 36.8899 39.0551 36.3061C38.6418 35.7223 38.4266 35.0533 38.4095 34.299H41.0942C41.124 34.8061 41.3371 35.2173 41.7334 35.5327C42.1297 35.848 42.6006 36.0057 43.146 36.0057C43.5807 36.0057 43.9642 35.9098 44.2966 35.718C44.6333 35.522 44.8953 35.2514 45.0828 34.9062C45.2746 34.5568 45.3705 34.1562 45.3705 33.7045C45.3705 33.2443 45.2725 32.8395 45.0764 32.4901C44.8847 32.1406 44.6183 31.8679 44.2774 31.6719C43.9365 31.4759 43.5466 31.3757 43.1077 31.3714C42.7242 31.3714 42.3513 31.4503 41.9891 31.608C41.6311 31.7656 41.352 31.9808 41.1517 32.2536L38.6908 31.8125L39.3108 24.9091H47.3137V27.1719H41.5928L41.254 30.451H41.3307C41.5608 30.1271 41.9081 29.8587 42.3726 29.6456C42.8371 29.4325 43.357 29.326 43.9323 29.326C44.7206 29.326 45.4237 29.5114 46.0416 29.8821C46.6595 30.2528 47.1475 30.7621 47.5054 31.4098C47.8634 32.0533 48.0402 32.7947 48.036 33.6342C48.0402 34.5163 47.8357 35.3004 47.4223 35.9865C47.0132 36.6683 46.4401 37.2053 45.7029 37.5973C44.9699 37.9851 44.1176 38.179 43.146 38.179Z" fill="url(#paint1_linear_258_3)"/>
<defs>
<filter id="filter0_d_258_3" x="0" y="0" width="70" height="70" filterUnits="userSpaceOnUse" color-interpolation-filters="sRGB">
<feFlood flood-opacity="0" result="BackgroundImageFix"/>
<feColorMatrix in="SourceAlpha" type="matrix" values="0 0 0 0 0 0 0 0 0 0 0 0 0 0 0 0 0 0 127 0" result="hardAlpha"/>
<feOffset dy="4"/>
<feGaussianBlur stdDeviation="2"/>
<feComposite in2="hardAlpha" operator="out"/>
<feColorMatrix type="matrix" values="0 0 0 0 0 0 0 0 0 0 0 0 0 0 0 0 0 0 0.06 0"/>
<feBlend mode="normal" in2="BackgroundImageFix" result="effect1_dropShadow_258_3"/>
<feBlend mode="normal" in="SourceGraphic" in2="effect1_dropShadow_258_3" result="shape"/>
</filter>
<linearGradient id="paint0_linear_258_3" x1="35" y1="0" x2="35" y2="62" gradientUnits="userSpaceOnUse">
<stop stop-color="#EFEFEF"/>
<stop offset="1" stop-color="#A9A0AA" stop-opacity="0.72"/>
</linearGradient>
<linearGradient id="paint1_linear_258_3" x1="34.5" y1="20" x2="34.5" y2="42" gradientUnits="userSpaceOnUse">
<stop stop-color="#31A6FF"/>
<stop offset="1" stop-color="#014074"/>
</linearGradient>
</defs>
</svg>
