<svg width="70" height="70" viewBox="0 0 70 70" fill="none" xmlns="http://www.w3.org/2000/svg">
<g filter="url(#filter0_d_164_405)">
<path fill-rule="evenodd" clip-rule="evenodd" d="M33.5275 0.6975L35 0L36.4725 0.6975L63.5975 12.09L66 13.0975V15.5C66 28.365 60.8075 39.68 54.6075 47.9725C51.5075 52.08 48.175 55.49 44.92 57.8925C41.665 60.295 38.565 62 35 62C31.5125 62 28.335 60.295 25.08 57.8925C21.825 55.49 18.4925 52.08 15.3925 47.9725C9.1925 39.68 4 28.365 4 15.5V13.0975L6.4025 12.09L33.5275 0.6975ZM33.8839 5.35712L35.1239 4.76975L36.3639 5.35712L59.2061 14.9508L61.2292 15.7992V17.8224C61.2292 28.6561 56.8566 38.1845 51.6355 45.1677C49.025 48.6266 46.2187 51.4982 43.4776 53.5214C40.7366 55.5445 38.1261 56.9803 35.1239 56.9803C32.1871 56.9803 29.5113 55.5445 26.7703 53.5214C24.0292 51.4982 21.2229 48.6266 18.6124 45.1677C13.3913 38.1845 9.01866 28.6561 9.01866 17.8224V15.7992L11.0418 14.9508L33.8839 5.35712Z" fill="url(#paint0_linear_164_405)" shape-rendering="crispEdges"/>
</g>
<g clip-path="url(#clip0_164_405)">
<path d="M29.499 28.2469L28.9178 27.8771L28.8101 28.0463V28.2469H29.499ZM35.0101 28.2469L34.3939 27.9388C34.2871 28.1524 34.2986 28.406 34.4241 28.6091C34.5496 28.8122 34.7713 28.9358 35.0101 28.9358V28.2469ZM44.6545 35.1358L45.2056 35.5491L45.3434 35.3655V35.1358H44.6545ZM24.6768 27.558V41.3358H26.0545V27.558H24.6768ZM30.0802 28.6167L33.7969 22.7762L32.6345 22.0365L28.9178 27.8771L30.0802 28.6167ZM36.274 24.1787L34.3939 27.9388L35.6262 28.555L37.5063 24.7949L36.274 24.1787ZM35.0101 28.9358H41.899V27.558H35.0101V28.9358ZM43.9656 31.0024V35.1358H45.3434V31.0024H43.9656ZM44.1034 34.7225L40.7967 39.1313L41.899 39.958L45.2056 35.5491L44.1034 34.7225ZM39.1434 39.958H32.2545V41.3358H39.1434V39.958ZM30.1879 37.8913V28.2469H28.8101V37.8913H30.1879ZM41.899 28.9358C43.0403 28.9358 43.9656 29.8611 43.9656 31.0024H45.3434C45.3434 29.1001 43.8013 27.558 41.899 27.558V28.9358ZM32.2545 39.958C31.1131 39.958 30.1879 39.0327 30.1879 37.8913H28.8101C28.8101 39.7936 30.3522 41.3358 32.2545 41.3358V39.958ZM35.7325 22.3193C36.3711 22.7024 36.607 23.5126 36.274 24.1787L37.5063 24.7949C38.1613 23.4849 37.6973 21.8914 36.4414 21.1378L35.7325 22.3193ZM40.7967 39.1313C40.4064 39.6517 39.7939 39.958 39.1434 39.958V41.3358C40.2276 41.3358 41.2485 40.8253 41.899 39.958L40.7967 39.1313ZM33.7969 22.7762C34.2116 22.1245 35.0701 21.9218 35.7325 22.3193L36.4414 21.1378C35.1385 20.3562 33.4502 20.7547 32.6345 22.0365L33.7969 22.7762Z" fill="url(#paint1_linear_164_405)"/>
</g>
<defs>
<filter id="filter0_d_164_405" x="0" y="0" width="70" height="70" filterUnits="userSpaceOnUse" color-interpolation-filters="sRGB">
<feFlood flood-opacity="0" result="BackgroundImageFix"/>
<feColorMatrix in="SourceAlpha" type="matrix" values="0 0 0 0 0 0 0 0 0 0 0 0 0 0 0 0 0 0 127 0" result="hardAlpha"/>
<feOffset dy="4"/>
<feGaussianBlur stdDeviation="2"/>
<feComposite in2="hardAlpha" operator="out"/>
<feColorMatrix type="matrix" values="0 0 0 0 0 0 0 0 0 0 0 0 0 0 0 0 0 0 0.06 0"/>
<feBlend mode="normal" in2="BackgroundImageFix" result="effect1_dropShadow_164_405"/>
<feBlend mode="normal" in="SourceGraphic" in2="effect1_dropShadow_164_405" result="shape"/>
</filter>
<linearGradient id="paint0_linear_164_405" x1="35" y1="0" x2="35" y2="62" gradientUnits="userSpaceOnUse">
<stop stop-color="#EFEFEF"/>
<stop offset="1" stop-color="#A9A0AA" stop-opacity="0.72"/>
</linearGradient>
<linearGradient id="paint1_linear_164_405" x1="35.0101" y1="20.738" x2="35.0101" y2="41.3358" gradientUnits="userSpaceOnUse">
<stop stop-color="#45AFFF"/>
<stop offset="1" stop-color="#114773"/>
</linearGradient>
<clipPath id="clip0_164_405">
<rect width="20.6666" height="20.6666" fill="white" transform="translate(24.6768 20.6692)"/>
</clipPath>
</defs>
</svg>
