<svg width="27" height="27" viewBox="0 0 27 27" fill="none" xmlns="http://www.w3.org/2000/svg">
<path d="M19.7497 25.6451C17.6985 25.6451 12.712 23.0219 8.52527 17.3907C4.60942 12.124 2.70508 8.31952 2.70508 5.75958C2.70508 3.74386 4.09727 2.78198 4.84483 2.26477L5.02961 2.13567C5.85564 1.54505 7.14067 1.35352 7.63342 1.35352C8.49742 1.35352 8.86108 1.85892 9.0813 2.29936C9.26861 2.6723 10.8203 6.00342 10.9772 6.4177C11.2185 7.05473 11.1392 7.98286 10.3933 8.51695L10.2625 8.60808C9.89214 8.86458 9.20364 9.3413 9.1083 9.9218C9.06189 10.2036 9.15639 10.4989 9.39686 10.8229C10.5975 12.4412 14.4324 17.1932 15.1234 17.8379C15.6651 18.3441 16.351 18.4158 16.8185 18.0218C17.302 17.6143 17.5171 17.3738 17.5188 17.3704L17.5686 17.3223C17.6091 17.2877 17.9871 16.9882 18.6047 16.9882C19.0502 16.9882 19.5033 17.1418 19.9513 17.4447C21.114 18.2302 23.7372 19.9852 23.7372 19.9852L23.7794 20.0173C24.1152 20.305 24.6004 21.1335 24.0342 22.2119C23.4478 23.3315 21.6295 25.6425 19.7488 25.6425L19.7497 25.6451ZM7.63258 2.25464C7.20648 2.25464 6.15939 2.43436 5.55189 2.86889L5.35614 3.00558C4.65836 3.4882 3.60452 4.21636 3.60452 5.76042C3.60452 8.12039 5.45064 11.7494 9.24667 16.8549C13.3929 22.4312 18.133 24.7465 19.7488 24.7465C21.1233 24.7465 22.6994 22.8261 23.2377 21.7984C23.5685 21.1673 23.2976 20.8112 23.204 20.715C22.9002 20.5117 20.5344 18.9288 19.4468 18.1939C19.1506 17.9931 18.8663 17.8919 18.6039 17.8919C18.3651 17.8919 18.2081 17.9762 18.155 18.01C18.0672 18.1036 17.8259 18.3517 17.3965 18.7128C16.594 19.3887 15.3731 19.3068 14.5075 18.4985C13.7287 17.7712 9.79511 12.8741 8.67208 11.3612C8.28395 10.8381 8.13123 10.3049 8.21814 9.77752C8.37592 8.82155 9.26861 8.20308 9.74786 7.87064L9.86767 7.78711C10.2963 7.48083 10.2052 6.92648 10.1343 6.73917C10.0018 6.38986 8.46958 3.09248 8.27552 2.7052C8.11689 2.38795 7.99201 2.25548 7.63089 2.25548L7.63258 2.25464Z" fill="white"/>
</svg>
