<svg width="27" height="27" viewBox="0 0 27 27" fill="none" xmlns="http://www.w3.org/2000/svg">
<path d="M4.32759 20.0928C4.54975 20.2005 4.79907 20.2608 5.0625 20.2608H21.9375C22.2009 20.2608 22.4503 20.2005 22.6724 20.0928L16.0252 13.8366L13.8576 15.6217C13.6499 15.7928 13.3501 15.7928 13.1424 15.6217L10.9748 13.8366L4.32759 20.0928ZM3.53598 19.2935C3.54119 19.2882 3.54653 19.283 3.55199 19.2779L10.0994 13.1157L3.57992 7.74671C3.5657 7.735 3.55221 7.72274 3.53944 7.70999C3.43403 7.93028 3.375 8.17699 3.375 8.4375V18.5733C3.375 18.831 3.43274 19.0751 3.53598 19.2935ZM23.464 19.2935C23.5673 19.0751 23.625 18.831 23.625 18.5733V8.4375C23.625 8.17699 23.566 7.93028 23.4606 7.70999C23.4478 7.72275 23.4343 7.735 23.4201 7.74671L16.9007 13.1157L23.448 19.2779C23.4535 19.283 23.4588 19.2882 23.464 19.2935ZM22.6625 6.91323C22.4428 6.80858 22.197 6.75 21.9375 6.75H5.0625C4.80299 6.75 4.55716 6.80858 4.33752 6.91323L13.5 14.4588L22.6625 6.91323ZM5.0625 5.625H21.9375C23.4908 5.625 24.75 6.8842 24.75 8.4375V18.5733C24.75 20.1266 23.4908 21.3858 21.9375 21.3858H5.0625C3.5092 21.3858 2.25 20.1266 2.25 18.5733V8.4375C2.25 6.8842 3.5092 5.625 5.0625 5.625Z" fill="white"/>
</svg>
