<svg width="73" height="73" viewBox="0 0 73 73" fill="none" xmlns="http://www.w3.org/2000/svg">
<circle cx="36.5" cy="36.5" r="36.5" fill="white"/>
<path d="M58.3975 35.4043H58.0294C57.5833 24.1624 48.301 15.1543 36.9525 15.1543C25.6041 15.1543 16.3218 24.1624 15.8757 35.4043H15.6025C15.099 35.4043 14.6161 35.6043 14.2601 35.9603C13.9041 36.3164 13.7041 36.7992 13.7041 37.3027V48.6934C13.7041 49.1969 13.9041 49.6797 14.2601 50.0358C14.6161 50.3918 15.099 50.5918 15.6025 50.5918H18.1559C18.3661 52.4473 19.2516 54.1607 20.6436 55.4054C22.0356 56.6502 23.8369 57.3394 25.7043 57.3418H31.6105V58.001C31.6105 58.2248 31.6994 58.4394 31.8577 58.5976C32.0159 58.7558 32.2305 58.8447 32.4543 58.8447H36.9546C37.1784 58.8447 37.393 58.7558 37.5513 58.5976C37.7095 58.4394 37.7984 58.2248 37.7984 58.001V54.993C37.7984 54.7692 37.7095 54.5546 37.5513 54.3964C37.393 54.2382 37.1784 54.1493 36.9546 54.1493H32.4522C32.2284 54.1493 32.0138 54.2382 31.8556 54.3964C31.6973 54.5546 31.6084 54.7692 31.6084 54.993V55.6554H25.7022C24.2821 55.6538 22.9099 55.1415 21.8363 54.2121C20.7626 53.2826 20.059 51.9981 19.8539 50.5929H22.4907C22.74 50.5929 22.9868 50.5437 23.2172 50.4483C23.4475 50.3529 23.6568 50.2131 23.8331 50.0368C24.0093 49.8605 24.1492 49.6512 24.2446 49.4209C24.34 49.1906 24.3891 48.9437 24.3891 48.6944V37.3038C24.3891 36.8003 24.1891 36.3174 23.8331 35.9614C23.477 35.6054 22.9942 35.4054 22.4907 35.4054H22.0688C22.5096 27.5775 29.016 21.3432 36.9525 21.3432C44.8891 21.3432 51.4018 27.5775 51.8363 35.4064H51.5072C51.0037 35.4064 50.5208 35.6064 50.1648 35.9624C49.8088 36.3185 49.6088 36.8013 49.6088 37.3048V48.6955C49.6088 49.199 49.8088 49.6818 50.1648 50.0379C50.5208 50.3939 51.0037 50.5939 51.5072 50.5939H58.3975C58.901 50.5939 59.3839 50.3939 59.7399 50.0379C60.0959 49.6818 60.2959 49.199 60.2959 48.6955V37.3048C60.2962 37.0554 60.2473 36.8083 60.152 36.5777C60.0567 36.3471 59.917 36.1376 59.7406 35.9611C59.5643 35.7846 59.3549 35.6445 59.1245 35.549C58.894 35.4535 58.647 35.4043 58.3975 35.4043ZM33.2959 55.8368H36.1088V57.1583H33.2959V55.8368ZM22.7037 37.3017V48.6923C22.7037 48.7482 22.6815 48.8019 22.6419 48.8415C22.6024 48.881 22.5487 48.9032 22.4928 48.9032H15.6025C15.5465 48.9032 15.4929 48.881 15.4533 48.8415C15.4138 48.8019 15.3916 48.7482 15.3916 48.6923V37.3017C15.3916 37.2457 15.4138 37.1921 15.4533 37.1525C15.4929 37.113 15.5465 37.0907 15.6025 37.0907H22.4928C22.5487 37.0907 22.6024 37.113 22.6419 37.1525C22.6815 37.1921 22.7037 37.2457 22.7037 37.3017ZM36.9525 19.6536C28.0858 19.6536 20.8158 26.6441 20.3781 35.4032H17.5653C18.0093 25.0926 26.5354 16.8407 36.9525 16.8407C47.3697 16.8407 55.8958 25.0926 56.3398 35.4032H53.5269C53.085 26.6441 45.8193 19.6536 36.9525 19.6536ZM58.6084 48.6934C58.6084 48.7493 58.5862 48.803 58.5466 48.8425C58.5071 48.8821 58.4534 48.9043 58.3975 48.9043H51.5072C51.4513 48.9043 51.3976 48.8821 51.3581 48.8425C51.3185 48.803 51.2963 48.7493 51.2963 48.6934V37.3027C51.2963 37.2468 51.3185 37.1931 51.3581 37.1536C51.3976 37.114 51.4513 37.0918 51.5072 37.0918H58.3975C58.4534 37.0918 58.5071 37.114 58.5466 37.1536C58.5862 37.1931 58.6084 37.2468 58.6084 37.3027V48.6934Z" fill="url(#paint0_linear_164_611)"/>
<defs>
<linearGradient id="paint0_linear_164_611" x1="32.7764" y1="19.6936" x2="32.7764" y2="50.3336" gradientUnits="userSpaceOnUse">
<stop stop-color="#00B3F0" stop-opacity="0.51"/>
<stop offset="1" stop-color="#004985"/>
</linearGradient>
</defs>
</svg>
