<svg width="27" height="27" viewBox="0 0 27 27" fill="none" xmlns="http://www.w3.org/2000/svg">
<path d="M21.0938 24.0469H14.7363C15.9231 23.072 17.0272 22.0004 18.0371 20.8433C20.8648 17.5914 22.3594 14.1769 22.3594 10.9688C22.3594 8.6191 21.426 6.36568 19.7645 4.70423C18.1031 3.04277 15.8497 2.10938 13.5 2.10938C11.1503 2.10938 8.89693 3.04277 7.23548 4.70423C5.57402 6.36568 4.64063 8.6191 4.64062 10.9688C4.64062 14.1769 6.13521 17.5914 8.96289 20.8433C9.97283 22.0004 11.0769 23.072 12.2637 24.0469H5.90625C5.79436 24.0469 5.68706 24.0913 5.60794 24.1704C5.52882 24.2496 5.48438 24.3569 5.48438 24.4688C5.48438 24.5806 5.52882 24.6879 5.60794 24.7671C5.68706 24.8462 5.79436 24.8906 5.90625 24.8906H21.0938C21.2056 24.8906 21.3129 24.8462 21.3921 24.7671C21.4712 24.6879 21.5156 24.5806 21.5156 24.4688C21.5156 24.3569 21.4712 24.2496 21.3921 24.1704C21.3129 24.0913 21.2056 24.0469 21.0938 24.0469ZM9.58674 20.2747C7.71529 18.119 5.48438 14.7547 5.48438 10.9688C5.48438 8.84287 6.32888 6.80407 7.8321 5.30085C9.33532 3.79763 11.3741 2.95312 13.5 2.95312C15.6259 2.95312 17.6647 3.79763 19.1679 5.30085C20.6711 6.80407 21.5156 8.84287 21.5156 10.9688C21.5156 14.7547 19.2847 18.119 17.4133 20.2747C16.2349 21.626 14.9239 22.8557 13.5 23.9451C12.0761 22.8557 10.7651 21.626 9.58674 20.2747ZM17.2969 10.9688C17.2969 10.2178 17.0742 9.48371 16.657 8.85932C16.2398 8.23493 15.6468 7.74827 14.953 7.46089C14.2592 7.17352 13.4958 7.09833 12.7593 7.24483C12.0227 7.39133 11.3462 7.75295 10.8152 8.28395C10.2842 8.81496 9.92258 9.49149 9.77608 10.228C9.62958 10.9645 9.70477 11.728 9.99215 12.4218C10.2795 13.1155 10.7662 13.7085 11.3906 14.1257C12.015 14.5429 12.749 14.7656 13.5 14.7656C14.5066 14.7645 15.4717 14.3641 16.1835 13.6523C16.8954 12.9405 17.2957 11.9754 17.2969 10.9688ZM10.5469 10.9688C10.5469 10.3847 10.7201 9.81372 11.0446 9.32808C11.3691 8.84244 11.8303 8.46393 12.3699 8.24042C12.9095 8.0169 13.5033 7.95842 14.0761 8.07237C14.649 8.18632 15.1752 8.46757 15.5882 8.88058C16.0012 9.29358 16.2824 9.81977 16.3964 10.3926C16.5103 10.9655 16.4518 11.5592 16.2283 12.0989C16.0048 12.6385 15.6263 13.0997 15.1407 13.4242C14.655 13.7487 14.0841 13.9219 13.5 13.9219C12.7171 13.921 11.9664 13.6096 11.4128 13.056C10.8592 12.5023 10.5478 11.7517 10.5469 10.9688Z" fill="white"/>
</svg>
