<svg width="189" height="184" viewBox="0 0 189 184" fill="none" xmlns="http://www.w3.org/2000/svg">
<g clip-path="url(#clip0_416_218)">
<g filter="url(#filter0_d_416_218)">
<circle cx="94" cy="92" r="86" fill="white"/>
</g>
<path d="M61.3336 40.8353C61.3336 40.8353 49.2148 34.4559 42.8353 40.8353C36.4559 47.2147 42.8353 59.3336 42.8353 59.3336L52.2812 68.7796L75.6336 92.5256L52.2812 115.878L42.8353 124.93C42.8353 124.93 36.4558 136.528 42.8353 142.906C49.2148 149.285 61.3336 143.822 61.3336 143.822L70.7795 134.376L94.5255 110.63L117.878 134.376L126.93 143.822C126.93 143.822 138.527 149.285 144.906 142.906C151.285 136.528 145.822 124.93 145.822 124.93L136.376 115.878L112.63 92.5256L136.376 68.7796L145.822 59.3336C145.822 59.3336 151.286 47.2141 144.906 41.7513C138.527 36.2886 126.93 40.8353 126.93 40.8353L117.878 50.2813L94.5255 73.6337L70.7795 50.2813L61.3336 40.8353Z" fill="#FF6C6C"/>
</g>
<defs>
<filter id="filter0_d_416_218" x="4" y="6" width="180" height="180" filterUnits="userSpaceOnUse" color-interpolation-filters="sRGB">
<feFlood flood-opacity="0" result="BackgroundImageFix"/>
<feColorMatrix in="SourceAlpha" type="matrix" values="0 0 0 0 0 0 0 0 0 0 0 0 0 0 0 0 0 0 127 0" result="hardAlpha"/>
<feOffset dy="4"/>
<feGaussianBlur stdDeviation="2"/>
<feComposite in2="hardAlpha" operator="out"/>
<feColorMatrix type="matrix" values="0 0 0 0 0 0 0 0 0 0 0 0 0 0 0 0 0 0 0.15 0"/>
<feBlend mode="normal" in2="BackgroundImageFix" result="effect1_dropShadow_416_218"/>
<feBlend mode="normal" in="SourceGraphic" in2="effect1_dropShadow_416_218" result="shape"/>
</filter>
<clipPath id="clip0_416_218">
<rect width="189" height="184" fill="white"/>
</clipPath>
</defs>
</svg>
