<svg width="27" height="27" viewBox="0 0 27 27" fill="none" xmlns="http://www.w3.org/2000/svg">
<path d="M14.2159 9.5752C13.2981 9.5752 12.4009 9.84736 11.6377 10.3573C10.8746 10.8672 10.2798 11.592 9.92853 12.4399C9.5773 13.2879 9.4854 14.221 9.66446 15.1212C9.84351 16.0214 10.2855 16.8482 10.9345 17.4972C11.5835 18.1462 12.4104 18.5882 13.3106 18.7673C14.2108 18.9463 15.1438 18.8544 15.9918 18.5032C16.8398 18.152 17.5645 17.5572 18.0744 16.794C18.5844 16.0309 18.8565 15.1336 18.8565 14.2158C18.8551 12.9855 18.3658 11.8059 17.4958 10.9359C16.6258 10.066 15.4463 9.57658 14.2159 9.5752ZM14.2159 18.0127C13.465 18.0127 12.7309 17.79 12.1065 17.3728C11.4821 16.9556 10.9954 16.3626 10.7081 15.6688C10.4207 14.975 10.3455 14.2116 10.492 13.4751C10.6385 12.7386 11.0001 12.062 11.5311 11.531C12.0621 11 12.7387 10.6384 13.4752 10.4919C14.2117 10.3454 14.9751 10.4206 15.6689 10.708C16.3627 10.9953 16.9557 11.482 17.3729 12.1064C17.7901 12.7308 18.0128 13.4649 18.0128 14.2158C18.0117 15.2225 17.6113 16.1876 16.8995 16.8994C16.1876 17.6112 15.2226 18.0116 14.2159 18.0127ZM18.8565 4.09082H9.57529C8.12125 4.09247 6.72723 4.67081 5.69907 5.69898C4.6709 6.72714 4.09256 8.12115 4.09091 9.5752V18.8564C4.09256 20.3105 4.6709 21.7045 5.69907 22.7327C6.72723 23.7608 8.12125 24.3392 9.57529 24.3408H18.8565C20.3106 24.3392 21.7046 23.7608 22.7328 22.7327C23.7609 21.7045 24.3393 20.3105 24.3409 18.8564V9.5752C24.3393 8.12115 23.7609 6.72714 22.7328 5.69898C21.7046 4.67081 20.3106 4.09247 18.8565 4.09082ZM23.4972 18.8564C23.4958 20.0868 23.0064 21.2663 22.1364 22.1363C21.2664 23.0063 20.0869 23.4957 18.8565 23.4971H9.57529C8.34494 23.4957 7.16539 23.0063 6.2954 22.1363C5.42542 21.2663 4.93605 20.0868 4.93466 18.8564V9.5752C4.93605 8.34485 5.42542 7.1653 6.2954 6.29531C7.16539 5.42533 8.34494 4.93596 9.57529 4.93457H18.8565C20.0869 4.93596 21.2664 5.42533 22.1364 6.29531C23.0064 7.1653 23.4958 8.34485 23.4972 9.5752V18.8564ZM20.544 8.73145C20.544 8.89832 20.4946 9.06145 20.4018 9.20021C20.3091 9.33896 20.1774 9.44711 20.0232 9.51097C19.869 9.57483 19.6994 9.59154 19.5357 9.55898C19.372 9.52643 19.2217 9.44607 19.1037 9.32807C18.9857 9.21007 18.9053 9.05972 18.8727 8.89605C18.8402 8.73238 18.8569 8.56273 18.9208 8.40856C18.9846 8.25438 19.0928 8.12261 19.2315 8.02989C19.3703 7.93718 19.5334 7.8877 19.7003 7.8877C19.924 7.88795 20.1384 7.97693 20.2966 8.13511C20.4548 8.29328 20.5438 8.50775 20.544 8.73145Z" fill="white"/>
</svg>
