<svg width="27" height="27" viewBox="0 0 27 27" fill="none" xmlns="http://www.w3.org/2000/svg">
<path d="M13.5 2.95312C11.6536 2.9536 9.83959 3.4387 8.23936 4.35994C6.63913 5.28118 5.30872 6.60628 4.38109 8.20282C3.45347 9.79935 2.96112 11.6114 2.95327 13.4578C2.94541 15.3043 3.42231 17.1205 4.33632 18.7248L3.38663 22.0488C3.32464 22.2659 3.32181 22.4955 3.37843 22.714C3.43505 22.9325 3.54907 23.1318 3.70867 23.2914C3.86827 23.451 4.06764 23.565 4.28612 23.6216C4.5046 23.6782 4.73425 23.6754 4.95126 23.6134L8.27528 22.6637C9.67864 23.4638 11.247 23.9309 12.8595 24.0289C14.4719 24.1269 16.0853 23.8532 17.5753 23.2289C19.0652 22.6047 20.3918 21.6466 21.4528 20.4284C22.5139 19.2103 23.2809 17.7648 23.6948 16.2033C24.1087 14.6418 24.1584 13.0061 23.8401 11.4223C23.5218 9.83859 22.844 8.34912 21.8589 7.06881C20.8738 5.7885 19.6078 4.75156 18.1585 4.03798C16.7093 3.3244 15.1155 2.95324 13.5 2.95312ZM13.5 23.2031C11.7574 23.2043 10.0466 22.7355 8.54801 21.846C8.49861 21.8166 8.44371 21.7976 8.38669 21.7902C8.32967 21.7828 8.27174 21.7872 8.21646 21.803L4.71941 22.8022C4.64707 22.8228 4.57052 22.8238 4.4977 22.8049C4.42487 22.786 4.35841 22.748 4.30522 22.6948C4.25203 22.6416 4.21403 22.5751 4.19517 22.5023C4.1763 22.4295 4.17726 22.3529 4.19794 22.2806L5.19701 18.7836C5.2128 18.7284 5.21712 18.6704 5.20972 18.6134C5.20231 18.5564 5.18334 18.5015 5.15396 18.4521C4.06105 16.6108 3.6078 14.4598 3.86481 12.334C4.12183 10.2083 5.07467 8.22727 6.57492 6.69952C8.07517 5.17177 10.0386 4.1831 12.1593 3.88751C14.28 3.59193 16.4389 4.00603 18.2997 5.06531C20.1606 6.1246 21.6188 7.76958 22.4473 9.744C23.2758 11.7184 23.428 13.9114 22.8803 15.9814C22.3325 18.0513 21.1155 19.882 19.4189 21.1882C17.7223 22.4945 15.6413 23.2029 13.5 23.2031ZM18.8274 15.4557L16.6696 14.2226C16.4743 14.1112 16.253 14.0537 16.0282 14.0561C15.8034 14.0585 15.5833 14.1207 15.3905 14.2362L13.9343 15.1099C13.0528 14.6633 12.3367 13.9472 11.8901 13.0657L12.7638 11.6095C12.8793 11.4167 12.9415 11.1966 12.9439 10.9718C12.9462 10.7471 12.8888 10.5257 12.7774 10.3305L11.5443 8.17259C11.4437 7.99691 11.2984 7.85089 11.1233 7.74927C10.9482 7.64764 10.7493 7.594 10.5469 7.59375C9.65401 7.59397 8.79759 7.9479 8.16506 8.57807C7.53254 9.20824 7.17542 10.0633 7.17187 10.9562C7.17023 12.1207 7.39817 13.274 7.84266 14.3503C8.28714 15.4266 8.93945 16.4048 9.76227 17.2288C10.5851 18.0528 11.5623 18.7065 12.6379 19.1525C13.7136 19.5985 14.8667 19.8281 16.0311 19.8281H16.0438C16.9367 19.8246 17.7917 19.4674 18.4219 18.8349C19.0521 18.2024 19.406 17.346 19.4062 16.4531C19.406 16.2506 19.3524 16.0518 19.2508 15.8767C19.1491 15.7016 19.0031 15.5564 18.8274 15.4557ZM16.0426 18.9844H16.0312C14.9776 18.9844 13.9344 18.7767 12.9611 18.3731C11.9879 17.9696 11.1038 17.3782 10.3593 16.6326C9.61484 15.8871 9.02466 15.0021 8.62251 14.0283C8.22036 13.0545 8.01413 12.011 8.01562 10.9574C8.01853 10.288 8.28651 9.64706 8.76091 9.17478C9.2353 8.70251 9.87747 8.43741 10.5469 8.4375C10.6006 8.43757 10.6534 8.45181 10.6999 8.47879C10.7465 8.50577 10.785 8.54453 10.8118 8.59117L12.0448 10.7492C12.0819 10.8142 12.1011 10.888 12.1003 10.9629C12.0995 11.0378 12.0788 11.1112 12.0403 11.1755L11.05 12.8259C11.015 12.8842 10.9946 12.9502 10.9906 13.0181C10.9866 13.086 10.9991 13.1539 11.027 13.2159C11.5776 14.4414 12.5586 15.4224 13.7841 15.9731C13.8462 16.001 13.9141 16.0135 13.982 16.0095C14.0499 16.0054 14.1159 15.985 14.1742 15.95L15.8245 14.9598C15.8888 14.9213 15.9622 14.9005 16.0371 14.8997C16.112 14.8989 16.1858 14.918 16.2509 14.9551L18.4089 16.1883C18.4555 16.215 18.4943 16.2536 18.5212 16.3001C18.5482 16.3466 18.5624 16.3994 18.5625 16.4531C18.5626 17.1225 18.2975 17.7647 17.8252 18.2391C17.353 18.7135 16.712 18.9814 16.0426 18.9844Z" fill="white"/>
</svg>
