<svg width="68" height="68" viewBox="0 0 68 68" fill="none" xmlns="http://www.w3.org/2000/svg">
<g filter="url(#filter0_d_349_4)">
<circle cx="34" cy="30" r="30" fill="url(#paint0_linear_349_4)" shape-rendering="crispEdges"/>
</g>
<path d="M45.5263 22.5556H22.4737C21.9214 22.5556 21.4737 23.0033 21.4737 23.5556V37.1111C21.4737 37.6634 21.9214 38.1111 22.4737 38.1111H45.5263C46.0786 38.1111 46.5263 37.6634 46.5263 37.1111V23.5556C46.5263 23.0033 46.0786 22.5556 45.5263 22.5556Z" stroke="#BB4300" stroke-miterlimit="10"/>
<path d="M22.9474 22.5556L34.2967 34.2425C34.6963 34.654 35.3595 34.6457 35.7487 34.2244L46.5263 22.5556" stroke="#BB4300" stroke-miterlimit="10"/>
<path d="M34.9314 30.3333C34.4227 30.3333 33.973 30.2813 33.5823 30.1773C33.1917 30.0745 32.8634 29.9228 32.5974 29.7221C32.3314 29.5215 32.1303 29.2757 31.994 28.9846C31.8576 28.6936 31.7895 28.3604 31.7895 27.9851C31.7895 27.6223 31.8585 27.2978 31.9965 27.0117C32.1361 26.7256 32.3381 26.4828 32.6024 26.2834C32.8684 26.0828 33.1909 25.9299 33.5699 25.8246C33.9506 25.7193 34.3811 25.6667 34.8615 25.6667C35.3287 25.6667 35.7376 25.7236 36.0884 25.8376C36.4408 25.9503 36.735 26.1032 36.9711 26.2964C37.2088 26.4884 37.3867 26.7045 37.5047 26.9448C37.6244 27.1851 37.6842 27.4328 37.6842 27.6879C37.6842 27.8675 37.6726 28.0495 37.6493 28.2341C37.626 28.4186 37.577 28.5883 37.5022 28.7431C37.4274 28.8967 37.3119 29.0205 37.1556 29.1147C37.001 29.2088 36.7915 29.2558 36.5272 29.2558C36.4109 29.2558 36.2829 29.2422 36.1432 29.215C36.0036 29.1877 35.8797 29.1425 35.7717 29.0794C35.6636 29.0162 35.5996 28.9314 35.5797 28.8248H35.5498C35.5099 28.8967 35.4483 28.9648 35.3652 29.0292C35.2838 29.0936 35.1766 29.145 35.0436 29.1834C34.9122 29.2218 34.7518 29.2385 34.5623 29.2336C34.3462 29.2274 34.1559 29.1914 33.9913 29.1258C33.8267 29.0589 33.6887 28.9685 33.5774 28.8546C33.4676 28.7394 33.3845 28.6063 33.328 28.4552C33.2731 28.3028 33.2457 28.1387 33.2457 27.9629C33.2457 27.7957 33.279 27.6427 33.3455 27.504C33.412 27.3653 33.5042 27.2439 33.6222 27.1399C33.7419 27.0358 33.8816 26.9529 34.0412 26.8909C34.2024 26.8278 34.3761 26.7888 34.5623 26.7739C34.7285 26.7615 34.8798 26.7671 35.0161 26.7906C35.1524 26.8129 35.2647 26.847 35.3528 26.8928C35.4409 26.9374 35.4966 26.9869 35.5198 27.0414H35.5498V26.8333H36.0784V28.5127C36.0784 28.6168 36.1175 28.7084 36.1956 28.7877C36.2737 28.867 36.3876 28.9066 36.5372 28.9066C36.7068 28.9066 36.8364 28.8632 36.9262 28.7765C37.0176 28.6898 37.08 28.5561 37.1132 28.3753C37.1481 28.1944 37.1656 27.9628 37.1656 27.6805C37.1656 27.5145 37.1348 27.351 37.0733 27.19C37.0135 27.0278 36.922 26.8761 36.799 26.7349C36.6777 26.5937 36.5239 26.4692 36.3377 26.3615C36.1515 26.2537 35.9329 26.1695 35.6819 26.1088C35.4326 26.0469 35.1491 26.0159 34.8316 26.0159C34.441 26.0159 34.091 26.0611 33.7818 26.1515C33.4743 26.2407 33.2125 26.3714 32.9964 26.5435C32.7819 26.7144 32.6182 26.9225 32.5051 27.1677C32.3938 27.4117 32.3381 27.6891 32.3381 28C32.3381 28.3158 32.3938 28.5963 32.5051 28.8416C32.6182 29.0868 32.7844 29.2936 33.0038 29.4621C33.2249 29.6305 33.4984 29.7581 33.8242 29.8448C34.15 29.9327 34.5257 29.9767 34.9513 29.9767C35.1342 29.9767 35.3145 29.9636 35.4924 29.9376C35.6703 29.9116 35.8274 29.8831 35.9637 29.8522C36.1 29.8212 36.1981 29.7983 36.2579 29.7834L36.3976 30.1253C36.2945 30.1575 36.1598 30.1897 35.9936 30.2219C35.829 30.2541 35.6528 30.2807 35.465 30.3018C35.2788 30.3228 35.1009 30.3333 34.9314 30.3333ZM34.6421 28.8546C34.8649 28.8546 35.0452 28.8211 35.1832 28.7543C35.3212 28.6874 35.4218 28.5864 35.4849 28.4514C35.5481 28.3164 35.5797 28.1461 35.5797 27.9406C35.5797 27.7325 35.5448 27.5702 35.4749 27.4538C35.4051 27.3374 35.3021 27.2557 35.1657 27.2086C35.0294 27.1615 34.8615 27.138 34.6621 27.138C34.4725 27.138 34.3105 27.1752 34.1758 27.2495C34.0428 27.3225 33.9406 27.4204 33.8691 27.543C33.7993 27.6644 33.7644 27.7969 33.7644 27.9406C33.7644 28.0991 33.7926 28.2483 33.8492 28.3883C33.9057 28.527 33.9979 28.6397 34.1259 28.7264C34.2539 28.8118 34.426 28.8546 34.6421 28.8546Z" fill="black"/>
<defs>
<filter id="filter0_d_349_4" x="0" y="0" width="68" height="68" filterUnits="userSpaceOnUse" color-interpolation-filters="sRGB">
<feFlood flood-opacity="0" result="BackgroundImageFix"/>
<feColorMatrix in="SourceAlpha" type="matrix" values="0 0 0 0 0 0 0 0 0 0 0 0 0 0 0 0 0 0 127 0" result="hardAlpha"/>
<feOffset dy="4"/>
<feGaussianBlur stdDeviation="2"/>
<feComposite in2="hardAlpha" operator="out"/>
<feColorMatrix type="matrix" values="0 0 0 0 0 0 0 0 0 0 0 0 0 0 0 0 0 0 0.25 0"/>
<feBlend mode="normal" in2="BackgroundImageFix" result="effect1_dropShadow_349_4"/>
<feBlend mode="normal" in="SourceGraphic" in2="effect1_dropShadow_349_4" result="shape"/>
</filter>
<linearGradient id="paint0_linear_349_4" x1="34" y1="1.38462" x2="34" y2="64.7885" gradientUnits="userSpaceOnUse">
<stop stop-color="#E9F5FF"/>
<stop offset="1" stop-color="#DCF0FF" stop-opacity="0.03"/>
</linearGradient>
</defs>
</svg>
