<svg width="68" height="68" viewBox="0 0 68 68" fill="none" xmlns="http://www.w3.org/2000/svg">
<g filter="url(#filter0_d_349_2)">
<circle cx="34" cy="30" r="30" fill="url(#paint0_linear_349_2)" shape-rendering="crispEdges"/>
</g>
<rect x="20" y="21" width="28" height="19" rx="2" fill="#9C55A3"/>
<path d="M43.8253 29.6361C43.8041 29.4222 43.713 29.256 43.5521 29.1376C43.3913 29.0192 43.1729 28.9599 42.8972 28.9599C42.7098 28.9599 42.5516 28.9865 42.4225 29.0395C42.2934 29.0908 42.1944 29.1624 42.1255 29.2543C42.0583 29.3462 42.0247 29.4505 42.0247 29.5672C42.0212 29.6644 42.0415 29.7493 42.0857 29.8218C42.1317 29.8942 42.1944 29.957 42.274 30.01C42.3536 30.0613 42.4455 30.1064 42.5498 30.1453C42.6541 30.1824 42.7655 30.2142 42.8839 30.2407L43.3718 30.3574C43.6087 30.4104 43.8262 30.4812 44.0242 30.5696C44.2222 30.6579 44.3936 30.7667 44.5386 30.8957C44.6836 31.0248 44.7958 31.1768 44.8754 31.3518C44.9567 31.5268 44.9982 31.7275 45 31.9538C44.9982 32.2861 44.9134 32.5743 44.7454 32.8182C44.5793 33.0604 44.3388 33.2487 44.0242 33.3831C43.7113 33.5157 43.3338 33.5819 42.8919 33.5819C42.4534 33.5819 42.0716 33.5148 41.7463 33.3804C41.4228 33.2461 41.17 33.0472 40.9879 32.7838C40.8076 32.5186 40.713 32.1907 40.7042 31.8H41.8152C41.8276 31.9821 41.8798 32.1341 41.9717 32.2561C42.0654 32.3763 42.19 32.4673 42.3456 32.5292C42.5029 32.5893 42.6806 32.6194 42.8786 32.6194C43.0731 32.6194 43.2419 32.5911 43.3851 32.5345C43.53 32.4779 43.6423 32.3993 43.7219 32.2985C43.8014 32.1977 43.8412 32.0819 43.8412 31.9511C43.8412 31.8291 43.8049 31.7266 43.7325 31.6435C43.6618 31.5604 43.5575 31.4897 43.4196 31.4314C43.2834 31.373 43.1164 31.32 42.9184 31.2723L42.327 31.1238C41.8692 31.0124 41.5076 30.8383 41.2425 30.6014C40.9773 30.3645 40.8456 30.0454 40.8474 29.6441C40.8456 29.3153 40.9331 29.028 41.1099 28.7823C41.2884 28.5365 41.5333 28.3447 41.8444 28.2068C42.1556 28.0689 42.5091 28 42.9051 28C43.3082 28 43.66 28.0689 43.9605 28.2068C44.2628 28.3447 44.4979 28.5365 44.6659 28.7823C44.8338 29.028 44.9205 29.3126 44.9258 29.6361H43.8253Z" fill="#F6F6F6"/>
<path d="M34.0462 28.0742H35.4622L36.9578 31.7231H37.0215L38.5171 28.0742H39.9331V33.505H38.8194V29.9703H38.7743L37.3689 33.4785H36.6105L35.205 29.957H35.1599V33.505H34.0462V28.0742Z" fill="#F6F6F6"/>
<path d="M29.2113 33.505V28.0742H31.3539C31.7658 28.0742 32.1167 28.1529 32.4067 28.3103C32.6966 28.4658 32.9176 28.6824 33.0696 28.9599C33.2234 29.2357 33.3003 29.5539 33.3003 29.9146C33.3003 30.2752 33.2225 30.5934 33.067 30.8692C32.9114 31.145 32.686 31.3598 32.3908 31.5136C32.0973 31.6674 31.742 31.7443 31.3248 31.7443H29.9591V30.8241H31.1391C31.3601 30.8241 31.5422 30.7861 31.6854 30.7101C31.8304 30.6323 31.9382 30.5254 32.0089 30.3892C32.0814 30.2513 32.1176 30.0931 32.1176 29.9146C32.1176 29.7342 32.0814 29.5769 32.0089 29.4426C31.9382 29.3064 31.8304 29.2012 31.6854 29.127C31.5404 29.051 31.3566 29.013 31.1338 29.013H30.3595V33.505H29.2113Z" fill="#F6F6F6"/>
<path d="M24.8433 33.505V28.0742H28.4391V29.0209H25.9915V30.315H28.2004V31.2617H25.9915V33.505H24.8433Z" fill="#F6F6F6"/>
<defs>
<filter id="filter0_d_349_2" x="0" y="0" width="68" height="68" filterUnits="userSpaceOnUse" color-interpolation-filters="sRGB">
<feFlood flood-opacity="0" result="BackgroundImageFix"/>
<feColorMatrix in="SourceAlpha" type="matrix" values="0 0 0 0 0 0 0 0 0 0 0 0 0 0 0 0 0 0 127 0" result="hardAlpha"/>
<feOffset dy="4"/>
<feGaussianBlur stdDeviation="2"/>
<feComposite in2="hardAlpha" operator="out"/>
<feColorMatrix type="matrix" values="0 0 0 0 0 0 0 0 0 0 0 0 0 0 0 0 0 0 0.25 0"/>
<feBlend mode="normal" in2="BackgroundImageFix" result="effect1_dropShadow_349_2"/>
<feBlend mode="normal" in="SourceGraphic" in2="effect1_dropShadow_349_2" result="shape"/>
</filter>
<linearGradient id="paint0_linear_349_2" x1="34" y1="1.38462" x2="34" y2="64.7885" gradientUnits="userSpaceOnUse">
<stop stop-color="#E9F5FF"/>
<stop offset="1" stop-color="#DCF0FF" stop-opacity="0.03"/>
</linearGradient>
</defs>
</svg>
