<svg width="64" height="64" viewBox="0 0 64 64" fill="none" xmlns="http://www.w3.org/2000/svg">
<g filter="url(#filter0_d_258_15)">
<circle cx="32" cy="31" r="30" fill="white"/>
</g>
<path fill-rule="evenodd" clip-rule="evenodd" d="M32 46C39.732 46 46 39.732 46 32C46 24.268 39.732 18 32 18C24.268 18 18 24.268 18 32C18 34.5109 18.661 36.8674 19.8185 38.905L18 46L25.3149 44.3038C27.3014 45.3854 29.5789 46 32 46ZM32 43.8462C38.5425 43.8462 43.8462 38.5425 43.8462 32C43.8462 25.4576 38.5425 20.1539 32 20.1539C25.4576 20.1539 20.1539 25.4576 20.1539 32C20.1539 34.5261 20.9445 36.8675 22.2918 38.7902L21.2308 42.7692L25.2799 41.7569C27.1894 43.0746 29.5046 43.8462 32 43.8462Z" fill="#BFC8D0"/>
<path d="M44 31C44 37.6274 38.6274 43 32 43C29.4722 43 27.1269 42.2184 25.1927 40.8837L21.0909 41.9091L22.1658 37.8784C20.8009 35.9307 20 33.5589 20 31C20 24.3726 25.3726 19 32 19C38.6274 19 44 24.3726 44 31Z" fill="url(#paint0_linear_258_15)"/>
<path fill-rule="evenodd" clip-rule="evenodd" d="M32 45C39.732 45 46 38.732 46 31C46 23.268 39.732 17 32 17C24.268 17 18 23.268 18 31C18 33.5109 18.661 35.8674 19.8185 37.905L18 45L25.3149 43.3038C27.3014 44.3854 29.5789 45 32 45ZM32 42.8462C38.5425 42.8462 43.8462 37.5425 43.8462 31C43.8462 24.4576 38.5425 19.1539 32 19.1539C25.4576 19.1539 20.1539 24.4576 20.1539 31C20.1539 33.5261 20.9445 35.8675 22.2918 37.7902L21.2308 41.7692L25.2799 40.7569C27.1894 42.0746 29.5046 42.8462 32 42.8462Z" fill="white"/>
<path d="M28.5 24.4999C28.1672 23.8313 27.6565 23.8905 27.1407 23.8905C26.2188 23.8905 24.7812 24.9948 24.7812 27.05C24.7812 28.7343 25.5235 30.578 28.0244 33.3361C30.438 35.9979 33.6094 37.3748 36.2422 37.3279C38.875 37.2811 39.4167 35.0154 39.4167 34.2503C39.4167 33.9112 39.2062 33.742 39.0613 33.696C38.1641 33.2654 36.5093 32.4631 36.1328 32.3124C35.7563 32.1617 35.5597 32.3656 35.4375 32.4765C35.0961 32.8018 34.4193 33.7608 34.1875 33.9765C33.9558 34.1922 33.6103 34.083 33.4665 34.0015C32.9374 33.7892 31.5029 33.1511 30.3595 32.0426C28.9453 30.6718 28.8623 30.2001 28.5959 29.7803C28.3828 29.4444 28.5392 29.2384 28.6172 29.1483C28.9219 28.7968 29.3426 28.254 29.5313 27.9843C29.7199 27.7145 29.5702 27.305 29.4803 27.05C29.0938 25.953 28.7663 25.0347 28.5 24.4999Z" fill="white"/>
<defs>
<filter id="filter0_d_258_15" x="0" y="0" width="64" height="64" filterUnits="userSpaceOnUse" color-interpolation-filters="sRGB">
<feFlood flood-opacity="0" result="BackgroundImageFix"/>
<feColorMatrix in="SourceAlpha" type="matrix" values="0 0 0 0 0 0 0 0 0 0 0 0 0 0 0 0 0 0 127 0" result="hardAlpha"/>
<feOffset dy="1"/>
<feGaussianBlur stdDeviation="1"/>
<feComposite in2="hardAlpha" operator="out"/>
<feColorMatrix type="matrix" values="0 0 0 0 0 0 0 0 0 0 0 0 0 0 0 0 0 0 0.25 0"/>
<feBlend mode="normal" in2="BackgroundImageFix" result="effect1_dropShadow_258_15"/>
<feBlend mode="normal" in="SourceGraphic" in2="effect1_dropShadow_258_15" result="shape"/>
</filter>
<linearGradient id="paint0_linear_258_15" x1="42.5" y1="22" x2="20" y2="43" gradientUnits="userSpaceOnUse">
<stop stop-color="#5BD066"/>
<stop offset="1" stop-color="#27B43E"/>
</linearGradient>
</defs>
</svg>
