<svg width="68" height="68" viewBox="0 0 68 68" fill="none" xmlns="http://www.w3.org/2000/svg">
<g filter="url(#filter0_d_349_6)">
<circle cx="34" cy="30" r="30" fill="url(#paint0_linear_349_6)" shape-rendering="crispEdges"/>
</g>
<path d="M36.6667 22.9022H24.3333C23.2288 22.9022 22.3333 23.7977 22.3333 24.9022V36.555C22.3333 37.6596 23.2288 38.555 24.3333 38.555H36.6667C37.7712 38.555 38.6667 37.6596 38.6667 36.555V24.9022C38.6667 23.7977 37.7712 22.9022 36.6667 22.9022Z" stroke="#858484" stroke-width="2" stroke-linecap="round"/>
<path d="M38.6667 28.4925L42.8024 26.5108C44.13 25.8747 45.6667 26.8423 45.6667 28.3144V33.1428C45.6667 34.6149 44.13 35.5826 42.8024 34.9465L38.6667 32.9647" stroke="#858484" stroke-width="2" stroke-linecap="round"/>
<defs>
<filter id="filter0_d_349_6" x="0" y="0" width="68" height="68" filterUnits="userSpaceOnUse" color-interpolation-filters="sRGB">
<feFlood flood-opacity="0" result="BackgroundImageFix"/>
<feColorMatrix in="SourceAlpha" type="matrix" values="0 0 0 0 0 0 0 0 0 0 0 0 0 0 0 0 0 0 127 0" result="hardAlpha"/>
<feOffset dy="4"/>
<feGaussianBlur stdDeviation="2"/>
<feComposite in2="hardAlpha" operator="out"/>
<feColorMatrix type="matrix" values="0 0 0 0 0 0 0 0 0 0 0 0 0 0 0 0 0 0 0.25 0"/>
<feBlend mode="normal" in2="BackgroundImageFix" result="effect1_dropShadow_349_6"/>
<feBlend mode="normal" in="SourceGraphic" in2="effect1_dropShadow_349_6" result="shape"/>
</filter>
<linearGradient id="paint0_linear_349_6" x1="34" y1="1.38462" x2="34" y2="64.7885" gradientUnits="userSpaceOnUse">
<stop stop-color="#E9F5FF"/>
<stop offset="1" stop-color="#DCF0FF" stop-opacity="0.03"/>
</linearGradient>
</defs>
</svg>
