<svg width="62" height="62" viewBox="0 0 62 62" fill="none" xmlns="http://www.w3.org/2000/svg">
<g filter="url(#filter0_d_258_5)">
<circle cx="31" cy="27" r="27" fill="white"/>
</g>
<g clip-path="url(#clip0_258_5)">
<path d="M31 51C44.2548 51 55 40.2548 55 27C55 13.7452 44.2548 3 31 3C17.7452 3 7 13.7452 7 27C7 40.2548 17.7452 51 31 51Z" fill="#3B89C4"/>
<path opacity="0.2" d="M19.3684 10.1275C20.5924 9.91147 21.3129 9.19147 21.5284 7.96747C21.7444 9.19147 22.4649 9.91147 23.6884 10.1275C22.4649 10.3439 21.7444 11.0635 21.5284 12.2875C21.3129 11.0635 20.5924 10.3439 19.3684 10.1275Z" fill="white"/>
<mask id="mask0_258_5" style="mask-type:luminance" maskUnits="userSpaceOnUse" x="7" y="8" width="48" height="49">
<path d="M55 32.0233C55 45.278 44.2542 56.0233 31 56.0233C17.7453 56.0233 7 45.278 7 32.0233C7 18.7685 17.7453 8.02325 31 8.02325H55V32.0233Z" fill="white"/>
</mask>
<g mask="url(#mask0_258_5)">
<path opacity="0.1" d="M41.08 43.7832C42.304 43.5672 43.0245 42.8472 43.24 41.6232C43.456 42.8472 44.1765 43.5672 45.4 43.7832C44.1765 43.9997 43.456 44.7192 43.24 45.9432C43.0245 44.7192 42.304 43.9997 41.08 43.7832ZM12.28 38.9832C13.504 38.7672 14.2245 38.0472 14.44 36.8232C14.656 38.0472 15.3765 38.7672 16.6 38.9832C15.3765 39.1997 14.656 39.9192 14.44 41.1432C14.2245 39.9192 13.504 39.1997 12.28 38.9832Z" fill="white"/>
</g>
</g>
<g clip-path="url(#clip1_258_5)">
<path d="M44.9302 13.0698C38.3643 10.2558 30.8605 10.2558 30.8605 10.2558C30.8605 10.2558 23.3566 10.2558 16.7907 13.0698C13.9767 27.1395 16.7907 39.3333 30.8605 44.0232C44.9302 39.3333 47.7442 27.1395 44.9302 13.0698Z" fill="url(#paint0_angular_258_5)"/>
<path d="M30.8605 42.0385C19.9911 38.1411 15.8161 28.857 18.4415 14.4242C24.3537 12.159 30.7929 12.1318 30.8605 12.1318C30.9271 12.1318 37.387 12.1693 43.2794 14.4242C45.9048 28.857 41.7298 38.1411 30.8605 42.0385Z" fill="#9C55A3"/>
<path d="M43.2794 14.4242C37.387 12.1693 30.9271 12.1318 30.8605 12.1318V42.0385C41.7298 38.1411 45.9048 28.857 43.2794 14.4242Z" fill="#460D4B" fill-opacity="0.68"/>
<path d="M30.6701 27.4899C31.6163 27.4947 32.3814 28.2631 32.3814 29.2098C32.3814 30.1598 31.6114 30.9298 30.6614 30.9298C29.7114 30.9298 28.9415 30.1598 28.9415 29.2098V29.2093C28.9447 28.2587 29.7157 27.4899 30.6668 27.4899C30.6679 27.4899 30.669 27.4899 30.6701 27.4899ZM31.1529 29.1974C31.1464 28.9362 30.9334 28.7264 30.6711 28.7264C30.4051 28.7264 30.1894 28.9422 30.1894 29.2082C30.1894 29.212 30.1894 29.2163 30.1894 29.2201V29.2196C30.1997 29.4791 30.4127 29.6862 30.6738 29.6862C30.682 29.6862 30.6901 29.6862 30.6976 29.6856H30.6966C30.9523 29.6673 31.1529 29.4553 31.1529 29.1963V29.1974Z" fill="white"/>
<path fill-rule="evenodd" clip-rule="evenodd" d="M18.4321 14.0082C18.3142 13.7514 18.0105 13.6387 17.7537 13.7566C17.4969 13.8744 17.3842 14.1782 17.5021 14.435L18.3556 16.295C18.5913 16.8086 19.1988 17.0339 19.7124 16.7982C20.3151 16.5217 21.0278 16.786 21.3043 17.3886L21.4438 17.6926C21.6795 18.2062 22.2869 18.4315 22.8005 18.1958C23.4026 17.9195 24.1147 18.1836 24.391 18.7857L24.5305 19.0895C24.7662 19.6031 25.3736 19.8284 25.8872 19.5927L26.8172 19.1659C27.074 19.0481 27.1867 18.7444 27.0688 18.4876C26.951 18.2307 26.6473 18.1181 26.3905 18.2359L26.158 18.3426C25.7727 18.5194 25.3171 18.3504 25.1404 17.9652L24.6076 16.8044C24.4894 16.5466 24.1845 16.4336 23.9268 16.5518L23.464 16.7642C23.4637 16.7643 23.4636 16.7647 23.4637 16.765C23.4639 16.7653 23.4637 16.7656 23.4634 16.7657L22.9209 17.0147C22.6187 17.1534 22.2614 17.0209 22.1227 16.7187L21.5942 15.5669C21.4355 15.2211 21.0265 15.0694 20.6807 15.2281L20.4482 15.3348C19.8061 15.6294 19.0468 15.3478 18.7522 14.7057L18.4321 14.0082Z" fill="url(#paint1_angular_258_5)"/>
<path d="M38.739 37.2198C38.7392 37.22 38.7391 37.2204 38.7388 37.2205C38.6133 37.2579 38.5507 37.1959 38.4837 37.1646C36.6421 36.287 34.7897 35.4322 33.0146 34.4227C32.9654 34.3946 32.9043 34.3643 32.8415 34.3378L32.8291 34.333C32.5269 34.2048 32.3879 34.2475 32.2203 34.5373C32.1522 34.6568 32.0792 34.8044 32.0143 34.9558L32.0024 34.9867C31.6023 35.881 31.2054 36.7775 30.8031 37.6718C30.7471 37.7967 30.6156 37.775 30.5563 37.6516C30.446 37.4223 30.3365 37.1951 30.23 36.9667C29.8847 36.2299 29.5399 35.4926 29.1956 34.7547C29.1497 34.652 29.1042 34.5671 29.0534 34.4854L29.0588 34.4952C28.9166 34.2697 28.7571 34.2156 28.5079 34.3146C28.3932 34.3659 28.2986 34.4157 28.2078 34.4703L28.2202 34.4633C26.4755 35.4099 24.7149 36.326 22.9584 37.2444C22.8777 37.2866 22.8015 37.3528 22.7105 37.3528C22.6997 37.3528 22.6893 37.3481 22.6831 37.3393C22.6383 37.2756 22.7109 37.2245 22.7332 37.1749C23.6021 35.3084 24.4553 33.4332 25.4864 31.6473C25.5108 31.6046 25.5351 31.5619 25.5551 31.517C25.7119 31.1628 25.6178 30.9071 25.2599 30.7492C24.9279 30.6032 24.5883 30.4745 24.2564 30.3248C23.6094 30.0336 22.9645 29.7331 22.3192 29.4349C22.1754 29.3685 22.1355 29.2301 22.2785 29.1617C23.2233 28.7101 24.1711 28.2607 25.122 27.8138C25.1663 27.7927 25.2118 27.7738 25.2556 27.7548C25.6908 27.5391 25.7498 27.3634 25.5129 26.9405C24.9484 25.9246 24.411 24.8989 23.8773 23.8721C23.4563 23.0632 23.0378 22.2527 22.6218 21.4406C22.5636 21.3263 22.6341 21.233 22.7435 21.3C22.7538 21.3063 22.764 21.3122 22.7743 21.3173C24.6316 22.2057 26.4943 23.0843 28.2927 24.0921C28.3008 24.097 28.3078 24.104 28.317 24.1089C28.7755 24.3549 28.9431 24.303 29.1632 23.8218C29.6147 22.8323 30.0597 21.8385 30.5074 20.8469C30.574 20.6999 30.7295 20.72 30.7963 20.8669C30.9393 21.1812 31.0807 21.4918 31.2205 21.8034C31.5064 22.4385 31.791 23.074 32.0743 23.7099C32.09 23.7461 32.1062 23.7818 32.123 23.8175C32.3549 24.3117 32.5361 24.3711 33.02 24.0986C34.7967 23.0951 36.6216 22.1824 38.441 21.2594C38.5392 21.2098 38.6293 21.2717 38.5714 21.3652C38.5613 21.3814 38.5513 21.3974 38.5437 21.4135C37.6765 23.2703 36.8173 25.1335 35.8127 26.9205C35.8078 26.9292 35.8008 26.9368 35.797 26.9454C35.558 27.3969 35.6034 27.5596 36.0711 27.7721C37.0709 28.2274 38.0523 28.7205 39.0369 29.2061C39.1303 29.2543 39.1659 29.3717 39.0668 29.4067C39.0336 29.4184 38.9994 29.4274 38.9693 29.4407C38.0398 29.8598 37.1077 30.2734 36.1771 30.6897C35.5867 30.9536 35.5326 31.1191 35.8484 31.6771C36.8735 33.4895 37.7938 35.3538 38.7389 37.2197C38.7389 37.2197 38.739 37.2198 38.739 37.2198ZM26.1636 24.7736C26.1637 24.7737 26.1638 24.7736 26.1638 24.7735C26.1551 24.7467 26.1341 24.7249 26.1131 24.7491C26.0858 24.7806 26.147 24.8215 26.1582 24.8617C26.1969 25.0002 26.2814 25.1196 26.3467 25.2449C26.7429 26.0157 27.1429 26.782 27.544 27.5512C27.7428 27.9324 27.5878 28.4011 27.1997 28.586C26.641 28.8521 26.6259 29.6425 27.1896 29.8977C27.5886 30.0783 27.7365 30.5548 27.5338 30.943C27.0569 31.8562 26.6312 32.7779 26.2215 33.7063C26.213 33.7255 26.2183 33.748 26.2344 33.7614C26.249 33.7735 26.2695 33.7757 26.2863 33.7668C27.1882 33.2927 28.0902 32.8189 28.9979 32.3416C29.3678 32.147 29.8254 32.2998 30.0042 32.6776L30.0161 32.7028C30.2796 33.2595 31.0743 33.2518 31.327 32.6901C31.4998 32.3059 31.9634 32.1512 32.337 32.346C33.2407 32.8174 34.1537 33.2481 35.0884 33.6728C35.13 33.6917 35.1748 33.6565 35.1617 33.6128C35.1619 33.6133 35.161 33.6136 35.1608 33.6131C34.6274 32.5437 34.0956 31.4743 33.5196 30.4297C33.4017 30.2145 33.4017 30.2139 33.6337 30.1096C34.0814 29.9101 34.5307 29.7132 34.9768 29.511C35.2099 29.4046 35.2024 29.1282 34.9724 29.0149L34.2236 28.6462C33.7812 28.4284 33.6109 27.8856 33.8404 27.4492C33.8769 27.3799 33.9132 27.3104 33.9493 27.241C34.3976 26.3781 33.5053 25.5009 32.6451 25.9542C32.5423 26.0084 32.4397 26.0629 32.3372 26.1178C31.9624 26.3183 31.4935 26.1622 31.3186 25.7747C31.0621 25.2062 30.2511 25.2093 29.9936 25.7774C29.8188 26.163 29.3551 26.3108 28.9799 26.1147C28.1699 25.6913 27.3565 25.3055 26.5424 24.9227C26.4198 24.8665 26.3052 24.7827 26.1637 24.7734C26.1636 24.7734 26.1635 24.7736 26.1636 24.7736Z" fill="url(#paint2_angular_258_5)"/>
</g>
<defs>
<filter id="filter0_d_258_5" x="0" y="0" width="62" height="62" filterUnits="userSpaceOnUse" color-interpolation-filters="sRGB">
<feFlood flood-opacity="0" result="BackgroundImageFix"/>
<feColorMatrix in="SourceAlpha" type="matrix" values="0 0 0 0 0 0 0 0 0 0 0 0 0 0 0 0 0 0 127 0" result="hardAlpha"/>
<feOffset dy="4"/>
<feGaussianBlur stdDeviation="2"/>
<feComposite in2="hardAlpha" operator="out"/>
<feColorMatrix type="matrix" values="0 0 0 0 0 0 0 0 0 0 0 0 0 0 0 0 0 0 0.25 0"/>
<feBlend mode="normal" in2="BackgroundImageFix" result="effect1_dropShadow_258_5"/>
<feBlend mode="normal" in="SourceGraphic" in2="effect1_dropShadow_258_5" result="shape"/>
</filter>
<radialGradient id="paint0_angular_258_5" cx="0" cy="0" r="1" gradientUnits="userSpaceOnUse" gradientTransform="translate(30.409 27.1395) rotate(90) scale(16.8837 14.5988)">
<stop offset="0.362857" stop-color="#D6DFE6"/>
<stop offset="0.370506" stop-color="#FAFBFC"/>
<stop offset="0.865074" stop-color="#D7E0E7"/>
<stop offset="0.871776" stop-color="#F7F8F9"/>
</radialGradient>
<radialGradient id="paint1_angular_258_5" cx="0" cy="0" r="1" gradientUnits="userSpaceOnUse" gradientTransform="translate(21.8942 16.9199) rotate(114.35) scale(1.56093 5.41207)">
<stop offset="0.362857" stop-color="#D6DFE6"/>
<stop offset="0.370506" stop-color="#FAFBFC"/>
<stop offset="0.865074" stop-color="#D7E0E7"/>
<stop offset="0.871776" stop-color="#F7F8F9"/>
</radialGradient>
<radialGradient id="paint2_angular_258_5" cx="0" cy="0" r="1" gradientUnits="userSpaceOnUse" gradientTransform="translate(30.3777 29.2315) rotate(90) scale(8.6517 8.3085)">
<stop offset="0.362857" stop-color="#D6DFE6"/>
<stop offset="0.370506" stop-color="#FAFBFC"/>
<stop offset="0.865074" stop-color="#D7E0E7"/>
<stop offset="0.871776" stop-color="#F7F8F9"/>
</radialGradient>
<clipPath id="clip0_258_5">
<rect width="48" height="48" fill="white" transform="translate(7 3)"/>
</clipPath>
<clipPath id="clip1_258_5">
<rect width="33.7674" height="37.9535" fill="white" transform="translate(13.9767 10.2558)"/>
</clipPath>
</defs>
</svg>
