<svg width="62" height="62" viewBox="0 0 62 62" fill="none" xmlns="http://www.w3.org/2000/svg">
<g filter="url(#filter0_d_258_9)">
<circle cx="31" cy="27" r="27" fill="white"/>
</g>
<path d="M30.8795 53C44.6866 53 55.8795 41.5833 55.8795 27.5C55.8795 13.4167 44.6866 2 30.8795 2C17.0724 2 5.87952 13.4167 5.87952 27.5C5.87952 41.5833 17.0724 53 30.8795 53Z" fill="#3B89C4"/>
<g clip-path="url(#clip0_258_9)">
<path d="M29.6299 33.5256C29.754 33.5246 29.8741 33.5708 29.9674 33.6553C30.0608 33.7399 30.1208 33.8569 30.1361 33.9842V41.4242C30.1366 41.829 29.9862 42.2185 29.7163 42.5119C29.4463 42.8053 29.0774 42.9801 28.6861 43H18.4239C18.0366 42.9993 17.664 42.847 17.381 42.5738C17.0981 42.3006 16.9258 41.9267 16.8989 41.5275V34.0552C16.898 33.927 16.9427 33.8028 17.0245 33.7064C17.1063 33.6099 17.2195 33.5479 17.3427 33.5321H29.6299V33.5256ZM44.3857 33.5256C44.5095 33.526 44.6289 33.5727 44.7219 33.657C44.815 33.7412 44.8754 33.8575 44.892 33.9842V41.4242C44.8924 41.8301 44.7412 42.2205 44.4699 42.5141C44.1986 42.8076 43.8282 42.9817 43.4358 43H33.1735C32.7869 42.9992 32.415 42.8467 32.133 42.5734C31.8511 42.3 31.6802 41.9262 31.6548 41.5275V34.0552C31.6539 33.927 31.6985 33.8028 31.7803 33.7064C31.8621 33.6099 31.9754 33.5479 32.0985 33.5321H44.3545L44.3857 33.5256ZM25.6862 35.7021L25.63 35.7473L22.755 39.0152L21.4363 37.7235C21.3721 37.6576 21.2876 37.6169 21.1974 37.6087C21.1072 37.6004 21.017 37.6251 20.9426 37.6783L20.8926 37.7235L20.3489 38.2273C20.3158 38.2537 20.2883 38.2867 20.268 38.3245C20.2478 38.3622 20.2352 38.4038 20.2312 38.4468C20.2271 38.4897 20.2315 38.5331 20.2442 38.5742C20.2569 38.6153 20.2777 38.6533 20.3051 38.6858L20.3489 38.7375L22.2238 40.5652C22.3688 40.713 22.5639 40.7964 22.7675 40.7977C22.8689 40.8008 22.9698 40.7817 23.0635 40.7416C23.1572 40.7015 23.2416 40.6414 23.3113 40.5652L26.7612 36.7935C26.8128 36.7294 26.8441 36.6503 26.8508 36.5671C26.8576 36.484 26.8393 36.4007 26.7987 36.3285L26.7612 36.2833L26.2174 35.7796C26.1566 35.6969 26.0667 35.6424 25.9673 35.6279C25.8678 35.6134 25.7668 35.6401 25.6862 35.7021ZM40.4421 35.7021L40.3858 35.7473L37.4734 39.0152L36.1547 37.7235C36.0915 37.6581 36.008 37.6177 35.9189 37.6094C35.8298 37.6012 35.7407 37.6256 35.6672 37.6783L35.611 37.7235L35.0672 38.2273C35.0346 38.2541 35.0076 38.2876 34.988 38.3256C34.9683 38.3635 34.9563 38.4053 34.9528 38.4482C34.9493 38.4911 34.9543 38.5344 34.9675 38.5752C34.9808 38.6161 35.0019 38.6537 35.0297 38.6858L35.0672 38.7375L36.9422 40.5652C37.0872 40.713 37.2823 40.7964 37.4859 40.7977C37.5873 40.8012 37.6883 40.7823 37.7821 40.7422C37.8759 40.7021 37.9603 40.6417 38.0296 40.5652L41.5046 36.7612C41.5489 36.6924 41.5725 36.6115 41.5725 36.5287C41.5725 36.446 41.5489 36.3651 41.5046 36.2962V36.251L40.9608 35.7473C40.896 35.6732 40.8064 35.6273 40.7101 35.619C40.6138 35.6106 40.518 35.6403 40.4421 35.7021ZM28.7174 28.2621C29.0902 28.2766 29.4439 28.4366 29.7072 28.7098C29.9705 28.983 30.1237 29.3492 30.1361 29.7346V31.4202C30.1382 31.5437 30.0979 31.6639 30.0224 31.7597C29.9469 31.8554 29.8411 31.9205 29.7236 31.9433H16.3552C16.2363 31.9408 16.1224 31.8935 16.0349 31.8102C15.9474 31.727 15.8924 31.6135 15.8802 31.4912V29.8444C15.8687 29.4566 15.9995 29.0786 16.2464 28.7864C16.4933 28.4941 16.838 28.3091 17.2114 28.2685H28.7174V28.2621ZM44.4545 28.2621C44.8284 28.275 45.1837 28.4343 45.4483 28.7077C45.7128 28.9811 45.867 29.3481 45.8794 29.7346V31.4202C45.8815 31.5437 45.8412 31.6639 45.7657 31.7597C45.6902 31.8554 45.5844 31.9205 45.4669 31.9433H32.0923C31.9735 31.9391 31.8603 31.8902 31.774 31.8057C31.6876 31.7213 31.6342 31.6071 31.6236 31.4848V29.8444C31.612 29.4566 31.7428 29.0786 31.9898 28.7864C32.2367 28.4941 32.5814 28.3091 32.9548 28.2685H44.4545V28.2621ZM36.9547 17.2829C37.0777 17.2835 37.1963 17.3304 37.2883 17.4148C37.3803 17.4992 37.4395 17.6153 37.4547 17.7415V25.1556C37.4555 25.5563 37.3086 25.9422 37.0439 26.2349C36.7792 26.5276 36.4166 26.7052 36.0297 26.7315H25.7987C25.4109 26.7292 25.0382 26.5755 24.7554 26.3012C24.4726 26.0269 24.3005 25.6523 24.2738 25.2525V17.8125C24.2743 17.6854 24.3197 17.5628 24.4014 17.4677C24.483 17.3726 24.5954 17.3115 24.7175 17.2958H36.9797L36.9547 17.2829ZM33.036 19.4594L32.986 19.5046L30.0736 22.7725L28.7549 21.4808C28.6917 21.4154 28.6082 21.375 28.5191 21.3667C28.43 21.3585 28.3409 21.3828 28.2674 21.4356L28.2111 21.4808L27.6674 21.9846C27.6351 22.0115 27.6083 22.0448 27.5885 22.0825C27.5688 22.1203 27.5565 22.1617 27.5525 22.2044C27.5484 22.2471 27.5526 22.2902 27.5648 22.3312C27.577 22.3721 27.597 22.4102 27.6237 22.4431L27.6674 22.4948L29.5424 24.316C29.6131 24.3913 29.6976 24.4511 29.7909 24.4922C29.8843 24.5332 29.9846 24.5546 30.0861 24.555C30.1881 24.5581 30.2894 24.5384 30.3833 24.4971C30.4772 24.4559 30.5613 24.3941 30.6298 24.316L34.086 20.5508C34.1351 20.4852 34.1643 20.406 34.1698 20.3232C34.1754 20.2405 34.1571 20.1579 34.1172 20.0858L34.086 20.0406L33.5423 19.5369C33.4852 19.4659 33.406 19.4174 33.3184 19.3998C33.2307 19.3821 33.1397 19.3963 33.061 19.44L33.036 19.4594ZM36.9797 12C37.3663 12.0008 37.7382 12.1533 38.0201 12.4266C38.3021 12.7 38.473 13.0738 38.4984 13.4725V15.1581C38.4967 15.2856 38.4511 15.4083 38.3698 15.5042C38.2885 15.6 38.1767 15.6628 38.0546 15.6812H23.7675C23.6444 15.6824 23.525 15.6372 23.4318 15.554C23.3386 15.4707 23.278 15.3553 23.2613 15.2292V13.5758C23.2603 13.1762 23.4063 12.7912 23.6697 12.4986C23.9331 12.2061 24.2942 12.0278 24.68 12H36.9797Z" fill="white"/>
</g>
<defs>
<filter id="filter0_d_258_9" x="0" y="0" width="62" height="62" filterUnits="userSpaceOnUse" color-interpolation-filters="sRGB">
<feFlood flood-opacity="0" result="BackgroundImageFix"/>
<feColorMatrix in="SourceAlpha" type="matrix" values="0 0 0 0 0 0 0 0 0 0 0 0 0 0 0 0 0 0 127 0" result="hardAlpha"/>
<feOffset dy="4"/>
<feGaussianBlur stdDeviation="2"/>
<feComposite in2="hardAlpha" operator="out"/>
<feColorMatrix type="matrix" values="0 0 0 0 0 0 0 0 0 0 0 0 0 0 0 0 0 0 0.25 0"/>
<feBlend mode="normal" in2="BackgroundImageFix" result="effect1_dropShadow_258_9"/>
<feBlend mode="normal" in="SourceGraphic" in2="effect1_dropShadow_258_9" result="shape"/>
</filter>
<clipPath id="clip0_258_9">
<rect width="30" height="33" fill="white" transform="translate(16 10)"/>
</clipPath>
</defs>
</svg>
