<svg width="62" height="62" viewBox="0 0 62 62" fill="none" xmlns="http://www.w3.org/2000/svg">
<g filter="url(#filter0_d_258_7)">
<circle cx="31" cy="27" r="27" fill="white"/>
</g>
<g clip-path="url(#clip0_258_7)">
<path d="M31 51C44.2548 51 55 40.2548 55 27C55 13.7452 44.2548 3 31 3C17.7452 3 7 13.7452 7 27C7 40.2548 17.7452 51 31 51Z" fill="#3B89C4"/>
<path opacity="0.2" d="M19.3683 9.95747C20.5923 9.76405 21.3128 9.11931 21.5283 8.02325C21.7443 9.11931 22.4648 9.76405 23.6883 9.95747C22.4648 10.1513 21.7443 10.7956 21.5283 11.8917C21.3128 10.7956 20.5923 10.1513 19.3683 9.95747Z" fill="white"/>
<mask id="mask0_258_7" style="mask-type:luminance" maskUnits="userSpaceOnUse" x="7" y="8" width="48" height="44">
<path d="M55 29.5645C55 41.4337 44.2542 51.0558 31 51.0558C17.7453 51.0558 7 41.4337 7 29.5645C7 17.6953 17.7453 8.07324 31 8.07324H55V29.5645Z" fill="white"/>
</mask>
<g mask="url(#mask0_258_7)">
<path opacity="0.1" d="M41.08 40.0953C42.304 39.9018 43.0245 39.2571 43.24 38.161C43.456 39.2571 44.1765 39.9018 45.4 40.0953C44.1765 40.2891 43.456 40.9334 43.24 42.0295C43.0245 40.9334 42.304 40.2891 41.08 40.0953ZM12.28 35.797C13.504 35.6036 14.2244 34.9588 14.44 33.8628C14.656 34.9588 15.3764 35.6036 16.6 35.797C15.3764 35.9909 14.656 36.6352 14.44 37.7312C14.2244 36.6352 13.504 35.9909 12.28 35.797Z" fill="white"/>
</g>
<g filter="url(#filter1_d_258_7)">
<path d="M42.3423 18.4308C42.2507 18.3105 42.1079 18.2401 41.957 18.2401H36.9434C36.6753 18.2401 36.4583 18.4574 36.4583 18.7252V21.3802H34.0325V18.7252C34.0325 18.4574 33.8155 18.2401 33.5473 18.2401H28.2912C28.023 18.2401 27.8061 18.4574 27.8061 18.7252V21.3802H25.2185V18.7288C25.2185 18.461 25.0015 18.2436 24.7333 18.2436H19.9623C19.8018 18.2436 19.6521 18.3229 19.5614 18.4553L16.0843 23.5462C16.0294 23.6267 16 23.7223 16 23.8199V27.1618C16 27.4297 16.217 27.647 16.4852 27.647H21.4986C21.7603 27.647 21.975 27.4391 21.9835 27.1776L22.049 25.1806H25.7035V27.1618C25.7035 27.4296 25.9205 27.6469 26.1886 27.6469H36.0539C36.322 27.6469 36.539 27.4296 36.539 27.1618V25.1806H40.1125L40.1783 27.1776C40.1868 27.4398 40.4016 27.647 40.6631 27.647H45.5148C45.7831 27.647 46 27.4297 46 27.1618V23.3885C46 23.282 45.9653 23.1788 45.9002 23.094L42.3423 18.4308Z" fill="white"/>
<path d="M45.5148 28.4556H40.5822C40.3141 28.4556 40.0971 28.6729 40.0971 28.9407V30.0728H36.054V28.9407C36.054 28.6729 35.8369 28.4556 35.5688 28.4556H26.027C25.7588 28.4556 25.5418 28.6729 25.5418 28.9407V30.0728H21.903V28.9407C21.903 28.6729 21.6859 28.4556 21.4178 28.4556H16.4852C16.217 28.4556 16 28.6729 16 28.9407V38.1591C16 38.4269 16.217 38.6442 16.4852 38.6442H45.5148C45.7831 38.6442 46 38.427 46 38.1591V28.9407C46 28.6729 45.7828 28.4556 45.5148 28.4556Z" fill="white"/>
<path d="M19.2905 20.2352L17.3031 23.415C17.0943 23.7491 16.9836 24.1352 16.9836 24.5291C16.9836 25.6901 17.9247 26.6312 19.0857 26.6312H20.3648C20.9419 26.6312 21.4098 26.1633 21.4098 25.5861C21.4098 25.0089 21.8777 24.541 22.4549 24.541H22.7623C23.5092 24.541 24.1148 23.9355 24.1148 23.1886V21.6187C24.1148 20.177 22.946 19.0082 21.5043 19.0082C20.6042 19.0082 19.7676 19.4719 19.2905 20.2352Z" fill="#B8B8B8" fill-opacity="0.2"/>
<path d="M42.9553 20.3581L44.9428 23.538C45.1516 23.8721 45.2623 24.2581 45.2623 24.6521C45.2623 25.813 44.3211 26.7541 43.1602 26.7541H41.8811C41.3039 26.7541 40.836 26.2862 40.836 25.709C40.836 25.1319 40.3681 24.664 39.791 24.664H39.4836C38.7366 24.664 38.1311 24.0584 38.1311 23.3115V21.7417C38.1311 20.2999 39.2999 19.1312 40.7416 19.1312C41.6417 19.1312 42.4783 19.5948 42.9553 20.3581Z" fill="#B8B8B8" fill-opacity="0.2"/>
<path d="M17.2295 31.2418V33.3935C17.2295 35.5664 18.991 37.3279 21.164 37.3279H41.082C43.2549 37.3279 45.0164 35.5664 45.0164 33.3935V31.4877C45.0164 30.3673 44.1081 29.459 42.9877 29.459H41.6967C41.2893 29.459 40.959 29.7893 40.959 30.1968C40.959 30.6042 40.6287 30.9345 40.2213 30.9345H21.5328C21.1254 30.9345 20.7951 30.6042 20.7951 30.1968C20.7951 29.7893 20.4648 29.459 20.0574 29.459H19.0123C18.0277 29.459 17.2295 30.2572 17.2295 31.2418Z" fill="#B8B8B8" fill-opacity="0.2"/>
<path d="M24.814 29.4259C25.0822 29.4259 25.2992 29.2086 25.2992 28.9408V26.2106C25.2992 25.9427 25.0822 25.7254 24.814 25.7254H22.6307C22.3626 25.7254 22.1456 25.9427 22.1456 26.2106V28.9408C22.1456 29.2086 22.3626 29.4259 22.6307 29.4259H24.814Z" fill="white"/>
<path d="M39.4906 29.4259C39.7588 29.4259 39.9757 29.2086 39.9757 28.9408V26.2106C39.9757 25.9427 39.7588 25.7254 39.4906 25.7254H37.3073C37.0391 25.7254 36.8221 25.9427 36.8221 26.2106V28.9408C36.8221 29.2086 37.039 29.4259 37.3073 29.4259H39.4906Z" fill="white"/>
<path d="M35.4878 20.9891C35.756 20.9891 35.973 20.7718 35.973 20.5039V18.0243C35.973 18.0123 35.9726 18.0004 35.9717 17.9888C35.9635 17.8811 35.7223 15.3559 31 15.3559C26.2776 15.3559 26.0362 17.8811 26.0282 17.9888C26.0276 18.0003 26.027 18.0123 26.027 18.0243V20.5039C26.027 20.7718 26.244 20.9891 26.5121 20.9891C26.7804 20.9891 26.9973 20.7718 26.9973 20.5039V18.0512C27.0199 17.915 27.3732 16.3262 31.0001 16.3262C34.649 16.3262 34.9797 17.9022 35.0027 18.0506V20.5039C35.0027 20.7717 35.2196 20.9891 35.4878 20.9891Z" fill="white"/>
</g>
<g clip-path="url(#clip1_258_7)">
<g filter="url(#filter2_d_258_7)">
<path d="M33.4787 28.4754L32.5418 29.4178L33.4787 30.3601L32.2295 31.6166L36.706 36.119C37.3306 36.7472 38.2675 36.7472 38.8922 36.119C39.5168 35.4907 39.5168 34.5484 38.8922 33.9201L33.4787 28.4754ZM37.5388 35.5954C37.1224 35.5954 36.706 35.2813 36.706 34.7578C36.706 34.339 37.0183 33.9201 37.5388 33.9201C38.0593 33.9201 38.3716 34.2343 38.3716 34.7578C38.3716 35.2813 38.0593 35.5954 37.5388 35.5954Z" fill="#9C55A3"/>
</g>
<g filter="url(#filter3_d_258_7)">
<path d="M26.2664 28.2295L27.2346 27.584L28.8484 25.7551L29.8166 26.7233L30.7848 25.7551L30.6772 25.6475C30.8924 25.1096 31 24.5717 31 23.9262C31 21.5594 29.0635 19.6229 26.6967 19.6229C26.0512 19.6229 25.5133 19.7305 24.9754 19.9457L28.0953 23.0655L25.8361 25.3248L22.7162 22.2049C22.501 22.7428 22.3934 23.2807 22.3934 23.9262C22.3934 26.1854 24.1147 27.9067 26.2664 28.2295Z" fill="#9C55A3"/>
</g>
<path d="M25.836 26.0164L22.8852 23.0656C22.8852 23.0656 22.7623 24.7869 23.7459 26.3852C24.7295 27.9836 25.959 27.9836 25.959 27.9836L28.6639 25.2787L29.8934 26.3852L30.5082 25.7705L30.1393 25.4016C30.3852 24.9098 30.9262 23.7787 30.1393 22.2049C29.3524 20.6311 26.6557 20.0328 25.5901 20.1148L28.7869 23.0656L25.836 26.0164Z" fill="black" fill-opacity="0.42"/>
<g filter="url(#filter4_d_258_7)">
<path d="M30.7317 31.2982L31.5365 30.5908L30.7317 29.7949L35.8286 24.7543L36.9016 24.4006L37.8853 22.4551L37.2593 21.8361L35.2027 22.7204L34.7556 23.7816L29.7481 28.8221L28.9434 28.0263L28.228 28.8221C28.228 28.8221 28.9434 29.3527 28.1386 30.1486C27.6915 30.5908 26.9762 30.0602 25.6349 31.3867C25.1878 31.8288 23.7571 33.2437 23.7571 33.2437C23.7571 33.2437 23.2206 34.128 24.2936 35.1892C25.3666 36.2504 26.2608 35.7198 26.2608 35.7198C26.2608 35.7198 27.6915 34.3049 28.1386 33.8627C29.3905 32.6247 28.9434 31.8288 29.301 31.4751C30.1058 30.6792 30.7317 31.2982 30.7317 31.2982ZM27.9598 30.9445L28.5857 31.5635L25.1878 34.9239L24.5619 34.3049L27.9598 30.9445Z" fill="#9C55A3"/>
</g>
<rect x="34.5023" y="30.6885" width="3.93443" height="1.47541" rx="0.737705" transform="rotate(45 34.5023 30.6885)" fill="black" fill-opacity="0.4"/>
<path d="M35.0574 23.9262L30.1393 28.8442L30.7541 29.459L35.7951 24.418L36.7787 24.0492L37.5164 22.6967L37.0246 22.2049L35.4262 22.9426L35.0574 23.9262Z" fill="#030303" fill-opacity="0.42"/>
<rect x="28.5439" y="28.7707" width="0.576025" height="3.25066" rx="0.288013" transform="rotate(-44.98 28.5439 28.7707)" fill="#030303" fill-opacity="0.4"/>
<rect x="27.9142" y="32.6558" width="0.576025" height="3.25066" rx="0.288013" transform="rotate(45.6398 27.9142 32.6558)" fill="#030303" fill-opacity="0.4"/>
<rect x="26.1929" y="31.1803" width="0.576025" height="3.25066" rx="0.288013" transform="rotate(45.6398 26.1929 31.1803)" fill="#030303" fill-opacity="0.4"/>
</g>
</g>
<defs>
<filter id="filter0_d_258_7" x="0" y="0" width="62" height="62" filterUnits="userSpaceOnUse" color-interpolation-filters="sRGB">
<feFlood flood-opacity="0" result="BackgroundImageFix"/>
<feColorMatrix in="SourceAlpha" type="matrix" values="0 0 0 0 0 0 0 0 0 0 0 0 0 0 0 0 0 0 127 0" result="hardAlpha"/>
<feOffset dy="4"/>
<feGaussianBlur stdDeviation="2"/>
<feComposite in2="hardAlpha" operator="out"/>
<feColorMatrix type="matrix" values="0 0 0 0 0 0 0 0 0 0 0 0 0 0 0 0 0 0 0.25 0"/>
<feBlend mode="normal" in2="BackgroundImageFix" result="effect1_dropShadow_258_7"/>
<feBlend mode="normal" in="SourceGraphic" in2="effect1_dropShadow_258_7" result="shape"/>
</filter>
<filter id="filter1_d_258_7" x="16" y="15.3559" width="30" height="24.2883" filterUnits="userSpaceOnUse" color-interpolation-filters="sRGB">
<feFlood flood-opacity="0" result="BackgroundImageFix"/>
<feColorMatrix in="SourceAlpha" type="matrix" values="0 0 0 0 0 0 0 0 0 0 0 0 0 0 0 0 0 0 127 0" result="hardAlpha"/>
<feOffset dy="1"/>
<feComposite in2="hardAlpha" operator="out"/>
<feColorMatrix type="matrix" values="0 0 0 0 0 0 0 0 0 0 0 0 0 0 0 0 0 0 0.12 0"/>
<feBlend mode="normal" in2="BackgroundImageFix" result="effect1_dropShadow_258_7"/>
<feBlend mode="normal" in="SourceGraphic" in2="effect1_dropShadow_258_7" result="shape"/>
</filter>
<filter id="filter2_d_258_7" x="32.2295" y="28.4754" width="7.13116" height="10.1147" filterUnits="userSpaceOnUse" color-interpolation-filters="sRGB">
<feFlood flood-opacity="0" result="BackgroundImageFix"/>
<feColorMatrix in="SourceAlpha" type="matrix" values="0 0 0 0 0 0 0 0 0 0 0 0 0 0 0 0 0 0 127 0" result="hardAlpha"/>
<feOffset dy="2"/>
<feComposite in2="hardAlpha" operator="out"/>
<feColorMatrix type="matrix" values="0 0 0 0 0 0 0 0 0 0 0 0 0 0 0 0 0 0 0.25 0"/>
<feBlend mode="normal" in2="BackgroundImageFix" result="effect1_dropShadow_258_7"/>
<feBlend mode="normal" in="SourceGraphic" in2="effect1_dropShadow_258_7" result="shape"/>
</filter>
<filter id="filter3_d_258_7" x="22.3934" y="19.6229" width="8.60657" height="12.6066" filterUnits="userSpaceOnUse" color-interpolation-filters="sRGB">
<feFlood flood-opacity="0" result="BackgroundImageFix"/>
<feColorMatrix in="SourceAlpha" type="matrix" values="0 0 0 0 0 0 0 0 0 0 0 0 0 0 0 0 0 0 127 0" result="hardAlpha"/>
<feOffset dy="4"/>
<feComposite in2="hardAlpha" operator="out"/>
<feColorMatrix type="matrix" values="0 0 0 0 0 0 0 0 0 0 0 0 0 0 0 0 0 0 0.05 0"/>
<feBlend mode="normal" in2="BackgroundImageFix" result="effect1_dropShadow_258_7"/>
<feBlend mode="normal" in="SourceGraphic" in2="effect1_dropShadow_258_7" result="shape"/>
</filter>
<filter id="filter4_d_258_7" x="23.623" y="21.8361" width="14.2623" height="16.0164" filterUnits="userSpaceOnUse" color-interpolation-filters="sRGB">
<feFlood flood-opacity="0" result="BackgroundImageFix"/>
<feColorMatrix in="SourceAlpha" type="matrix" values="0 0 0 0 0 0 0 0 0 0 0 0 0 0 0 0 0 0 127 0" result="hardAlpha"/>
<feOffset dy="2"/>
<feComposite in2="hardAlpha" operator="out"/>
<feColorMatrix type="matrix" values="0 0 0 0 0 0 0 0 0 0 0 0 0 0 0 0 0 0 0.25 0"/>
<feBlend mode="normal" in2="BackgroundImageFix" result="effect1_dropShadow_258_7"/>
<feBlend mode="normal" in="SourceGraphic" in2="effect1_dropShadow_258_7" result="shape"/>
</filter>
<clipPath id="clip0_258_7">
<rect width="48" height="48" fill="white" transform="translate(7 3)"/>
</clipPath>
<clipPath id="clip1_258_7">
<rect width="19.5789" height="19.5789" fill="white" transform="translate(21.6557 18.6393)"/>
</clipPath>
</defs>
</svg>
