<svg width="62" height="62" viewBox="0 0 62 62" fill="none" xmlns="http://www.w3.org/2000/svg">
<g filter="url(#filter0_d_258_4)">
<circle cx="31" cy="27" r="27" fill="white"/>
</g>
<g clip-path="url(#clip0_258_4)">
<path d="M31 51C44.2548 51 55 40.2548 55 27C55 13.7452 44.2548 3 31 3C17.7452 3 7 13.7452 7 27C7 40.2548 17.7452 51 31 51Z" fill="#3B89C4"/>
<path opacity="0.2" d="M19.3684 10.1275C20.5924 9.91147 21.3129 9.19147 21.5284 7.96747C21.7444 9.19147 22.4649 9.91147 23.6884 10.1275C22.4649 10.3439 21.7444 11.0635 21.5284 12.2875C21.3129 11.0635 20.5924 10.3439 19.3684 10.1275Z" fill="white"/>
<mask id="mask0_258_4" style="mask-type:luminance" maskUnits="userSpaceOnUse" x="7" y="8" width="48" height="49">
<path d="M55 32.0233C55 45.278 44.2542 56.0233 31 56.0233C17.7453 56.0233 7 45.278 7 32.0233C7 18.7685 17.7453 8.02325 31 8.02325H55V32.0233Z" fill="white"/>
</mask>
<g mask="url(#mask0_258_4)">
<path opacity="0.1" d="M41.08 43.7832C42.304 43.5672 43.0245 42.8472 43.24 41.6232C43.456 42.8472 44.1765 43.5672 45.4 43.7832C44.1765 43.9997 43.456 44.7192 43.24 45.9432C43.0245 44.7192 42.304 43.9997 41.08 43.7832ZM12.28 38.9832C13.504 38.7672 14.2245 38.0472 14.44 36.8232C14.656 38.0472 15.3765 38.7672 16.6 38.9832C15.3765 39.1997 14.656 39.9192 14.44 41.1432C14.2245 39.9192 13.504 39.1997 12.28 38.9832Z" fill="white"/>
</g>
</g>
<g clip-path="url(#clip1_258_4)">
<g filter="url(#filter1_d_258_4)">
<path d="M44.25 13.7433C37.8333 11 30.5 11 30.5 11C30.5 11 23.1667 11 16.75 13.7433C14 27.4596 16.75 39.347 30.5 43.9191C44.25 39.347 47 27.4596 44.25 13.7433Z" fill="white"/>
</g>
<path d="M30.5 41.9842C19.8777 38.1848 15.7976 29.1339 18.3633 15.0637C24.1411 12.8554 30.434 12.8289 30.5 12.8289C30.5651 12.8289 36.8782 12.8654 42.6367 15.0637C45.2024 29.1339 41.1223 38.1848 30.5 41.9842Z" fill="#9C55A3"/>
<path d="M42.6367 15.0637C36.8782 12.8654 30.5651 12.8289 30.5 12.8289V41.9842C41.1223 38.1848 45.2024 29.1339 42.6367 15.0637Z" fill="#460D4B" fill-opacity="0.68"/>
<path fill-rule="evenodd" clip-rule="evenodd" d="M21.5297 28.4936L26.9299 33.9618C27.5991 34.6395 28.6853 34.6395 29.3563 33.9618L39.4703 23.7203C40.1395 23.0427 40.1395 21.941 39.4703 21.2633C38.7993 20.5839 37.7131 20.5839 37.0439 21.2633L28.1431 30.2746L23.9561 26.0366C23.2869 25.3589 22.1989 25.3589 21.5297 26.0366C20.8605 26.7142 20.8605 27.8159 21.5297 28.4936Z" fill="white"/>
</g>
<defs>
<filter id="filter0_d_258_4" x="0" y="0" width="62" height="62" filterUnits="userSpaceOnUse" color-interpolation-filters="sRGB">
<feFlood flood-opacity="0" result="BackgroundImageFix"/>
<feColorMatrix in="SourceAlpha" type="matrix" values="0 0 0 0 0 0 0 0 0 0 0 0 0 0 0 0 0 0 127 0" result="hardAlpha"/>
<feOffset dy="4"/>
<feGaussianBlur stdDeviation="2"/>
<feComposite in2="hardAlpha" operator="out"/>
<feColorMatrix type="matrix" values="0 0 0 0 0 0 0 0 0 0 0 0 0 0 0 0 0 0 0.25 0"/>
<feBlend mode="normal" in2="BackgroundImageFix" result="effect1_dropShadow_258_4"/>
<feBlend mode="normal" in="SourceGraphic" in2="effect1_dropShadow_258_4" result="shape"/>
</filter>
<filter id="filter1_d_258_4" x="11.7917" y="11" width="37.4166" height="40.9191" filterUnits="userSpaceOnUse" color-interpolation-filters="sRGB">
<feFlood flood-opacity="0" result="BackgroundImageFix"/>
<feColorMatrix in="SourceAlpha" type="matrix" values="0 0 0 0 0 0 0 0 0 0 0 0 0 0 0 0 0 0 127 0" result="hardAlpha"/>
<feOffset dy="4"/>
<feGaussianBlur stdDeviation="2"/>
<feComposite in2="hardAlpha" operator="out"/>
<feColorMatrix type="matrix" values="0 0 0 0 0 0 0 0 0 0 0 0 0 0 0 0 0 0 0.25 0"/>
<feBlend mode="normal" in2="BackgroundImageFix" result="effect1_dropShadow_258_4"/>
<feBlend mode="normal" in="SourceGraphic" in2="effect1_dropShadow_258_4" result="shape"/>
</filter>
<clipPath id="clip0_258_4">
<rect width="48" height="48" fill="white" transform="translate(7 3)"/>
</clipPath>
<clipPath id="clip1_258_4">
<rect width="33" height="37" fill="white" transform="translate(14 11)"/>
</clipPath>
</defs>
</svg>
