<svg width="62" height="62" viewBox="0 0 62 62" fill="none" xmlns="http://www.w3.org/2000/svg">
<g filter="url(#filter0_d_258_11)">
<circle cx="31" cy="27" r="27" fill="white"/>
</g>
<g clip-path="url(#clip0_258_11)">
<path d="M31 51C44.2548 51 55 40.2548 55 27C55 13.7452 44.2548 3 31 3C17.7452 3 7 13.7452 7 27C7 40.2548 17.7452 51 31 51Z" fill="#3B89C4"/>
<path opacity="0.2" d="M19.3683 9.95747C20.5923 9.76405 21.3128 9.11931 21.5283 8.02325C21.7443 9.11931 22.4648 9.76405 23.6883 9.95747C22.4648 10.1513 21.7443 10.7956 21.5283 11.8917C21.3128 10.7956 20.5923 10.1513 19.3683 9.95747Z" fill="white"/>
<mask id="mask0_258_11" style="mask-type:luminance" maskUnits="userSpaceOnUse" x="7" y="8" width="48" height="44">
<path d="M55 29.5645C55 41.4337 44.2542 51.0558 31 51.0558C17.7453 51.0558 7 41.4337 7 29.5645C7 17.6953 17.7453 8.07324 31 8.07324H55V29.5645Z" fill="white"/>
</mask>
<g mask="url(#mask0_258_11)">
<path opacity="0.1" d="M41.08 40.0953C42.304 39.9018 43.0245 39.2571 43.24 38.161C43.456 39.2571 44.1765 39.9018 45.4 40.0953C44.1765 40.2891 43.456 40.9334 43.24 42.0295C43.0245 40.9334 42.304 40.2891 41.08 40.0953ZM12.28 35.797C13.504 35.6036 14.2245 34.9588 14.44 33.8628C14.656 34.9588 15.3765 35.6036 16.6 35.797C15.3765 35.9909 14.656 36.6352 14.44 37.7312C14.2245 36.6352 13.504 35.9909 12.28 35.797Z" fill="white"/>
</g>
<path d="M45.789 25.7472H45.5322C45.221 17.904 38.7449 11.6193 30.8274 11.6193C22.9099 11.6193 16.4339 17.904 16.1226 25.7472H15.932C15.5808 25.7472 15.2439 25.8867 14.9955 26.1351C14.7471 26.3835 14.6075 26.7204 14.6075 27.0717V35.0186C14.6075 35.3699 14.7471 35.7068 14.9955 35.9552C15.2439 36.2036 15.5808 36.3431 15.932 36.3431H17.7135C17.8602 37.6376 18.4779 38.833 19.4491 39.7015C20.4203 40.5699 21.677 41.0508 22.9798 41.0524H27.1004V41.5123C27.1004 41.6684 27.1625 41.8181 27.2729 41.9285C27.3833 42.0389 27.533 42.101 27.6891 42.101H30.8289C30.985 42.101 31.1347 42.0389 31.2451 41.9285C31.3555 41.8181 31.4175 41.6684 31.4175 41.5123V39.4137C31.4175 39.2576 31.3555 39.1079 31.2451 38.9975C31.1347 38.8871 30.985 38.8251 30.8289 38.8251H27.6876C27.5315 38.8251 27.3818 38.8871 27.2714 38.9975C27.161 39.1079 27.099 39.2576 27.099 39.4137V39.8758H22.9783C21.9876 39.8747 21.0303 39.5173 20.2812 38.8689C19.5321 38.2204 19.0412 37.3242 18.8982 36.3438H20.7377C20.9117 36.3438 21.0839 36.3096 21.2446 36.243C21.4053 36.1765 21.5513 36.0789 21.6743 35.9559C21.7973 35.8329 21.8948 35.6869 21.9614 35.5262C22.028 35.3655 22.0622 35.1933 22.0622 35.0193V27.0724C22.0622 26.7211 21.9227 26.3842 21.6743 26.1358C21.4259 25.8875 21.089 25.7479 20.7377 25.7479H20.4434C20.751 20.2866 25.2903 15.9371 30.8274 15.9371C36.3645 15.9371 40.9083 20.2866 41.2114 25.7486H40.9818C40.6306 25.7486 40.2937 25.8882 40.0453 26.1366C39.7969 26.385 39.6574 26.7219 39.6574 27.0731V35.0201C39.6574 35.3714 39.7969 35.7082 40.0453 35.9566C40.2937 36.205 40.6306 36.3446 40.9818 36.3446H45.789C46.1403 36.3446 46.4772 36.205 46.7256 35.9566C46.974 35.7082 47.1135 35.3714 47.1135 35.0201V27.0731C47.1137 26.8991 47.0796 26.7267 47.0131 26.5658C46.9466 26.405 46.8491 26.2588 46.7261 26.1356C46.6031 26.0125 46.457 25.9148 46.2962 25.8481C46.1354 25.7815 45.9631 25.7472 45.789 25.7472ZM28.2763 40.0024H30.2387V40.9244H28.2763V40.0024ZM20.8864 27.0709V35.0179C20.8864 35.0569 20.8709 35.0943 20.8433 35.1219C20.8157 35.1495 20.7782 35.165 20.7392 35.165H15.932C15.893 35.165 15.8556 35.1495 15.828 35.1219C15.8004 35.0943 15.7849 35.0569 15.7849 35.0179V27.0709C15.7849 27.0319 15.8004 26.9945 15.828 26.9669C15.8556 26.9393 15.893 26.9238 15.932 26.9238H20.7392C20.7782 26.9238 20.8157 26.9393 20.8433 26.9669C20.8709 26.9945 20.8864 27.0319 20.8864 27.0709ZM30.8274 14.7583C24.6413 14.7583 19.5692 19.6354 19.2639 25.7464H17.3014C17.6112 18.553 23.5596 12.7959 30.8274 12.7959C38.0952 12.7959 44.0436 18.553 44.3534 25.7464H42.391C42.0826 19.6354 37.0135 14.7583 30.8274 14.7583ZM45.9362 35.0186C45.9362 35.0576 45.9207 35.0951 45.8931 35.1227C45.8655 35.1503 45.828 35.1658 45.789 35.1658H40.9818C40.9428 35.1658 40.9054 35.1503 40.8778 35.1227C40.8502 35.0951 40.8347 35.0576 40.8347 35.0186V27.0717C40.8347 27.0326 40.8502 26.9952 40.8778 26.9676C40.9054 26.94 40.9428 26.9245 40.9818 26.9245H45.789C45.828 26.9245 45.8655 26.94 45.8931 26.9676C45.9207 26.9952 45.9362 27.0326 45.9362 27.0717V35.0186Z" fill="white"/>
</g>
<defs>
<filter id="filter0_d_258_11" x="0" y="0" width="62" height="62" filterUnits="userSpaceOnUse" color-interpolation-filters="sRGB">
<feFlood flood-opacity="0" result="BackgroundImageFix"/>
<feColorMatrix in="SourceAlpha" type="matrix" values="0 0 0 0 0 0 0 0 0 0 0 0 0 0 0 0 0 0 127 0" result="hardAlpha"/>
<feOffset dy="4"/>
<feGaussianBlur stdDeviation="2"/>
<feComposite in2="hardAlpha" operator="out"/>
<feColorMatrix type="matrix" values="0 0 0 0 0 0 0 0 0 0 0 0 0 0 0 0 0 0 0.25 0"/>
<feBlend mode="normal" in2="BackgroundImageFix" result="effect1_dropShadow_258_11"/>
<feBlend mode="normal" in="SourceGraphic" in2="effect1_dropShadow_258_11" result="shape"/>
</filter>
<clipPath id="clip0_258_11">
<rect width="48" height="48" fill="white" transform="translate(7 3)"/>
</clipPath>
</defs>
</svg>
