<svg width="62" height="62" viewBox="0 0 62 62" fill="none" xmlns="http://www.w3.org/2000/svg">
<g filter="url(#filter0_d_258_10)">
<circle cx="31" cy="27" r="27" fill="white"/>
</g>
<g clip-path="url(#clip0_258_10)">
<path d="M31 51C44.2548 51 55 40.2548 55 27C55 13.7452 44.2548 3 31 3C17.7452 3 7 13.7452 7 27C7 40.2548 17.7452 51 31 51Z" fill="#3B89C4"/>
<path opacity="0.2" d="M18.7894 10.1579C20.221 9.94735 21.0637 9.24559 21.3157 8.05261C21.5684 9.24559 22.411 9.94735 23.8421 10.1579C22.411 10.3689 21.5684 11.0702 21.3157 12.2631C21.0637 11.0702 20.221 10.3689 18.7894 10.1579Z" fill="white"/>
<mask id="mask0_258_10" style="mask-type:luminance" maskUnits="userSpaceOnUse" x="7" y="8" width="48" height="43">
<path d="M55 29.5263C55 41.3858 44.2542 51 31 51C17.7453 51 7 41.3858 7 29.5263C7 17.6668 17.7453 8.05261 31 8.05261H55V29.5263Z" fill="white"/>
</mask>
<g mask="url(#mask0_258_10)">
<path opacity="0.1" d="M41.3432 39.9418C42.5881 39.7623 43.3208 39.164 43.54 38.1468C43.7597 39.164 44.4925 39.7623 45.7368 39.9418C44.4925 40.1217 43.7597 40.7197 43.54 41.7368C43.3208 40.7197 42.5881 40.1217 41.3432 39.9418ZM12.0526 35.9529C13.2975 35.7734 14.0302 35.1751 14.2494 34.1579C14.4691 35.1751 15.2018 35.7734 16.4462 35.9529C15.2018 36.1328 14.4691 36.7308 14.2494 37.7479C14.0302 36.7308 13.2975 36.1328 12.0526 35.9529Z" fill="white"/>
</g>
<g filter="url(#filter1_d_258_10)">
<path d="M44.4473 13.9473H16.7103C15.0707 13.9473 13.7369 15.2859 13.7369 16.9316V36.2262C13.7369 37.8719 15.0707 39.2105 16.7103 39.2105H26.2436C26.5346 39.2105 26.7699 38.9743 26.7699 38.6822C26.7699 38.3903 26.5346 38.154 26.2436 38.154H16.7103C15.651 38.154 14.7896 37.2894 14.7896 36.2262V16.9316C14.7896 15.8684 15.651 15.0038 16.7103 15.0038H44.4473C45.5066 15.0038 46.3685 15.8684 46.3685 16.9316V36.2262C46.3685 37.2894 45.5066 38.154 44.4473 38.154C44.1564 38.154 43.9209 38.3903 43.9209 38.6822C43.9209 38.9743 44.1564 39.2105 44.4473 39.2105C46.0869 39.2105 47.4211 37.8719 47.4211 36.2262V16.9316C47.4211 15.2859 46.0869 13.9473 44.4473 13.9473Z" fill="white"/>
</g>
<path d="M25.8271 31.6315H19.3309C19.0317 31.6315 18.7896 32.0081 18.7896 32.4736C18.7896 32.9391 19.0317 33.3157 19.3309 33.3157H25.8271C26.1264 33.3157 26.3685 32.9391 26.3685 32.4736C26.3685 32.0081 26.1264 31.6315 25.8271 31.6315Z" fill="white"/>
<g filter="url(#filter2_d_258_10)">
<path d="M41.0532 33.9555C41.0438 33.9221 41.0232 33.8967 41.0084 33.8669C42.0701 32.6455 42.722 31.0338 42.722 29.2603C42.722 25.454 39.745 22.3684 36.0728 22.3684C32.4006 22.3684 29.4237 25.454 29.4237 29.2603C29.4237 31.0143 30.0611 32.6102 31.1021 33.8267C31.0914 33.8508 31.0744 33.8702 31.067 33.8965L28.9153 41.5433C28.8588 41.7441 28.9213 41.96 29.0746 42.0957C29.2279 42.2313 29.4437 42.2598 29.6256 42.1707L31.8842 41.0586L33.3032 43.1917C33.3996 43.3366 33.5579 43.421 33.7243 43.421C33.7533 43.421 33.7822 43.4184 33.8112 43.4132C34.008 43.378 34.1668 43.2279 34.2183 43.0281L35.9966 36.1482C36.0223 36.1485 36.0471 36.1522 36.0728 36.1522C36.085 36.1522 36.0968 36.1504 36.109 36.1503L37.8875 43.0281C37.9389 43.2274 38.0972 43.3776 38.2935 43.4132C38.323 43.4184 38.3525 43.421 38.3815 43.421C38.5473 43.421 38.7046 43.3377 38.8015 43.1938L40.2251 41.0711L42.4812 42.1717C42.6625 42.2598 42.8778 42.2303 43.0317 42.0946C43.1845 41.959 43.2464 41.7436 43.19 41.5433L41.0532 33.9555ZM36.0728 23.4287C39.1752 23.4287 41.699 26.0447 41.699 29.2603C41.699 32.4759 39.1752 35.0919 36.0728 35.0919C32.9706 35.0919 30.4467 32.4759 30.4467 29.2603C30.4467 26.0447 32.9706 23.4287 36.0728 23.4287ZM33.517 41.6453L32.4791 40.0854C32.3367 39.8715 32.0665 39.7949 31.8387 39.9073L30.2164 40.7061L31.9233 34.6404C32.7866 35.3567 33.826 35.8502 34.9634 36.0486L33.517 41.6453ZM40.2695 39.9207C40.0432 39.812 39.774 39.8855 39.6317 40.0978L38.5903 41.6509L37.1432 36.0549C38.2811 35.8635 39.3214 35.3766 40.1879 34.6671L41.8898 40.7113L40.2695 39.9207Z" fill="white"/>
</g>
<path d="M26.3685 19.9623C26.3685 19.4308 25.8838 18.9999 25.2858 18.9999H19.8723C19.2743 18.9999 18.7896 19.4308 18.7896 19.9623V24.7744C18.7896 25.3059 19.2743 25.7368 19.8723 25.7368H25.2858C25.8838 25.7368 26.3685 25.3059 26.3685 24.7744V19.9623ZM25.2858 24.7744H19.8723V19.9623H25.2858V24.7744Z" fill="white"/>
<path d="M36.0527 32.4737C37.6805 32.4737 39.0001 30.9656 39.0001 29.1052C39.0001 27.2449 37.6805 25.7368 36.0527 25.7368C34.4249 25.7368 33.1053 27.2449 33.1053 29.1052C33.1053 30.9656 34.4249 32.4737 36.0527 32.4737ZM36.0527 26.8596C37.1362 26.8596 38.0176 27.8669 38.0176 29.1052C38.0176 30.3435 37.1362 31.3509 36.0527 31.3509C34.9693 31.3509 34.0878 30.3435 34.0878 29.1052C34.0878 27.8669 34.9693 26.8596 36.0527 26.8596Z" fill="white"/>
<path d="M37.5275 16.743H38.5308L39.5905 19.3283H39.6356L40.6953 16.743H41.6986V20.5909H40.9095V18.0864H40.8775L39.8817 20.5722H39.3444L38.3485 18.077H38.3166V20.5909H37.5275V16.743Z" fill="white"/>
<path d="M34.2878 20.5909V16.743H36.8807V17.4137H35.1014V18.3306H36.7473V19.0014H35.1014V19.9202H36.8882V20.5909H34.2878Z" fill="white"/>
<path d="M33.6851 18.667C33.6851 19.0866 33.6056 19.4436 33.4465 19.7379C33.2887 20.0323 33.0732 20.2571 32.8002 20.4124C32.5284 20.5665 32.2227 20.6436 31.8833 20.6436C31.5413 20.6436 31.2344 20.5659 30.9626 20.4106C30.6908 20.2552 30.476 20.0304 30.3182 19.736C30.1603 19.4417 30.0814 19.0853 30.0814 18.667C30.0814 18.2473 30.1603 17.8904 30.3182 17.596C30.476 17.3016 30.6908 17.0774 30.9626 16.9234C31.2344 16.768 31.5413 16.6904 31.8833 16.6904C32.2227 16.6904 32.5284 16.768 32.8002 16.9234C33.0732 17.0774 33.2887 17.3016 33.4465 17.596C33.6056 17.8904 33.6851 18.2473 33.6851 18.667ZM32.8603 18.667C32.8603 18.3951 32.8196 18.1659 32.7382 17.9793C32.658 17.7927 32.5446 17.6511 32.3981 17.5547C32.2515 17.4582 32.0799 17.41 31.8833 17.41C31.6866 17.41 31.515 17.4582 31.3685 17.5547C31.2219 17.6511 31.1079 17.7927 31.0265 17.9793C30.9463 18.1659 30.9063 18.3951 30.9063 18.667C30.9063 18.9388 30.9463 19.168 31.0265 19.3546C31.1079 19.5413 31.2219 19.6828 31.3685 19.7793C31.515 19.8757 31.6866 19.9239 31.8833 19.9239C32.0799 19.9239 32.2515 19.8757 32.3981 19.7793C32.5446 19.6828 32.658 19.5413 32.7382 19.3546C32.8196 19.168 32.8603 18.9388 32.8603 18.667Z" fill="white"/>
</g>
<defs>
<filter id="filter0_d_258_10" x="0" y="0" width="62" height="62" filterUnits="userSpaceOnUse" color-interpolation-filters="sRGB">
<feFlood flood-opacity="0" result="BackgroundImageFix"/>
<feColorMatrix in="SourceAlpha" type="matrix" values="0 0 0 0 0 0 0 0 0 0 0 0 0 0 0 0 0 0 127 0" result="hardAlpha"/>
<feOffset dy="4"/>
<feGaussianBlur stdDeviation="2"/>
<feComposite in2="hardAlpha" operator="out"/>
<feColorMatrix type="matrix" values="0 0 0 0 0 0 0 0 0 0 0 0 0 0 0 0 0 0 0.25 0"/>
<feBlend mode="normal" in2="BackgroundImageFix" result="effect1_dropShadow_258_10"/>
<feBlend mode="normal" in="SourceGraphic" in2="effect1_dropShadow_258_10" result="shape"/>
</filter>
<filter id="filter1_d_258_10" x="13.7369" y="13.9473" width="34.6842" height="25.2632" filterUnits="userSpaceOnUse" color-interpolation-filters="sRGB">
<feFlood flood-opacity="0" result="BackgroundImageFix"/>
<feColorMatrix in="SourceAlpha" type="matrix" values="0 0 0 0 0 0 0 0 0 0 0 0 0 0 0 0 0 0 127 0" result="hardAlpha"/>
<feOffset dx="1"/>
<feComposite in2="hardAlpha" operator="out"/>
<feColorMatrix type="matrix" values="0 0 0 0 0 0 0 0 0 0 0 0 0 0 0 0 0 0 0.25 0"/>
<feBlend mode="normal" in2="BackgroundImageFix" result="effect1_dropShadow_258_10"/>
<feBlend mode="normal" in="SourceGraphic" in2="effect1_dropShadow_258_10" result="shape"/>
</filter>
<filter id="filter2_d_258_10" x="28.8948" y="22.3684" width="14.3158" height="23.0526" filterUnits="userSpaceOnUse" color-interpolation-filters="sRGB">
<feFlood flood-opacity="0" result="BackgroundImageFix"/>
<feColorMatrix in="SourceAlpha" type="matrix" values="0 0 0 0 0 0 0 0 0 0 0 0 0 0 0 0 0 0 127 0" result="hardAlpha"/>
<feOffset dy="2"/>
<feComposite in2="hardAlpha" operator="out"/>
<feColorMatrix type="matrix" values="0 0 0 0 0 0 0 0 0 0 0 0 0 0 0 0 0 0 0.25 0"/>
<feBlend mode="normal" in2="BackgroundImageFix" result="effect1_dropShadow_258_10"/>
<feBlend mode="normal" in="SourceGraphic" in2="effect1_dropShadow_258_10" result="shape"/>
</filter>
<clipPath id="clip0_258_10">
<rect width="48" height="48" fill="white" transform="translate(7 3)"/>
</clipPath>
</defs>
</svg>
