<svg width="62" height="62" viewBox="0 0 62 62" fill="none" xmlns="http://www.w3.org/2000/svg">
<g filter="url(#filter0_d_258_8)">
<circle cx="31" cy="27" r="27" fill="white"/>
</g>
<g clip-path="url(#clip0_258_8)">
<g clip-path="url(#clip1_258_8)">
<path d="M31 51C44.2548 51 55 40.2548 55 27C55 13.7452 44.2548 3 31 3C17.7452 3 7 13.7452 7 27C7 40.2548 17.7452 51 31 51Z" fill="#3B89C4"/>
<path opacity="0.2" d="M19.3683 9.95747C20.5923 9.76405 21.3128 9.11931 21.5283 8.02325C21.7443 9.11931 22.4648 9.76405 23.6883 9.95747C22.4648 10.1513 21.7443 10.7956 21.5283 11.8917C21.3128 10.7956 20.5923 10.1513 19.3683 9.95747Z" fill="white"/>
<mask id="mask0_258_8" style="mask-type:luminance" maskUnits="userSpaceOnUse" x="6" y="2" width="50" height="49">
<path d="M54.5012 28.6409C53.682 40.8437 43.0221 50.5 31 50.5C18.9949 50.5 8.31163 39.9151 7.21855 28.6262C6.67531 23.0158 8.85063 16.6588 13.0659 11.7345C17.2737 6.81892 23.4863 3.3635 30.991 3.49994C46.0273 3.77329 55.3212 16.427 54.5012 28.6409Z" fill="white" stroke="white"/>
</mask>
<g mask="url(#mask0_258_8)">
<path opacity="0.1" d="M41.08 40.0953C42.304 39.9018 43.0244 39.2571 43.24 38.161C43.456 39.2571 44.1764 39.9018 45.4 40.0953C44.1764 40.2891 43.456 40.9334 43.24 42.0295C43.0244 40.9334 42.304 40.2891 41.08 40.0953ZM12.28 35.797C13.504 35.6036 14.2244 34.9588 14.44 33.8628C14.656 34.9588 15.3764 35.6036 16.6 35.797C15.3764 35.9909 14.656 36.6352 14.44 37.7312C14.2244 36.6352 13.504 35.9909 12.28 35.797Z" fill="white"/>
</g>
<g filter="url(#filter1_d_258_8)">
<path d="M41.9486 20.2278C41.9486 26.5112 30.5813 45.4186 30.5813 45.4186C30.5813 45.4186 19.2141 26.5112 19.2141 20.2278C19.2141 13.9443 24.2979 8.86047 30.5813 8.86047C36.8648 8.86047 41.9486 13.9443 41.9486 20.2278Z" fill="#FBFBFB"/>
</g>
<path d="M37.4068 21.8551C38.2986 18.0786 35.96 14.2942 32.1835 13.4025C28.407 12.5107 24.6226 14.8493 23.7309 18.6258C22.8391 22.4023 25.1777 26.1867 28.9542 27.0784C32.7307 27.9702 36.5151 25.6316 37.4068 21.8551Z" fill="black" fill-opacity="0.38"/>
<g clip-path="url(#clip2_258_8)">
<path d="M30.4418 30.0698C35.8362 30.0698 40.2093 25.6968 40.2093 20.3024C40.2093 14.9079 35.8362 10.5349 30.4418 10.5349C25.0474 10.5349 20.6744 14.9079 20.6744 20.3024C20.6744 25.6968 25.0474 30.0698 30.4418 30.0698Z" fill="#008BFF" fill-opacity="0.12"/>
<path d="M29.7141 14.708C29.7141 14.708 28.5841 15.0222 28.0769 14.1623C27.5698 13.3024 26.9855 14.708 26.9855 14.708C26.9855 14.708 27.6084 15.2703 27.5312 15.7994C27.4541 16.3286 28.1541 16.6924 27.5312 17.4366C26.9084 18.1808 25.5743 18.3296 25.894 19.0738C26.2138 19.818 26.1035 19.9668 25.3483 20.1652C24.5931 20.3637 26.1035 22.0836 26.4398 21.8024C26.776 21.5213 26.7319 20.9921 26.9855 21.2567C27.239 21.5213 26.2027 22.249 28.6227 26.714C28.6227 26.714 29.0967 27.789 29.7141 26.714C30.3315 25.6391 29.8739 24.6799 30.2598 23.9853C30.6457 23.2908 34.2729 21.8686 34.08 21.2566C33.887 20.6447 32.9168 19.2556 33.5342 19.0737C34.1516 18.8917 34.2068 19.5036 34.6257 19.6194C35.0447 19.7351 35.3479 19.4375 34.6257 20.7108C34.6257 20.7108 35.5628 21.6038 35.7171 21.2565C35.8715 20.9092 35.9431 20.1485 36.2629 19.6193C36.5826 19.0901 36.9519 18.5444 37.3543 18.5279C37.7568 18.5114 37.3984 16.9734 36.2629 17.4364C35.1274 17.8995 34.5374 18.9248 34.0799 18.5279C33.6224 18.131 33.5617 19.1398 32.9884 19.0736C32.4151 19.0075 29.4274 18.6602 30.2597 17.4364C30.2597 17.4364 28.8981 16.6757 29.1683 16.345C29.4384 16.0142 29.7581 16.345 29.714 15.7993C29.67 15.2537 30.5686 14.7577 29.7141 14.708Z" fill="#E6F3FF"/>
<path d="M29.7088 14.6576L29.717 14.6581C29.8259 14.6644 29.9103 14.678 29.9737 14.6994C30.0368 14.7208 30.0847 14.7519 30.1115 14.7973C30.1387 14.8436 30.1385 14.8947 30.1265 14.9433C30.1147 14.9911 30.0902 15.0417 30.0615 15.0923C30.038 15.1339 30.0101 15.1781 29.9816 15.2233C29.9752 15.2334 29.9688 15.2437 29.9624 15.2539C29.927 15.3103 29.8913 15.3686 29.8599 15.4287L29.7088 14.6576ZM29.7088 14.6576L29.7008 14.6598L29.7088 14.6576ZM28.6227 26.714C26.7743 23.3036 26.9423 22.0735 27.0118 21.5648C27.0333 21.4075 27.0454 21.3192 26.9855 21.2567C26.8409 21.1058 26.7931 21.213 26.7164 21.3852C26.6586 21.515 26.5843 21.6816 26.4398 21.8024L26.4718 21.8408C26.4718 21.8408 26.4718 21.8408 26.4718 21.8408C26.4112 21.8915 26.3304 21.8915 26.2517 21.869C26.172 21.8463 26.0831 21.7979 25.9924 21.734C25.8104 21.6057 25.6102 21.4071 25.4452 21.1943C25.281 20.9824 25.1472 20.7506 25.1041 20.5551C25.0826 20.4571 25.0825 20.3623 25.1192 20.2831C25.157 20.2016 25.2297 20.1447 25.3356 20.1169C25.524 20.0674 25.6686 20.0218 25.7755 19.9706C25.8823 19.9193 25.9462 19.865 25.9801 19.8008C26.0138 19.737 26.0224 19.6552 26.0007 19.5396C25.9789 19.4235 25.9277 19.2788 25.8481 19.0935C25.8055 18.9943 25.7892 18.9022 25.7972 18.8157C25.8053 18.7291 25.8372 18.6513 25.8862 18.5803C25.9827 18.4404 26.1475 18.3241 26.3334 18.2124C26.4122 18.165 26.4963 18.1176 26.5822 18.0692C26.5983 18.0602 26.6144 18.0511 26.6306 18.0419C26.7335 17.9838 26.8383 17.9238 26.9411 17.8594C27.1469 17.7303 27.342 17.5847 27.4929 17.4045C27.6443 17.2236 27.7123 17.0695 27.7338 16.9335C27.7552 16.7975 27.7309 16.6745 27.6887 16.5539C27.6675 16.4933 27.642 16.434 27.6157 16.3738C27.6133 16.3681 27.6108 16.3624 27.6083 16.3567C27.5845 16.3024 27.5604 16.2471 27.5395 16.1914C27.4931 16.0677 27.4607 15.9365 27.4818 15.7922C27.5174 15.5477 27.391 15.2887 27.2465 15.0841C27.1751 14.9831 27.1012 14.8981 27.0452 14.8383C27.0172 14.8085 26.9937 14.785 26.9773 14.769C26.9691 14.7611 26.9627 14.755 26.9583 14.751L26.9535 14.7464L26.9523 14.7454L26.952 14.7451L26.952 14.7451L26.952 14.7451L26.952 14.7451L26.9258 14.7214L26.9393 14.6888L26.9855 14.708L26.9394 14.6888L26.9394 14.6887L26.9395 14.6884L26.9399 14.6876L26.9412 14.6844L26.9464 14.6724C26.9509 14.662 26.9576 14.647 26.9662 14.6283C26.9835 14.5909 27.0087 14.5385 27.0406 14.4784C27.104 14.3586 27.1949 14.2061 27.3031 14.0801C27.4095 13.9562 27.5414 13.8476 27.6882 13.8349C27.842 13.8217 27.9888 13.9143 28.12 14.1369C28.3624 14.5479 28.7533 14.6796 29.0899 14.7078C29.2582 14.7219 29.4114 14.7098 29.5227 14.6941C29.5782 14.6863 29.6232 14.6776 29.654 14.6709C29.6694 14.6676 29.6813 14.6648 29.6892 14.6628L29.6981 14.6605L29.7002 14.66L29.7007 14.6598L29.7007 14.6598L28.5786 26.7379L28.583 26.7473C28.5868 26.7554 28.5925 26.767 28.5999 26.7812C28.6146 26.8095 28.6363 26.8487 28.6643 26.8923C28.7199 26.9785 28.8027 27.0857 28.9086 27.1584C29.0159 27.2321 29.1503 27.2721 29.301 27.2142C29.4481 27.1578 29.6008 27.0116 29.7575 26.7389C30.0725 26.1904 30.1127 25.6715 30.1238 25.2083C30.1251 25.1533 30.126 25.0993 30.1269 25.0463C30.1298 24.8747 30.1325 24.7128 30.1483 24.5587C30.169 24.358 30.2116 24.1752 30.3035 24.0096C30.3466 23.932 30.4387 23.8389 30.5735 23.7331C30.7071 23.6283 30.8779 23.5145 31.0728 23.3946C31.3846 23.2029 31.7551 22.9976 32.1294 22.7902C32.2234 22.7381 32.3177 22.6859 32.4113 22.6337C32.8764 22.3744 33.3263 22.1162 33.648 21.884C33.8086 21.7681 33.94 21.6567 34.0256 21.5529C34.1092 21.4515 34.1599 21.3439 34.1276 21.2416C34.078 21.0842 33.9793 20.879 33.8713 20.6608C33.8566 20.6312 33.8418 20.6013 33.8268 20.5712C33.7308 20.3778 33.6306 20.1761 33.5492 19.9844C33.4547 19.7617 33.3886 19.559 33.3818 19.4033C33.3785 19.326 33.3901 19.2648 33.416 19.2193C33.441 19.1752 33.4821 19.1411 33.5484 19.1216C33.6948 19.0785 33.8032 19.0836 33.8902 19.1132C33.9781 19.1432 34.0494 19.2 34.1189 19.2701C34.15 19.3015 34.18 19.3348 34.2109 19.3692C34.2146 19.3732 34.2182 19.3773 34.2219 19.3813C34.2565 19.4196 34.2923 19.459 34.3306 19.4957C34.4074 19.5695 34.4965 19.6355 34.6124 19.6676C34.6991 19.6915 34.7826 19.6989 34.8491 19.7047C34.8669 19.7063 34.8835 19.7077 34.8986 19.7094C34.9363 19.7135 34.9627 19.7184 34.9811 19.726C34.9974 19.7328 35.0035 19.74 35.0069 19.7488C35.0114 19.7604 35.0139 19.783 35.0047 19.8258C34.9955 19.8679 34.9762 19.9242 34.9434 19.9994C34.878 20.1497 34.7627 20.3678 34.5822 20.6861L34.563 20.7201L34.5912 20.747L34.6257 20.7108C35.2068 19.6861 35.124 19.6788 34.8511 19.6547C34.7849 19.6488 34.7075 19.642 34.6257 19.6194C34.4631 19.5744 34.3552 19.4547 34.2481 19.3357C34.0792 19.1481 33.9119 18.9624 33.5342 19.0737C33.0919 19.204 33.4643 19.9538 33.7821 20.5936C33.908 20.847 34.0252 21.0831 34.08 21.2566C34.1861 21.5933 33.1361 22.1751 32.1057 22.7462C31.263 23.2131 30.4334 23.6729 30.2598 23.9853C30.0895 24.2919 30.0835 24.6501 30.0768 25.047C30.0684 25.5492 30.059 26.1136 29.7141 26.714C29.0967 27.789 28.6227 26.714 28.6227 26.714ZM28.6227 26.714L28.5769 26.7343L28.577 26.7343L28.5771 26.7346L28.5774 26.7353L28.5778 26.7362C28.5781 26.7368 28.5784 26.7373 28.5787 26.7379L28.6227 26.714Z" stroke="black" stroke-opacity="0.22" stroke-width="0.1"/>
<path d="M30.2599 17.4368C30.2599 17.4368 28.8983 16.676 29.1684 16.3453C29.4386 16.0145 29.7582 16.3453 29.7141 15.7996C29.6701 15.2539 30.5686 14.7577 29.7141 14.7082C29.7141 14.7082 28.5841 15.0224 28.0769 14.1625C27.5698 13.3025 26.9855 14.7081 26.9855 14.7081C26.9855 14.7081 27.6084 15.2705 27.5312 15.7996C27.4541 16.3288 28.1541 16.6926 27.5312 17.4368C27.3084 17.703 26.9946 17.8929 26.6981 18.0613H30.165C30.0807 17.8839 30.0962 17.6774 30.2599 17.4368Z" fill="#E09112"/>
<path d="M28.6226 26.7142C28.6226 26.7142 29.0967 27.7891 29.7141 26.7142C30.3315 25.6392 29.8739 24.6801 30.2598 23.9855C30.4652 23.6159 31.5888 23.04 32.5659 22.4899H27.0002C27.091 23.2716 27.4532 24.5565 28.6226 26.7142Z" fill="#66B31B"/>
</g>
<ellipse cx="30.5814" cy="48.0698" rx="3.2093" ry="0.418605" fill="#343434"/>
</g>
</g>
<defs>
<filter id="filter0_d_258_8" x="0" y="0" width="62" height="62" filterUnits="userSpaceOnUse" color-interpolation-filters="sRGB">
<feFlood flood-opacity="0" result="BackgroundImageFix"/>
<feColorMatrix in="SourceAlpha" type="matrix" values="0 0 0 0 0 0 0 0 0 0 0 0 0 0 0 0 0 0 127 0" result="hardAlpha"/>
<feOffset dy="4"/>
<feGaussianBlur stdDeviation="2"/>
<feComposite in2="hardAlpha" operator="out"/>
<feColorMatrix type="matrix" values="0 0 0 0 0 0 0 0 0 0 0 0 0 0 0 0 0 0 0.25 0"/>
<feBlend mode="normal" in2="BackgroundImageFix" result="effect1_dropShadow_258_8"/>
<feBlend mode="normal" in="SourceGraphic" in2="effect1_dropShadow_258_8" result="shape"/>
</filter>
<filter id="filter1_d_258_8" x="18.2141" y="8.86047" width="24.7346" height="39.5582" filterUnits="userSpaceOnUse" color-interpolation-filters="sRGB">
<feFlood flood-opacity="0" result="BackgroundImageFix"/>
<feColorMatrix in="SourceAlpha" type="matrix" values="0 0 0 0 0 0 0 0 0 0 0 0 0 0 0 0 0 0 127 0" result="hardAlpha"/>
<feOffset dy="2"/>
<feGaussianBlur stdDeviation="0.5"/>
<feComposite in2="hardAlpha" operator="out"/>
<feColorMatrix type="matrix" values="0 0 0 0 0 0 0 0 0 0 0 0 0 0 0 0 0 0 0.25 0"/>
<feBlend mode="normal" in2="BackgroundImageFix" result="effect1_dropShadow_258_8"/>
<feBlend mode="normal" in="SourceGraphic" in2="effect1_dropShadow_258_8" result="shape"/>
</filter>
<clipPath id="clip0_258_8">
<rect x="7" y="3" width="48" height="48" rx="24" fill="white"/>
</clipPath>
<clipPath id="clip1_258_8">
<rect width="48" height="48" fill="white" transform="translate(7 3)"/>
</clipPath>
<clipPath id="clip2_258_8">
<rect width="19.5349" height="19.5349" fill="white" transform="translate(20.6744 10.5349)"/>
</clipPath>
</defs>
</svg>
