<svg width="62" height="62" viewBox="0 0 62 62" fill="none" xmlns="http://www.w3.org/2000/svg">
<g filter="url(#filter0_d_258_6)">
<circle cx="31" cy="27" r="27" fill="white"/>
</g>
<g clip-path="url(#clip0_258_6)">
<path d="M31 51C44.2548 51 55 40.2548 55 27C55 13.7452 44.2548 3 31 3C17.7452 3 7 13.7452 7 27C7 40.2548 17.7452 51 31 51Z" fill="#3B89C4"/>
<path opacity="0.2" d="M19.3683 9.95747C20.5923 9.76405 21.3128 9.11931 21.5283 8.02325C21.7443 9.11931 22.4648 9.76405 23.6883 9.95747C22.4648 10.1513 21.7443 10.7956 21.5283 11.8917C21.3128 10.7956 20.5923 10.1513 19.3683 9.95747Z" fill="white"/>
<mask id="mask0_258_6" style="mask-type:luminance" maskUnits="userSpaceOnUse" x="6" y="2" width="50" height="49">
<path d="M54.5012 28.6409C53.682 40.8437 43.0221 50.5 31 50.5C18.9949 50.5 8.31163 39.9151 7.21855 28.6262C6.67531 23.0158 8.85063 16.6588 13.0659 11.7345C17.2737 6.81892 23.4863 3.3635 30.991 3.49994C46.0273 3.77329 55.3212 16.427 54.5012 28.6409Z" fill="white" stroke="white"/>
</mask>
<g mask="url(#mask0_258_6)">
<path opacity="0.1" d="M41.08 40.0953C42.304 39.9018 43.0244 39.2571 43.24 38.161C43.456 39.2571 44.1764 39.9018 45.4 40.0953C44.1764 40.2891 43.456 40.9334 43.24 42.0295C43.0244 40.9334 42.304 40.2891 41.08 40.0953ZM12.28 35.797C13.504 35.6036 14.2244 34.9588 14.44 33.8628C14.656 34.9588 15.3764 35.6036 16.6 35.797C15.3764 35.9909 14.656 36.6352 14.44 37.7312C14.2244 36.6352 13.504 35.9909 12.28 35.797Z" fill="white"/>
</g>
<path d="M35.1617 12.5253L30.9089 16.8728L30.4538 17.338C29.909 17.8949 29.8475 18.766 30.3085 19.3944L30.9089 20.2127L35.1605 24.5589C35.3315 24.7338 35.5411 24.8659 35.7724 24.9447L35.8426 24.9686C37.1051 25.3988 38.2729 24.1145 37.7299 22.8931C37.6434 22.6987 37.5185 22.5254 37.362 22.3815C36.6932 21.7663 34.8542 20.0536 35.1095 20.0536H41.4605C42.3362 20.0536 43.044 20.7657 43.044 21.644V26.5368C43.044 26.8699 43.1573 27.193 43.3652 27.4528C43.9299 28.1583 44.9911 28.1859 45.5915 27.5108L45.6205 27.4782C45.8649 27.2033 46 26.8479 46 26.4796V21.9621C46 21.9621 46 20.6898 45.8444 20.0536C45.6888 19.4174 45.6888 18.9403 45.0665 18.1451C44.4442 17.3499 43.3552 16.8728 42.5773 16.8728H35.1095C34.8672 16.8728 36.6056 15.2337 37.3872 14.508C37.6245 14.2876 37.7827 13.9949 37.8349 13.6747C38.0099 12.6017 36.9819 11.7286 35.9555 12.0783L35.7708 12.1413C35.5406 12.2197 35.3319 12.3513 35.1617 12.5253Z" fill="white"/>
<path d="M26.8383 40.5075L31.0911 36.4318L31.5462 35.9957C32.091 35.4735 32.1525 34.6569 31.6915 34.0678L31.0911 33.3006L26.8395 29.226C26.6685 29.0621 26.4589 28.9382 26.2276 28.8643L26.1574 28.8419C24.8949 28.4386 23.7271 29.6427 24.2701 30.7877C24.3566 30.97 24.4815 31.1324 24.638 31.2673C25.3068 31.8441 27.1458 33.4497 26.8905 33.4497H20.5395C19.6638 33.4497 18.956 32.7822 18.956 31.9587V27.3717C18.956 27.0595 18.8427 26.7565 18.6348 26.513C18.0701 25.8516 17.0089 25.8257 16.4085 26.4587L16.3795 26.4892C16.1351 26.7469 16 27.0801 16 27.4253V31.6605C16 31.6605 16 32.8533 16.1556 33.4497C16.3112 34.0461 16.3112 34.4934 16.9335 35.239C17.5558 35.9845 18.6448 36.4318 19.4227 36.4318H26.8905C27.1328 36.4318 25.3944 37.9684 24.6128 38.6488C24.3755 38.8554 24.2173 39.1298 24.1651 39.43C23.9901 40.4359 25.0181 41.2545 26.0445 40.9266L26.2292 40.8676C26.4594 40.794 26.6681 40.6707 26.8383 40.5075Z" fill="white"/>
<rect x="16" y="12" width="13" height="12" rx="4" fill="white"/>
<rect x="33" y="29" width="13" height="13" rx="4" fill="white"/>
</g>
<defs>
<filter id="filter0_d_258_6" x="0" y="0" width="62" height="62" filterUnits="userSpaceOnUse" color-interpolation-filters="sRGB">
<feFlood flood-opacity="0" result="BackgroundImageFix"/>
<feColorMatrix in="SourceAlpha" type="matrix" values="0 0 0 0 0 0 0 0 0 0 0 0 0 0 0 0 0 0 127 0" result="hardAlpha"/>
<feOffset dy="4"/>
<feGaussianBlur stdDeviation="2"/>
<feComposite in2="hardAlpha" operator="out"/>
<feColorMatrix type="matrix" values="0 0 0 0 0 0 0 0 0 0 0 0 0 0 0 0 0 0 0.25 0"/>
<feBlend mode="normal" in2="BackgroundImageFix" result="effect1_dropShadow_258_6"/>
<feBlend mode="normal" in="SourceGraphic" in2="effect1_dropShadow_258_6" result="shape"/>
</filter>
<clipPath id="clip0_258_6">
<rect width="48" height="48" fill="white" transform="translate(7 3)"/>
</clipPath>
</defs>
</svg>
