<svg width="36" height="36" viewBox="0 0 36 36" fill="none" xmlns="http://www.w3.org/2000/svg">
<g clip-path="url(#clip0_860_2)">
<path d="M25.2428 32.5208C23.8036 32.5208 22.3966 32.094 21.1999 31.2944C20.0032 30.4948 19.0705 29.3583 18.5198 28.0286C17.969 26.6989 17.8249 25.2357 18.1056 23.8241C18.3864 22.4125 19.0795 21.1159 20.0972 20.0982C21.1149 19.0805 22.4116 18.3874 23.8232 18.1066C25.2348 17.8258 26.6979 17.97 28.0276 18.5207C29.3573 19.0715 30.4938 20.0042 31.2934 21.2009C32.093 22.3976 32.5198 23.8045 32.5198 25.2438C32.5174 27.173 31.75 29.0226 30.3858 30.3868C29.0216 31.751 27.1721 32.5184 25.2428 32.5208ZM25.2428 20.1488C24.2353 20.1488 23.2505 20.4476 22.4127 21.0073C21.575 21.567 20.9221 22.3626 20.5366 23.2934C20.151 24.2242 20.0502 25.2485 20.2467 26.2366C20.4433 27.2247 20.9284 28.1324 21.6408 28.8448C22.3532 29.5572 23.2609 30.0424 24.249 30.2389C25.2372 30.4355 26.2614 30.3346 27.1922 29.949C28.123 29.5635 28.9186 28.9106 29.4783 28.0729C30.0381 27.2352 30.3368 26.2503 30.3368 25.2428C30.3352 23.8923 29.798 22.5975 28.8431 21.6426C27.8881 20.6876 26.5933 20.1504 25.2428 20.1488Z" fill="#460D4B"/>
<path d="M34.3399 35.4319C34.1966 35.4323 34.0547 35.4041 33.9223 35.3492C33.79 35.2943 33.6699 35.2136 33.5689 35.1119L28.8389 30.3819C28.641 30.1758 28.5318 29.9003 28.5347 29.6146C28.5376 29.3288 28.6524 29.0556 28.8545 28.8535C29.0566 28.6515 29.3298 28.5367 29.6155 28.5337C29.9013 28.5308 30.1768 28.64 30.3829 28.8379L35.1129 33.5679C35.2656 33.7207 35.3696 33.9154 35.4117 34.1272C35.4538 34.3391 35.432 34.5587 35.3493 34.7583C35.2666 34.9578 35.1265 35.1283 34.9468 35.2482C34.7671 35.3681 34.5559 35.4321 34.3399 35.4319Z" fill="#460D4B"/>
<path d="M15.826 31.065H4.5C3.43962 31.0634 2.42313 30.6415 1.67333 29.8917C0.923524 29.1419 0.501587 28.1254 0.5 27.065L0.5 4.5C0.501587 3.43962 0.923524 2.42313 1.67333 1.67333C2.42313 0.923524 3.43962 0.501587 4.5 0.5L21.241 0.5C22.3014 0.501587 23.3179 0.923524 24.0677 1.67333C24.8175 2.42313 25.2394 3.43962 25.241 4.5V14.749C25.2324 15.0328 25.1136 15.302 24.9099 15.4997C24.7061 15.6974 24.4334 15.808 24.1495 15.808C23.8656 15.808 23.5929 15.6974 23.3891 15.4997C23.1854 15.302 23.0666 15.0328 23.058 14.749V4.5C23.0572 4.01781 22.8653 3.55561 22.5244 3.21465C22.1834 2.87369 21.7212 2.68179 21.239 2.681H4.5C4.01816 2.68232 3.55647 2.87445 3.21594 3.21535C2.87542 3.55625 2.68379 4.01816 2.683 4.5V27.06C2.683 27.5424 2.87427 28.005 3.21488 28.3466C3.55549 28.6881 4.01764 28.8807 4.5 28.882H15.826C15.9721 28.8776 16.1176 28.9025 16.2539 28.9554C16.3902 29.0083 16.5145 29.088 16.6194 29.1897C16.7244 29.2915 16.8078 29.4134 16.8647 29.548C16.9217 29.6826 16.951 29.8273 16.951 29.9735C16.951 30.1197 16.9217 30.2644 16.8647 30.399C16.8078 30.5336 16.7244 30.6555 16.6194 30.7573C16.5145 30.859 16.3902 30.9387 16.2539 30.9916C16.1176 31.0445 15.9721 31.0694 15.826 31.065Z" fill="#460D4B"/>
<path d="M19.785 14.3271H5.95805C5.81193 14.3315 5.66641 14.3065 5.53012 14.2537C5.39383 14.2008 5.26954 14.1211 5.16462 14.0193C5.0597 13.9175 4.97628 13.7957 4.91932 13.6611C4.86236 13.5264 4.83301 13.3817 4.83301 13.2356C4.83301 13.0894 4.86236 12.9447 4.91932 12.81C4.97628 12.6754 5.0597 12.5536 5.16462 12.4518C5.26954 12.35 5.39383 12.2703 5.53012 12.2175C5.66641 12.1646 5.81193 12.1396 5.95805 12.1441H19.785C20.0688 12.1526 20.3381 12.2714 20.5358 12.4752C20.7334 12.6789 20.844 12.9517 20.844 13.2356C20.844 13.5195 20.7334 13.7922 20.5358 13.9959C20.3381 14.1997 20.0688 14.3185 19.785 14.3271Z" fill="#460D4B" fill-opacity="0.68"/>
<path d="M13.963 20.1488H5.95805C5.81193 20.1533 5.66641 20.1283 5.53012 20.0754C5.39383 20.0226 5.26954 19.9429 5.16462 19.8411C5.0597 19.7393 4.97628 19.6175 4.91932 19.4828C4.86236 19.3482 4.83301 19.2035 4.83301 19.0573C4.83301 18.9111 4.86236 18.7665 4.91932 18.6318C4.97628 18.4972 5.0597 18.3754 5.16462 18.2736C5.26954 18.1718 5.39383 18.0921 5.53012 18.0392C5.66641 17.9864 5.81193 17.9614 5.95805 17.9658H13.963C14.1092 17.9614 14.2547 17.9864 14.391 18.0392C14.5273 18.0921 14.6516 18.1718 14.7565 18.2736C14.8614 18.3754 14.9448 18.4972 15.0018 18.6318C15.0587 18.7665 15.0881 18.9111 15.0881 19.0573C15.0881 19.2035 15.0587 19.3482 15.0018 19.4828C14.9448 19.6175 14.8614 19.7393 14.7565 19.8411C14.6516 19.9429 14.5273 20.0226 14.391 20.0754C14.2547 20.1283 14.1092 20.1533 13.963 20.1488Z" fill="#460D4B" fill-opacity="0.68"/>
<path d="M12.5079 8.50478H5.95788C5.67412 8.49619 5.40485 8.37742 5.20717 8.17367C5.00949 7.96991 4.89893 7.69717 4.89893 7.41328C4.89893 7.12938 5.00949 6.85665 5.20717 6.65289C5.40485 6.44913 5.67412 6.33037 5.95788 6.32178H12.5079C12.7916 6.33037 13.0609 6.44913 13.2586 6.65289C13.4563 6.85665 13.5668 7.12938 13.5668 7.41328C13.5668 7.69717 13.4563 7.96991 13.2586 8.17367C13.0609 8.37742 12.7916 8.49619 12.5079 8.50478Z" fill="#460D4B" fill-opacity="0.68"/>
</g>
<defs>
<clipPath id="clip0_860_2">
<rect width="34.933" height="34.932" fill="white" transform="translate(0.5 0.5)"/>
</clipPath>
</defs>
</svg>
