<svg width="31" height="37" viewBox="0 0 31 37" fill="none" xmlns="http://www.w3.org/2000/svg">
<g clip-path="url(#clip0_860_9)">
<path d="M19.2809 11.0088H5.82094C5.54452 11.0173 5.28227 11.133 5.08975 11.3315C4.89722 11.5301 4.78955 11.7957 4.78955 12.0723C4.78955 12.3488 4.89722 12.6145 5.08975 12.813C5.28227 13.0115 5.54452 13.1273 5.82094 13.1358H19.2809C19.5573 13.1273 19.8196 13.0115 20.0121 12.813C20.2047 12.6145 20.3123 12.3488 20.3123 12.0723C20.3123 11.7957 20.2047 11.5301 20.0121 11.3315C19.8196 11.133 19.5573 11.0173 19.2809 11.0088Z" fill="#460D4B" fill-opacity="0.68"/>
<path d="M19.2812 15.1118H5.82122C5.67882 15.1075 5.53699 15.1317 5.40414 15.1832C5.2713 15.2347 5.15014 15.3123 5.04787 15.4115C4.94559 15.5107 4.86428 15.6294 4.80875 15.7606C4.75322 15.8918 4.72461 16.0329 4.72461 16.1753C4.72461 16.3178 4.75322 16.4588 4.80875 16.59C4.86428 16.7212 4.94559 16.8399 5.04787 16.9391C5.15014 17.0383 5.2713 17.116 5.40414 17.1674C5.53699 17.2189 5.67882 17.2432 5.82122 17.2388H19.2812C19.4236 17.2432 19.5655 17.2189 19.6983 17.1674C19.8312 17.116 19.9523 17.0383 20.0546 16.9391C20.1569 16.8399 20.2382 16.7212 20.2937 16.59C20.3492 16.4588 20.3778 16.3178 20.3778 16.1753C20.3778 16.0329 20.3492 15.8918 20.2937 15.7606C20.2382 15.6294 20.1569 15.5107 20.0546 15.4115C19.9523 15.3123 19.8312 15.2347 19.6983 15.1832C19.5655 15.1317 19.4236 15.1075 19.2812 15.1118Z" fill="#460D4B" fill-opacity="0.68"/>
<path d="M19.2809 19.3789H5.82094C5.54452 19.3874 5.28227 19.5031 5.08975 19.7017C4.89722 19.9002 4.78955 20.1659 4.78955 20.4424C4.78955 20.7189 4.89722 20.9846 5.08975 21.1831C5.28227 21.3817 5.54452 21.4974 5.82094 21.5059H19.2809C19.5573 21.4974 19.8196 21.3817 20.0121 21.1831C20.2047 20.9846 20.3123 20.7189 20.3123 20.4424C20.3123 20.1659 20.2047 19.9002 20.0121 19.7017C19.8196 19.5031 19.5573 19.3874 19.2809 19.3789Z" fill="#460D4B" fill-opacity="0.68"/>
<path d="M11.2339 23.6138H5.82191C5.5455 23.6223 5.28325 23.738 5.09072 23.9365C4.8982 24.1351 4.79053 24.4007 4.79053 24.6773C4.79053 24.9538 4.8982 25.2195 5.09072 25.418C5.28325 25.6165 5.5455 25.7323 5.82191 25.7408H11.2339C11.3763 25.7451 11.5181 25.7209 11.651 25.6694C11.7838 25.6179 11.905 25.5403 12.0073 25.4411C12.1095 25.3419 12.1909 25.2232 12.2464 25.092C12.3019 24.9608 12.3305 24.8198 12.3305 24.6773C12.3305 24.5348 12.3019 24.3938 12.2464 24.2626C12.1909 24.1314 12.1095 24.0127 12.0073 23.9135C11.905 23.8143 11.7838 23.7367 11.651 23.6852C11.5181 23.6337 11.3763 23.6094 11.2339 23.6138Z" fill="#460D4B" fill-opacity="0.68"/>
<path d="M24.602 23V3.5C24.602 2.70435 24.2859 1.94129 23.7233 1.37868C23.1607 0.816072 22.3977 0.500001 21.602 0.500001H7.546C7.40374 0.499784 7.26283 0.527677 7.13138 0.582078C6.99992 0.636478 6.88051 0.716315 6.78 0.817001L0.817005 6.778C0.71614 6.87838 0.636187 6.99776 0.581774 7.12925C0.52736 7.26073 0.499568 7.4017 0.500005 7.544V28.852C0.500005 29.6477 0.816076 30.4107 1.37868 30.9733C1.94129 31.5359 2.70436 31.852 3.50001 31.852H16.94C17.3032 33.0285 17.9746 34.0864 18.8845 34.9159C19.7944 35.7454 20.9098 36.3163 22.1148 36.5694C23.3197 36.8224 24.5705 36.7485 25.7373 36.3551C26.904 35.9618 27.9443 35.2634 28.7501 34.3324C29.5559 33.4015 30.0979 32.2718 30.3199 31.0607C30.5419 29.8496 30.4358 28.6012 30.0126 27.4449C29.5893 26.2887 28.8644 25.2667 27.913 24.4851C26.9616 23.7035 25.8184 23.1908 24.602 23ZM6.48201 4.123V6.48H4.12501L6.48201 4.123ZM16.636 29.723H3.49901C3.26808 29.7227 3.04669 29.6309 2.88341 29.4676C2.72012 29.3043 2.62827 29.0829 2.62801 28.852V8.607H7.546C7.82802 8.607 8.0985 8.49504 8.29801 8.29572C8.49752 8.09639 8.60974 7.82602 8.61001 7.544C8.61001 7.536 8.61001 7.528 8.61001 7.519C8.61001 7.51 8.61001 7.503 8.61001 7.494V2.627H21.604C21.8346 2.62832 22.0552 2.72091 22.2177 2.88452C22.3802 3.04812 22.4713 3.26942 22.471 3.5V23C20.8624 23.2542 19.3952 24.0681 18.3279 25.2982C17.2606 26.5283 16.6618 28.0956 16.637 29.724L16.636 29.723ZM23.536 34.598C22.5914 34.598 21.668 34.3179 20.8826 33.7931C20.0972 33.2683 19.485 32.5224 19.1236 31.6497C18.7621 30.777 18.6675 29.8167 18.8518 28.8903C19.0361 27.9638 19.4909 27.1128 20.1589 26.4449C20.8268 25.7769 21.6778 25.3221 22.6043 25.1378C23.5307 24.9535 24.491 25.0481 25.3637 25.4096C26.2364 25.771 26.9823 26.3832 27.5071 27.1686C28.0319 27.954 28.312 28.8774 28.312 29.822C28.3112 31.0881 27.8082 32.3022 26.9135 33.1979C26.0187 34.0936 24.8051 34.5979 23.539 34.6L23.536 34.598Z" fill="#460D4B"/>
<path d="M23.5392 26.0659C23.3992 26.0654 23.2605 26.0925 23.131 26.1457C23.0015 26.1988 22.8838 26.277 22.7846 26.3758C22.6854 26.4745 22.6066 26.5919 22.5529 26.7211C22.4991 26.8504 22.4713 26.9889 22.4712 27.1289V29.8229C22.4797 30.0993 22.5954 30.3616 22.794 30.5541C22.9925 30.7466 23.2581 30.8543 23.5347 30.8543C23.8112 30.8543 24.0769 30.7466 24.2754 30.5541C24.474 30.3616 24.5897 30.0993 24.5982 29.8229V27.1289C24.5979 26.8478 24.4864 26.5782 24.288 26.379C24.0895 26.1798 23.8203 26.0672 23.5392 26.0659Z" fill="#460D4B"/>
<path d="M24.5969 32.534C24.5933 32.5004 24.5879 32.467 24.5809 32.434C24.5743 32.4001 24.5656 32.3667 24.5549 32.334C24.5449 32.301 24.5329 32.268 24.5199 32.234C24.5069 32.2 24.4919 32.17 24.4749 32.14C24.4579 32.11 24.4409 32.08 24.4219 32.051C24.4027 32.0219 24.382 31.9939 24.3599 31.967C24.3379 31.9398 24.3145 31.9138 24.2899 31.889C24.2659 31.865 24.2399 31.841 24.2129 31.819C24.186 31.7969 24.1579 31.7762 24.1289 31.757C24.1002 31.7375 24.0705 31.7194 24.0399 31.703C23.9784 31.671 23.9141 31.6446 23.8479 31.624C23.8149 31.614 23.7809 31.606 23.7479 31.598C23.7149 31.59 23.6789 31.586 23.6479 31.582C23.5784 31.5749 23.5084 31.5749 23.4389 31.582C23.4049 31.582 23.3699 31.591 23.3389 31.598C23.3079 31.605 23.2709 31.614 23.2389 31.624C23.2049 31.6337 23.1716 31.6454 23.1389 31.659C23.1068 31.6719 23.0754 31.6866 23.0449 31.703C23.0139 31.719 22.9849 31.738 22.9559 31.757C22.9268 31.776 22.8987 31.7967 22.8719 31.819C22.8439 31.841 22.8189 31.865 22.7939 31.889C22.7693 31.9137 22.7459 31.9398 22.7239 31.967C22.7019 31.994 22.6809 32.022 22.6619 32.051C22.6429 32.08 22.6249 32.11 22.6089 32.14C22.5925 32.1704 22.5778 32.2018 22.5649 32.234C22.5515 32.2667 22.5398 32.3 22.5299 32.334C22.5199 32.367 22.5119 32.401 22.5039 32.434C22.4898 32.5024 22.4827 32.5721 22.4829 32.642C22.4829 32.677 22.4829 32.711 22.4829 32.742C22.4866 32.7755 22.4919 32.8089 22.4989 32.842C22.5059 32.876 22.5149 32.91 22.5249 32.942C22.5347 32.9759 22.5464 33.0093 22.5599 33.042C22.5727 33.0741 22.5874 33.1055 22.6039 33.136C22.62 33.1665 22.6377 33.1962 22.6569 33.225C22.6769 33.254 22.6969 33.282 22.7189 33.309C22.7407 33.3359 22.7641 33.3617 22.7889 33.386C22.8135 33.4108 22.8396 33.4341 22.8669 33.456C22.8937 33.4782 22.9218 33.4989 22.9509 33.518C22.9802 33.5373 23.0099 33.555 23.0399 33.571C23.0699 33.587 23.1019 33.602 23.1339 33.616C23.1659 33.63 23.1979 33.641 23.2339 33.651C23.2667 33.6616 23.3001 33.6703 23.3339 33.677C23.3679 33.684 23.4029 33.689 23.4339 33.693C23.4671 33.6966 23.5005 33.6986 23.5339 33.699C23.5673 33.6986 23.6007 33.6966 23.6339 33.693C23.6675 33.6893 23.7009 33.684 23.7339 33.677C23.7678 33.6704 23.8012 33.6617 23.8339 33.651C23.8669 33.641 23.8999 33.629 23.9339 33.616C23.9679 33.603 23.9979 33.588 24.0279 33.571C24.0896 33.5382 24.1479 33.4993 24.2019 33.455C24.2555 33.4108 24.3047 33.3616 24.3489 33.308C24.371 33.281 24.3917 33.253 24.4109 33.224C24.4301 33.1952 24.4478 33.1655 24.4639 33.135C24.4799 33.105 24.4949 33.073 24.5089 33.041C24.5229 33.009 24.5339 32.976 24.5439 32.941C24.5547 32.9082 24.5634 32.8748 24.5699 32.841C24.5835 32.7725 24.5906 32.7028 24.5909 32.633C24.5946 32.6001 24.5966 32.567 24.5969 32.534Z" fill="#460D4B"/>
</g>
<defs>
<clipPath id="clip0_860_9">
<rect width="29.942" height="36.226" fill="white" transform="translate(0.5 0.5)"/>
</clipPath>
</defs>
</svg>
