<svg width="159" height="162" viewBox="0 0 159 162" fill="none" xmlns="http://www.w3.org/2000/svg">
<path d="M97.1638 59.9619H30.7298C30.025 59.9619 29.349 60.2419 28.8506 60.7403C28.3523 61.2387 28.0723 61.9146 28.0723 62.6194C28.0723 63.3242 28.3523 64.0002 28.8506 64.4986C29.349 64.9969 30.025 65.2769 30.7298 65.2769H97.1638C97.8686 65.2769 98.5445 64.9969 99.0429 64.4986C99.5413 64.0002 99.8213 63.3242 99.8213 62.6194C99.8213 61.9146 99.5413 61.2387 99.0429 60.7403C98.5445 60.2419 97.8686 59.9619 97.1638 59.9619Z" fill="#460D4B" fill-opacity="0.68"/>
<path d="M30.7298 44.0181H57.3038C58.0086 44.0181 58.6845 43.7381 59.1829 43.2398C59.6813 42.7414 59.9613 42.0654 59.9613 41.3606C59.9613 40.6558 59.6813 39.9799 59.1829 39.4815C58.6845 38.9831 58.0086 38.7031 57.3038 38.7031H30.7298C30.025 38.7031 29.349 38.9831 28.8506 39.4815C28.3523 39.9799 28.0723 40.6558 28.0723 41.3606C28.0723 42.0654 28.3523 42.7414 28.8506 43.2398C29.349 43.7381 30.025 44.0181 30.7298 44.0181Z" fill="#460D4B" fill-opacity="0.68"/>
<path d="M97.1638 81.2202H30.7298C30.025 81.2202 29.349 81.5002 28.8506 81.9986C28.3523 82.497 28.0723 83.1729 28.0723 83.8777C28.0723 84.5825 28.3523 85.2585 28.8506 85.7569C29.349 86.2552 30.025 86.5352 30.7298 86.5352H97.1638C97.8686 86.5352 98.5445 86.2552 99.0429 85.7569C99.5413 85.2585 99.8213 84.5825 99.8213 83.8777C99.8213 83.1729 99.5413 82.497 99.0429 81.9986C98.5445 81.5002 97.8686 81.2202 97.1638 81.2202Z" fill="#460D4B" fill-opacity="0.68"/>
<path d="M75.9048 102.479H30.7298C30.025 102.479 29.349 102.759 28.8506 103.257C28.3523 103.756 28.0723 104.432 28.0723 105.137C28.0723 105.841 28.3523 106.517 28.8506 107.016C29.349 107.514 30.025 107.794 30.7298 107.794H75.9048C76.6096 107.794 77.2855 107.514 77.7839 107.016C78.2823 106.517 78.5623 105.841 78.5623 105.137C78.5623 104.432 78.2823 103.756 77.7839 103.257C77.2855 102.759 76.6096 102.479 75.9048 102.479Z" fill="#460D4B" fill-opacity="0.68"/>
<path d="M67.9332 129.053C68.638 129.053 69.3139 128.773 69.8123 128.274C70.3107 127.776 70.5907 127.1 70.5907 126.395C70.5907 125.69 70.3107 125.015 69.8123 124.516C69.3139 124.018 68.638 123.738 67.9332 123.738H30.7332C30.0284 123.738 29.3524 124.018 28.854 124.516C28.3557 125.015 28.0757 125.69 28.0757 126.395C28.0757 127.1 28.3557 127.776 28.854 128.274C29.3524 128.773 30.0284 129.053 30.7332 129.053H67.9332Z" fill="#460D4B" fill-opacity="0.68"/>
<path d="M6.815 14.815C6.815 10.3967 10.3967 6.815 14.815 6.815H75.881C80.2993 6.815 83.881 10.3967 83.881 14.815V36.015C83.881 40.4333 87.4627 44.015 91.881 44.015H113.081C117.499 44.015 121.081 47.5967 121.081 52.015V89.1925C121.081 90.6602 122.271 91.85 123.738 91.85V91.85C125.206 91.85 126.396 90.6602 126.396 89.1925V43.5738C126.396 41.452 125.553 39.4171 124.053 37.9168L89.9781 3.84307C88.4778 2.34282 86.443 1.5 84.3213 1.5H9.5C5.08172 1.5 1.5 5.08172 1.5 9.5V152.941C1.5 157.359 5.08172 160.941 9.5 160.941H75.9055C77.3732 160.941 78.563 159.751 78.563 158.284V158.284C78.563 156.816 77.3732 155.626 75.9055 155.626H14.815C10.3967 155.626 6.815 152.044 6.815 147.626V14.815ZM89.192 29.8843C89.192 22.7572 97.8087 19.1878 102.849 24.2271L103.664 25.0428C108.705 30.0824 105.135 38.7 98.0078 38.7H97.192C92.7737 38.7 89.192 35.1183 89.192 30.7V29.8843Z" fill="#460D4B"/>
<path d="M154.797 100.253L147.226 92.68C145.715 91.2372 143.706 90.4321 141.617 90.4321C139.527 90.4321 137.518 91.2372 136.007 92.68L95.107 133.58L89.471 154.247L88.092 155.626C87.5976 156.121 87.3185 156.79 87.3155 157.49C87.3125 158.189 87.5858 158.861 88.076 159.36L88.063 159.413L88.116 159.4C88.614 159.892 89.2865 160.166 89.9863 160.163C90.6861 160.16 91.3562 159.88 91.85 159.384L93.229 158.005L113.903 152.365L154.803 111.465C155.54 110.729 156.125 109.855 156.524 108.892C156.923 107.93 157.128 106.898 157.128 105.857C157.128 104.815 156.923 103.783 156.524 102.821C156.125 101.858 155.54 100.984 154.803 100.248L154.797 100.253ZM101.243 134.957L128.463 107.738L139.738 119.013L112.518 146.233L101.243 134.957ZM98.843 140.072L107.403 148.629L95.636 151.837L98.843 140.072ZM151.043 107.711L143.499 115.255L132.22 103.981L139.764 96.437C140.262 95.961 140.925 95.6953 141.614 95.6953C142.303 95.6953 142.966 95.961 143.464 96.437L151.037 104.01C151.28 104.253 151.473 104.541 151.605 104.859C151.736 105.176 151.804 105.516 151.804 105.86C151.804 106.204 151.736 106.544 151.605 106.861C151.473 107.179 151.28 107.467 151.037 107.71L151.043 107.711Z" fill="#460D4B"/>
</svg>
