<svg width="28" height="35" viewBox="0 0 28 35" fill="none" xmlns="http://www.w3.org/2000/svg">
<g clip-path="url(#clip0_860_18)">
<path d="M19.054 1.013C18.9784 0.93147 18.887 0.866126 18.7855 0.82092C18.6839 0.775715 18.5742 0.751588 18.463 0.75L5.217 0.75C4.03556 0.753933 2.90346 1.22418 2.06693 2.05846C1.2304 2.89275 0.757111 4.02358 0.75 5.205V30.261C0.757111 31.4424 1.2304 32.5733 2.06693 33.4075C2.90346 34.2418 4.03556 34.7121 5.217 34.716H23.197C24.3777 34.711 25.5088 34.2403 26.3445 33.4061C27.1802 32.572 27.6529 31.4417 27.66 30.261V10.365C27.6528 10.1511 27.5683 9.94718 27.422 9.791L19.054 1.013ZM19.292 3.65L24.892 9.532H21.253C20.9959 9.53292 20.7411 9.48309 20.5033 9.38537C20.2655 9.28765 20.0493 9.14395 19.8671 8.96252C19.685 8.78109 19.5404 8.56549 19.4417 8.32808C19.343 8.09066 19.2921 7.83611 19.292 7.579V3.65ZM23.197 33.075H5.217C4.47155 33.0698 3.75799 32.7719 3.23012 32.2455C2.70225 31.7191 2.40233 31.0064 2.395 30.261V5.205C2.40233 4.45957 2.70225 3.74686 3.23012 3.22048C3.75799 2.69411 4.47155 2.39621 5.217 2.391H17.651V7.576C17.6505 8.04858 17.7433 8.51661 17.9241 8.95323C18.1049 9.38984 18.3702 9.78645 18.7047 10.1203C19.0392 10.4541 19.4363 10.7186 19.8732 10.8986C20.3102 11.0786 20.7784 11.1704 21.251 11.169H26.017V30.261C26.0112 31.0066 25.7121 31.7199 25.1843 32.2465C24.6565 32.7732 23.9426 33.0708 23.197 33.075Z" fill="#460D4B"/>
<path d="M20.9568 27.4141H7.45282C7.23521 27.4141 7.02652 27.5005 6.87264 27.6544C6.71877 27.8083 6.63232 28.017 6.63232 28.2346C6.63232 28.4522 6.71877 28.6609 6.87264 28.8148C7.02652 28.9686 7.23521 29.0551 7.45282 29.0551H20.9648C21.1824 29.054 21.3907 28.9665 21.5438 28.8119C21.697 28.6573 21.7824 28.4482 21.7813 28.2306C21.7803 28.013 21.6928 27.8047 21.5382 27.6516C21.3836 27.4984 21.1744 27.413 20.9568 27.4141Z" fill="#460D4B" fill-opacity="0.68"/>
<path d="M10.0042 18.5858L13.3842 14.9508V23.9098C13.3842 24.1274 13.4707 24.3361 13.6245 24.49C13.7784 24.6439 13.9871 24.7303 14.2047 24.7303C14.4223 24.7303 14.631 24.6439 14.7849 24.49C14.9388 24.3361 15.0252 24.1274 15.0252 23.9098V14.9498L18.4052 18.5848C18.4785 18.6636 18.5666 18.7272 18.6644 18.772C18.7623 18.8167 18.868 18.8418 18.9755 18.8457C19.083 18.8496 19.1903 18.8322 19.2911 18.7947C19.392 18.7572 19.4844 18.7001 19.5632 18.6268C19.642 18.5536 19.7056 18.4655 19.7503 18.3676C19.7951 18.2698 19.8201 18.1641 19.824 18.0565C19.8279 17.949 19.8106 17.8418 19.7731 17.7409C19.7355 17.6401 19.6785 17.5476 19.6052 17.4688L14.7972 12.3088C14.721 12.2257 14.6282 12.1592 14.525 12.1138C14.4217 12.0684 14.3101 12.0449 14.1972 12.0449C14.0844 12.0449 13.9728 12.0684 13.8695 12.1138C13.7662 12.1592 13.6735 12.2257 13.5972 12.3088L8.79021 17.4698C8.71686 17.5485 8.65972 17.6408 8.62208 17.7415C8.58443 17.8422 8.56702 17.9494 8.57083 18.0568C8.57463 18.1643 8.59959 18.27 8.64427 18.3678C8.68895 18.4656 8.75248 18.5536 8.83121 18.6268C8.99304 18.7752 9.20668 18.8541 9.4261 18.8464C9.64552 18.8387 9.85314 18.7451 10.0042 18.5858Z" fill="#460D4B"/>
</g>
<defs>
<clipPath id="clip0_860_18">
<rect width="27.41" height="34.466" fill="white" transform="translate(0.5 0.5)"/>
</clipPath>
</defs>
</svg>
